<?xml version="1.0" standalone="no"?>
<!DOCTYPE svg PUBLIC "-//W3C//DTD SVG 1.1//EN" "http://www.w3.org/Graphics/SVG/1.1/DTD/svg11.dtd" >
<svg>
<metadata>
Created by FontForge 20090622 at Mon May 11 02:27:04 2020
 By deploy user
Copyright (c) 2012, Pablo Impallari (www.impallari.com|impallari@gmail.com), Copyright (c) 2012, Rodrigo Fuenzalida (www.rfuenzalida.com|hello&#194;&#168;rfuenzalida.com), with Reserved Font Name Libre Baskerville.
</metadata>
<defs>
<font id="LibreBaskerville-Bold" horiz-adv-x="585" >
  <font-face 
    font-family="Libre Baskerville"
    font-weight="700"
    font-stretch="normal"
    units-per-em="1000"
    panose-1="2 0 0 0 0 0 0 0 0 0"
    ascent="800"
    descent="-200"
    x-height="530"
    cap-height="770"
    bbox="-305 -260 1679 970"
    underline-thickness="50"
    underline-position="-50"
    unicode-range="U+000D-U+FB06"
  />
<missing-glyph horiz-adv-x="756" 
d="M130 -260v1230h496v-1230h-496zM240 911v-1110h275v1110h-275z" />
    <glyph glyph-name="f_f" unicode="ff" horiz-adv-x="772" 
d="M265 457v-291q0 -74 15 -99t60 -27v-40h-303v40q59 3 74 22.5t15 95.5v299h-107v57h107v32q0 112 69 178t186 66q69 0 117 -33q37 33 101.5 53t132.5 20t109 -24.5t41 -64.5q0 -26 -14 -39.5t-36 -13.5q-44 0 -75 40q-20 26 -32 35t-27 9q-97 0 -97 -180v-78h157v-57
h-157v-291q0 -75 19.5 -99.5t79.5 -26.5v-40h-299v40q40 2 50.5 23t10.5 95v299h-197zM265 514h197v146q-31 41 -57 56.5t-56 15.5q-45 0 -64.5 -45t-19.5 -135v-38z" />
    <glyph glyph-name="f_i" unicode="fi" horiz-adv-x="692" 
d="M588 540v-375q0 -80 15 -101.5t72 -23.5v-40h-295v40q43 2 56 24t13 93v113q0 111 -7 146q-5 24 -24.5 32.5t-70.5 8.5h-91v-293q0 -74 15.5 -99t61.5 -27v-38h-286v38q46 3 58 23t12 95v301h-99v57h99v72q0 116 72.5 180t202.5 64q79 0 128.5 -26t49.5 -67
q0 -22 -13.5 -35.5t-35.5 -13.5q-35 0 -69 33q-52 51 -99 51q-55 0 -77 -51q-20 -43 -20 -129v-78h127z" />
    <glyph glyph-name="f_l" unicode="fl" horiz-adv-x="707" 
d="M599 830v-669q0 -76 15.5 -97.5t71.5 -23.5v-40h-295v40q44 2 56.5 23t12.5 91v564q-52 54 -108 54q-53 0 -76 -61q-16 -44 -16 -119v-78h115v-57h-115v-291q0 -74 17 -99t67 -27v-40h-297v40q49 3 61.5 23t12.5 95v299h-103v57h103v72q0 115 67 179.5t186 64.5
q93 0 142 -26z" />
    <glyph glyph-name="f_f_i" unicode="ffi" horiz-adv-x="1044" 
d="M940 540v-376q0 -79 15 -100.5t72 -23.5v-40h-295v40q44 3 56.5 25t12.5 92v112q0 115 -7 147q-5 25 -22.5 33t-63.5 8h-107v-291q0 -75 16.5 -99.5t67.5 -26.5v-40h-294v40q46 2 58.5 23t12.5 95v299h-197v-291q0 -74 15 -99t60 -27v-40h-303v40q59 3 74 22.5t15 95.5
v299h-107v57h107v32q0 112 69 178t186 66q69 0 117 -33q37 33 101.5 53t132.5 20q86 0 138 -24.5t52 -64.5q0 -26 -14 -39.5t-36 -13.5q-35 0 -75 40q-44 44 -99 44q-97 0 -97 -180v-78h156zM265 514h197v146q-31 41 -57 56.5t-56 15.5q-45 0 -64.5 -45t-19.5 -135v-38z" />
    <glyph glyph-name="f_f_l" unicode="ffl" horiz-adv-x="1048" 
d="M265 457v-291q0 -74 15 -99t60 -27v-40h-303v40q59 3 74 22.5t15 95.5v299h-107v57h107v32q0 112 69 178t186 66q69 0 117 -33q37 33 101.5 53t132.5 20q84 0 135 -23l73 23v-666q0 -79 15 -100.5t72 -23.5v-40h-295v40q44 3 56.5 25t12.5 92v568q-47 47 -103 47
q-97 0 -97 -180v-78h132v-57h-132v-291q0 -75 16.5 -99.5t67.5 -26.5v-40h-294v40q46 2 58.5 23t12.5 95v299h-197zM265 514h197v146q-31 41 -57 56.5t-56 15.5q-45 0 -64.5 -45t-19.5 -135v-38z" />
    <glyph glyph-name="f_b" unicode="fb" horiz-adv-x="1050" 
d="M599 830v-369h4q54 79 161 79q105 0 176.5 -79.5t71.5 -195.5t-76 -196t-183 -80q-55 0 -103.5 21t-78.5 57l-76 -67h-34v718q-52 54 -109 54q-92 0 -92 -180v-78h115v-57h-115v-291q0 -74 17 -99t67 -27v-40h-297v40q49 3 61.5 23t12.5 95v299h-103v57h103v72
q0 115 67 179.5t186 64.5q93 0 142 -26zM601 282v-63q0 -74 39 -123t98 -49t90.5 55t31.5 159q0 216 -122 216q-64 0 -100.5 -51.5t-36.5 -143.5z" />
    <glyph glyph-name="f_f_b" unicode="ffb" horiz-adv-x="1391" 
d="M940 830v-369h4q54 79 161 79q105 0 176.5 -79.5t71.5 -195.5t-76 -196t-183 -80q-55 0 -103.5 21t-78.5 57l-76 -67h-34v725q-47 47 -104 47q-97 0 -97 -180v-78h132v-57h-132v-291q0 -75 16.5 -99.5t67.5 -26.5v-40h-294v40q46 2 58.5 23t12.5 95v299h-197v-291
q0 -74 15 -99t60 -27v-40h-303v40q59 3 74 22.5t15 95.5v299h-107v57h107v32q0 112 69 178t186 66q69 0 117 -33q37 33 101.5 53t132.5 20q93 0 146 -29zM942 282v-63q0 -74 39 -123t98 -49t90.5 55t31.5 159q0 216 -122 216q-64 0 -100.5 -51.5t-36.5 -143.5zM265 514h197
v146q-31 41 -57 56.5t-56 15.5q-45 0 -64.5 -45t-19.5 -135v-38z" />
    <glyph glyph-name="f_h" unicode="fh" horiz-adv-x="1071" 
d="M601 297v-133q0 -82 13.5 -101t73.5 -23v-40h-295v40q47 4 58 22.5t11 94.5v561q-52 54 -110 54q-92 0 -92 -180v-78h115v-57h-115v-291q0 -74 15 -99t59 -27v-40h-287v40q49 3 61.5 23t12.5 95v299h-103v57h103v72q0 115 67 179.5t186 64.5q93 0 142 -26l83 26v-369h4
q60 79 162 79q97 0 152.5 -62t55.5 -159v-155q0 -46 1.5 -66.5t11.5 -35t24.5 -17.5t47.5 -5v-40h-313v40q60 3 74.5 22t14.5 95v123q0 107 -23 150.5t-79 43.5q-63 0 -97 -47t-34 -130z" />
    <glyph glyph-name="f_f_h" unicode="ffh" horiz-adv-x="1412" 
d="M942 297v-133q0 -82 13.5 -101t73.5 -23v-40h-295v40q47 4 58 22.5t11 94.5v566q-2 0 -2 2q-47 47 -103 47q-97 0 -97 -180v-78h132v-57h-132v-291q0 -75 16.5 -99.5t67.5 -26.5v-40h-294v40q46 2 58.5 23t12.5 95v299h-197v-291q0 -74 15 -99t60 -27v-40h-303v40
q59 3 74 22.5t15 95.5v299h-107v57h107v32q0 112 69 178t186 66q69 0 117 -33q37 33 101.5 53t132.5 20q86 0 138 -25l70 25v-369h4q60 79 162 79q98 0 152 -60q56 -64 56 -161v-155q0 -46 1.5 -66.5t11.5 -35t24.5 -17.5t47.5 -5v-40h-313v40q60 3 74.5 22t14.5 95v123
q0 107 -23 150.5t-79 43.5q-60 0 -95 -44q-36 -49 -36 -133zM265 514h197v146q-31 41 -57 56.5t-56 15.5q-45 0 -64.5 -45t-19.5 -135v-38z" />
    <glyph glyph-name="f_j" unicode="fj" horiz-adv-x="673" 
d="M588 540v-542q0 -124 -61 -191t-174 -67q-75 0 -119.5 28t-44.5 71q0 24 16 38t38 14q25 0 42 -15.5t25 -33.5t24.5 -33.5t40.5 -15.5q38 0 56 30t18 99v494q-5 24 -24.5 32.5t-70.5 8.5h-98v-293q0 -74 15.5 -99t61.5 -27v-38h-286v38q46 3 58 23t12 95v301h-99v57h99
v72q0 116 72.5 180t202.5 64q79 0 128.5 -26t49.5 -67q0 -22 -13.5 -35.5t-35.5 -13.5q-35 0 -69 33q-52 51 -99 51q-55 0 -77 -51q-20 -43 -20 -129v-78h127z" />
    <glyph glyph-name="f_f_j" unicode="ffj" horiz-adv-x="1025" 
d="M940 540v-542q0 -124 -61 -191t-174 -67q-75 0 -119.5 28t-44.5 71q0 24 16 38t38 14q25 0 42 -15.5t25 -33.5t24.5 -33.5t40.5 -15.5q38 0 56 30t18 99v494q-5 24 -25.5 32.5t-67.5 8.5h-107v-291q0 -75 16.5 -99.5t67.5 -26.5v-40h-294v40q46 2 58.5 23t12.5 95v299
h-197v-291q0 -74 15 -99t60 -27v-40h-303v40q59 3 74 22.5t15 95.5v299h-107v57h107v32q0 112 69 178t186 66q69 0 117 -33q37 33 101.5 53t132.5 20q86 0 138 -24.5t52 -64.5q0 -26 -14 -39.5t-36 -13.5q-35 0 -75 40q-44 44 -99 44q-97 0 -97 -180v-78h156zM265 514h197
v146q-31 41 -57 56.5t-56 15.5q-45 0 -64.5 -45t-19.5 -135v-38z" />
    <glyph glyph-name="f_k" unicode="fk" horiz-adv-x="1021" 
d="M715 0v40q30 0 40.5 3.5t10.5 14.5q0 9 -31 58l-86 135l-50 -48v-39q0 -77 13 -100.5t56 -23.5v-40h-285v40q49 0 64 22.5t15 94.5v561q-52 54 -110 54q-92 0 -92 -180v-78h115v-57h-115v-291q0 -75 15 -100.5t59 -25.5v-40h-287v40q48 0 61 21.5t13 96.5v299h-103v57
h103v72q0 115 67 179.5t186 64.5q93 0 142 -26l83 26v-556l96 91q56 53 74 73.5t18 30.5q0 12 -17.5 16.5t-65.5 4.5v40h273v-40q-38 0 -67 -13t-63 -45l-97 -91l173 -245q22 -32 44 -44t59 -12v-40h-311z" />
    <glyph glyph-name="f_f_k" unicode="ffk" horiz-adv-x="1362" 
d="M1056 0v40q30 0 41 3.5t11 12.5q0 10 -30 57l-88 138l-50 -48v-39q0 -76 13.5 -100t55.5 -24v-40h-295v40q54 0 71.5 23t17.5 94v568q-47 47 -105 47q-97 0 -97 -180v-78h132v-57h-132v-291q0 -75 16.5 -99.5t67.5 -26.5v-40h-294v40q46 2 58.5 23t12.5 95v299h-197v-291
q0 -74 15 -99t60 -27v-40h-303v40q59 3 74 22.5t15 95.5v299h-107v57h107v32q0 112 69 178t186 66q69 0 117 -33q37 33 101.5 53t132.5 20q94 0 147 -29l61 29v-556l96 91q96 91 96 109q0 16 -87 16v40h273v-40q-38 0 -67 -13t-63 -45l-97 -91l173 -245q24 -34 46 -45
t57 -11v-40h-311zM265 514h197v146q-31 41 -57 56.5t-56 15.5q-45 0 -64.5 -45t-19.5 -135v-38z" />
    <glyph glyph-name="f_t" unicode="ft" horiz-adv-x="774" 
d="M17 475v55h108v56q0 109 70 176.5t183 67.5q67 0 111.5 -24t44.5 -61q0 -23 -17.5 -38t-42.5 -15q-17 0 -30 10.5t-42 45.5q-22 26 -52 26q-40 0 -63 -49t-23 -133v-62h158q47 0 93 37t63 84h51v-121h115v-55h-115v-307q0 -61 13.5 -87.5t45.5 -26.5q39 0 59 36l21 -29
q-28 -71 -132 -71q-69 0 -107.5 32t-38.5 90v363h-226v-309q0 -75 21.5 -99.5t87.5 -26.5v-40h-338v40q60 3 75 22.5t15 95.5v317h-108z" />
    <glyph glyph-name="f_f_t" unicode="fft" horiz-adv-x="1093" 
d="M809 475h-210v-309q0 -75 20 -100.5t79 -25.5v-40h-299v40q39 0 50 21.5t11 96.5v317h-197v-309q0 -74 15.5 -100t59.5 -26v-40h-303v40q60 0 74.5 20t14.5 98v317h-107v55h107v16q0 112 69 178t186 66q69 0 117 -33q37 33 101.5 53t132.5 20t109 -24.5t41 -64.5
q0 -26 -14 -39.5t-36 -13.5q-44 0 -75 40q-20 26 -32 35t-27 9q-97 0 -97 -180v-62h142q47 0 93 37t63 84h51v-121h115v-55h-115v-307q0 -61 13.5 -87.5t45.5 -26.5q39 0 59 36l21 -29q-28 -71 -132 -71q-69 0 -107.5 32t-38.5 90v363zM263 530h197v130q-31 41 -57 56.5
t-56 15.5q-45 0 -64.5 -45t-19.5 -135v-22z" />
    <glyph glyph-name=".notdef" horiz-adv-x="756" 
d="M130 -260v1230h496v-1230h-496zM240 911v-1110h275v1110h-275z" />
    <glyph glyph-name=".null" horiz-adv-x="0" 
 />
    <glyph glyph-name="nonmarkingreturn" horiz-adv-x="333" 
 />
    <glyph glyph-name="NULL" horiz-adv-x="0" 
 />
    <glyph glyph-name="NULL" horiz-adv-x="0" 
 />
    <glyph glyph-name="CR" unicode="&#xd;" horiz-adv-x="350" 
 />
    <glyph glyph-name="space" unicode=" " horiz-adv-x="266" 
 />
    <glyph glyph-name="exclam" unicode="!" horiz-adv-x="311" 
d="M185 207h-60q0 137 -20 265q-3 20 -9.5 55t-9.5 55t-6 49.5t-3 58.5q0 90 78 90t78 -90q0 -29 -3 -58.5t-6 -49.5t-9.5 -55t-9.5 -55q-20 -128 -20 -265zM80 65q0 32 22 54t54 22t54 -22.5t22 -53.5q0 -32 -22 -53.5t-54 -21.5t-54 21.5t-22 53.5z" />
    <glyph glyph-name="quotedbl" unicode="&#x22;" horiz-adv-x="392" 
d="M127 554h-41q-4 26 -14.5 78t-17 88.5t-6.5 50.5q0 25 16.5 42t41.5 17q26 0 42.5 -17t16.5 -43q0 -14 -6.5 -50.5t-17 -88t-14.5 -77.5zM307 554h-41q-4 27 -14.5 78t-17.5 88t-7 51q0 25 16.5 42t42.5 17q25 0 41.5 -17t16.5 -43q0 -13 -6.5 -50.5t-16.5 -87.5t-14 -78
z" />
    <glyph glyph-name="numbersign" unicode="#" horiz-adv-x="702" 
d="M635 310l-10 -60h-146l-38 -250h-72l36 250h-149l-39 -250h-73l39 250h-147l11 60h149l23 160h-150l10 60h151l36 240h73l-36 -240h149l35 240h73l-35 -240h141l-11 -60h-141l-23 -160h144zM439 470h-147l-23 -160h148z" />
    <glyph glyph-name="dollar" unicode="$" horiz-adv-x="644" 
d="M285 900h68v-123q87 0 155 -50.5t68 -116.5q0 -26 -16 -42t-42 -16q-32 0 -51 26t-27 56.5t-29.5 56.5t-57.5 26v-244q135 -54 194.5 -113.5t59.5 -139.5q0 -95 -68.5 -156.5t-185.5 -71.5v-162h-68v161q-106 6 -177 59.5t-71 127.5q0 34 15.5 53t43.5 19t45.5 -23
t32.5 -81q22 -87 111 -94v276q-114 46 -167.5 102t-53.5 132q0 97 66.5 157t154.5 60v121zM480 168q0 42 -29 72.5t-98 60.5v-247q61 7 94 37t33 77zM177 616q0 -66 108 -115v215q-44 0 -76 -30t-32 -70z" />
    <glyph glyph-name="percent" unicode="%" horiz-adv-x="712" 
d="M682 770l-571 -770h-80l580 770h71zM215 780q54 0 91.5 -46.5t37.5 -113.5q0 -65 -38 -110.5t-91 -45.5t-91 45.5t-38 110.5q0 67 38 113.5t91 46.5zM215 499q27 0 40.5 26.5t13.5 92.5q0 70 -13 98.5t-41 28.5t-41 -28.5t-13 -98.5q0 -66 13 -92.5t41 -26.5zM499 306
q53 0 91 -46.5t38 -113.5q0 -65 -38 -110.5t-91 -45.5t-91 45.5t-38 110.5q0 67 38 113.5t91 46.5zM499 25q27 0 40.5 26.5t13.5 92.5q0 70 -13 98.5t-41 28.5t-41 -28.5t-13 -98.5q0 -66 13 -92.5t41 -26.5z" />
    <glyph glyph-name="ampersand" unicode="&#x26;" horiz-adv-x="891" 
d="M356 473q82 63 82 144q0 42 -20.5 67t-55.5 25q-64 0 -64 -91q0 -78 58 -145zM460 133l-178 221q-50 -34 -77.5 -80t-27.5 -95q0 -50 32 -83t81 -33q84 0 170 70zM391 425l160 -201q49 55 80 104.5t31 73.5q0 30 -64 30v40h242v-40q-43 0 -67.5 -14t-48.5 -48l-139 -193
q41 -52 88.5 -82t90.5 -30q28 0 44 9.5t33 37.5l26 -7q-11 -56 -51 -85.5t-104 -29.5q-50 0 -95.5 24t-113.5 83q-52 -48 -122 -77.5t-140 -29.5q-96 0 -158.5 50t-62.5 127q0 68 54.5 125.5t173.5 115.5q-64 90 -64 174q0 88 53.5 143t139.5 55q76 0 125 -42t49 -107
q0 -54 -37.5 -102t-122.5 -104z" />
    <glyph glyph-name="quotesingle" unicode="'" horiz-adv-x="213" 
d="M127 554h-41q-4 26 -14.5 78t-17 88.5t-6.5 50.5q0 25 16.5 42t41.5 17q26 0 42.5 -17t16.5 -43q0 -14 -6.5 -50.5t-17 -88t-14.5 -77.5z" />
    <glyph glyph-name="parenleft" unicode="(" horiz-adv-x="343" 
d="M291 831l32 -28q-153 -224 -153 -461q0 -139 40 -272t122 -231l-33 -33q-264 235 -264 517q0 275 256 508z" />
    <glyph glyph-name="parenright" unicode=")" horiz-adv-x="343" 
d="M20 803l32 28q256 -233 256 -508q0 -282 -264 -517l-33 33q82 98 122 231t40 272q0 237 -153 461z" />
    <glyph glyph-name="asterisk" unicode="*" horiz-adv-x="492" 
d="M267 528q1 -53 15.5 -79t14.5 -44q0 -25 -14.5 -40.5t-36.5 -15.5q-23 0 -38 16t-15 41q0 15 15.5 47t16.5 74q-25 -12 -46 -37t-38 -42.5t-40 -17.5q-19 0 -34 15t-15 36q0 32 31 50q12 7 48 9.5t72 23.5q-52 25 -88 25q-24 0 -43.5 17.5t-19.5 39.5t15.5 37t35.5 15
q27 0 40 -14.5t31.5 -40t49.5 -42.5q-2 52 -16.5 78t-14.5 43q0 26 14.5 42t37.5 16t38 -16t15 -42q0 -14 -16 -46.5t-16 -74.5q31 17 49 42.5t31.5 40t40.5 14.5q20 0 35.5 -15t15.5 -37t-20 -39.5t-43 -17.5q-41 0 -88 -25q36 -21 72 -23.5t48 -9.5q31 -19 31 -50
q0 -21 -15 -36t-34 -15q-21 0 -36 11.5t-23.5 27t-25 33t-37.5 26.5z" />
    <glyph glyph-name="plus" unicode="+" horiz-adv-x="560" 
d="M314 86h-68v221h-212v62h212v221h68v-221h212v-62h-212v-221z" />
    <glyph glyph-name="comma" unicode="," horiz-adv-x="262" 
d="M59 -155l-29 42q105 70 105 121q-14 -8 -30 -8q-21 0 -36 19t-15 45q0 33 21.5 55t53.5 22q35 0 56 -25t21 -68q0 -106 -147 -203z" />
    <glyph glyph-name="hyphen" unicode="-" horiz-adv-x="457" 
d="M391 243h-325v93h325v-93z" />
    <glyph glyph-name="period" unicode="." horiz-adv-x="260" 
d="M54 64q0 32 22 54.5t53 22.5q33 0 55 -22.5t22 -54.5q0 -31 -22 -52.5t-55 -21.5q-31 0 -53 21.5t-22 52.5z" />
    <glyph glyph-name="slash" unicode="/" horiz-adv-x="477" 
d="M455 770l-361 -770h-71l371 770h61z" />
    <glyph glyph-name="zero" unicode="0" horiz-adv-x="755" 
d="M375 780q138 0 235.5 -116t97.5 -285q0 -162 -97.5 -275.5t-235.5 -113.5q-136 0 -232 113.5t-96 275.5q0 168 96 284.5t232 116.5zM375 48q77 0 115.5 73.5t38.5 254.5q0 129 -19 207t-52 108.5t-83 30.5t-83 -30.5t-52 -108.5t-19 -207q0 -181 38.5 -254.5t115.5 -73.5
z" />
    <glyph glyph-name="one" unicode="1" horiz-adv-x="436" 
d="M302 780v-616q0 -78 19 -100t90 -24v-40h-376v40q77 3 98.5 24.5t21.5 92.5v363q0 130 -5 146q-6 20 -31.5 26t-88.5 6v40q162 7 272 42z" />
    <glyph glyph-name="two" unicode="2" horiz-adv-x="651" 
d="M227 123l1 -5h204q52 0 78.5 23t48.5 92h44l-40 -233h-524v46q234 200 312.5 306.5t78.5 213.5q0 73 -33 115t-90 42q-55 0 -90.5 -36t-35.5 -93q0 -49 25.5 -78.5t69.5 -29.5q-4 -28 -27 -45.5t-55 -17.5q-62 0 -103.5 42.5t-41.5 107.5q0 89 78 148t197 59
q118 0 192.5 -60.5t74.5 -155.5q0 -112 -94 -217.5t-270 -223.5z" />
    <glyph glyph-name="three" unicode="3" horiz-adv-x="637" 
d="M429 216q0 76 -30.5 119t-83.5 43q-43 -18 -70 -18q-59 0 -59 44q0 38 57 38q21 0 63 -11q49 0 77 38.5t28 111.5q0 71 -28 108.5t-78 37.5q-46 0 -71.5 -22t-25.5 -61q0 -27 15.5 -45t39.5 -18q-13 -58 -77 -58q-49 0 -83.5 34t-34.5 81q0 64 65.5 103t172.5 39
q118 0 188 -48.5t70 -129.5q0 -64 -40.5 -116t-103.5 -69v-6q76 -21 122.5 -77t46.5 -127q0 -94 -81.5 -155.5t-206.5 -61.5q-114 0 -189 50.5t-75 127.5q0 56 39 96t93 40q33 0 56 -17.5t29 -46.5q-30 0 -50 -24.5t-20 -60.5q0 -49 32 -78.5t84 -29.5q57 0 93 46.5
t36 122.5z" />
    <glyph glyph-name="four" unicode="4" horiz-adv-x="664" 
d="M8 208v60l365 512h95v-509q73 2 95.5 20t22.5 76h37v-243h-37q0 54 -22 70t-96 18v-31q0 -75 18.5 -107t74.5 -34v-40h-343v40q66 3 87.5 34t21.5 100v34h-319zM327 271v324h-4l-230 -324h234z" />
    <glyph glyph-name="five" unicode="5" horiz-adv-x="595" 
d="M249 651l-47 -174l2 -3q38 41 110 41q101 0 169 -69t68 -172q0 -119 -94.5 -201.5t-232.5 -82.5q-94 0 -154 39t-60 99q0 32 16 49.5t44 17.5q24 0 36.5 -15.5t18.5 -37.5t14 -44.5t29.5 -38t58.5 -15.5q77 0 120.5 68.5t43.5 184.5q0 84 -22.5 122t-74.5 38
q-85 0 -118 -90q-13 -38 -41 -38t-28 26q0 4 2 12l112 413q55 -18 143 -18q112 0 160 19l6 -1q-14 -62 -62.5 -95.5t-121.5 -33.5h-97z" />
    <glyph glyph-name="six" unicode="6" horiz-adv-x="674" 
d="M629 259q0 -112 -84 -190.5t-204 -78.5q-130 0 -211.5 97t-81.5 250q0 182 104 312.5t249 130.5q80 0 135.5 -32.5t55.5 -79.5q0 -28 -18 -45t-48 -17q-22 0 -37 12.5t-23 30t-18 34.5t-29 29.5t-49 12.5q-65 0 -109.5 -80.5t-44.5 -199.5l3 -2q61 70 151 70
q110 0 184.5 -72.5t74.5 -181.5zM214 337v-54q0 -238 131 -238q63 0 93 51.5t30 158.5q0 199 -112 199q-43 0 -76.5 -28t-65.5 -89z" />
    <glyph glyph-name="seven" unicode="7" horiz-adv-x="516" 
d="M418 651h-190q-82 0 -108.5 -10.5t-43.5 -51.5l-17 -39h-40l74 280h42q-5 -20 -5 -29q0 -18 17 -24.5t63 -6.5h318v-40q-114 -233 -152 -325t-112 -308q-20 -57 -44 -82t-59 -25q-30 0 -47 16.5t-17 46.5q0 27 19 66t91 158l123.5 208.5t87.5 165.5z" />
    <glyph glyph-name="eight" unicode="8" horiz-adv-x="635" 
d="M342 314l-82 36q-85 -57 -85 -156q0 -68 38.5 -108t102.5 -40q67 0 110.5 37.5t43.5 95.5q0 80 -128 135zM452 448q65 -41 101.5 -101t36.5 -127q0 -101 -77.5 -165.5t-198.5 -64.5q-113 0 -188.5 54.5t-75.5 136.5q0 57 35 106.5t101 83.5q-118 80 -118 204q0 91 67 149
q65 56 178 56q99 0 167 -42q70 -50 70 -135q0 -46 -23 -82t-75 -73zM310 496l68 -27q60 49 60 119q0 58 -37 97.5t-93 39.5q-53 0 -89 -31.5t-36 -77.5q0 -71 127 -120z" />
    <glyph glyph-name="nine" unicode="9" horiz-adv-x="674" 
d="M45 511q0 112 84 190.5t204 78.5q130 0 211.5 -97t81.5 -250q0 -182 -104 -312.5t-249 -130.5q-80 0 -135.5 32.5t-55.5 79.5q0 28 18 45t48 17q22 0 37 -12.5t23 -29.5t18 -34.5t29 -30t49 -12.5q68 0 113.5 80.5t45.5 199.5l-3 2q-63 -70 -156 -70q-110 0 -184.5 72.5
t-74.5 181.5zM460 433v49q0 243 -131 243q-63 0 -93 -51.5t-30 -158.5q0 -199 112 -199q43 0 76.5 28t65.5 89z" />
    <glyph glyph-name="colon" unicode=":" horiz-adv-x="284" 
d="M66 64q0 32 22 54.5t53 22.5q33 0 55 -22.5t22 -54.5q0 -31 -22 -52.5t-55 -21.5q-31 0 -53 21.5t-22 52.5zM66 380q0 32 22 54.5t53 22.5q33 0 55 -22.5t22 -54.5q0 -31 -22 -52.5t-55 -21.5q-31 0 -53 21.5t-22 52.5z" />
    <glyph glyph-name="semicolon" unicode=";" horiz-adv-x="295" 
d="M78 -155l-29 42q105 70 105 121q-14 -8 -30 -8q-21 0 -36 19t-15 45q0 33 21.5 55t53.5 22q35 0 56 -25t21 -68q0 -106 -147 -203zM73 380q0 32 22 54.5t53 22.5q33 0 55 -22.5t22 -54.5q0 -31 -22 -52.5t-55 -21.5q-31 0 -53 21.5t-22 52.5z" />
    <glyph glyph-name="less" unicode="&#x3c;" horiz-adv-x="593" 
d="M96 336l420 -195v-69l-480 232v64l480 232v-69z" />
    <glyph glyph-name="equal" unicode="=" horiz-adv-x="618" 
d="M547 482v-60h-476v60h476zM547 302v-60h-476v60h476z" />
    <glyph glyph-name="greater" unicode="&#x3e;" horiz-adv-x="593" 
d="M77 141l420 195l-420 195v69l480 -232v-64l-480 -232v69z" />
    <glyph glyph-name="question" unicode="?" horiz-adv-x="403" 
d="M186 239h-68v237h35q137 0 137 89q0 44 -27 75t-64 31q-13 0 -40.5 -5.5t-38.5 -5.5q-29 0 -47.5 16.5t-18.5 42.5q0 61 75 61q89 0 158.5 -76t69.5 -174q0 -80 -45 -125t-126 -45v-121zM72 65q0 32 22 54t54 22t54 -22.5t22 -53.5q0 -32 -22 -53.5t-54 -21.5t-54 21.5
t-22 53.5z" />
    <glyph glyph-name="at" unicode="@" horiz-adv-x="1061" 
d="M690 442l23 88h121l-70 -227q-28 -91 -28 -126q0 -18 12.5 -29t33.5 -11q62 0 116.5 89.5t54.5 191.5q0 133 -101 220t-255 87q-183 0 -307 -122.5t-124 -302.5q0 -169 112.5 -272.5t294.5 -103.5q172 0 320 100l32 -41q-94 -62 -181 -89.5t-187 -27.5q-226 0 -371.5 122
t-145.5 313q0 132 72 242t198 173.5t277 63.5q190 0 306.5 -98.5t116.5 -259.5q0 -139 -80.5 -242t-189.5 -103q-108 0 -117 115h-4q-33 -55 -78.5 -85t-94.5 -30q-69 0 -118 54.5t-49 131.5q0 104 90 190.5t199 86.5q49 0 76 -22.5t42 -75.5h4zM580 488q-65 0 -116.5 -77
t-51.5 -175q0 -104 60 -104t119.5 86.5t59.5 174.5q0 95 -71 95z" />
    <glyph glyph-name="A" unicode="A" horiz-adv-x="809" 
d="M524 173l-23 60h-283q-47 -106 -47 -147q0 -28 20.5 -37t69.5 -9v-40h-274v40q49 5 73.5 22t41.5 59l263 659h74l239 -584q29 -71 48 -100t41 -39.5t71 -15.5v-41h-378v41q51 2 70.5 10.5t19.5 31.5q0 22 -26 90zM360 596l-119 -303h238l-115 303h-4z" />
    <glyph glyph-name="B" unicode="B" horiz-adv-x="797" 
d="M418 0h-385v40q68 2 87 23t19 91v462q0 70 -15.5 90.5t-69.5 23.5v40h321q150 0 232 -49t82 -138q0 -119 -171 -168v-4q109 0 174.5 -58.5t65.5 -149.5q0 -100 -95 -153q-89 -50 -245 -50zM425 61q161 0 161 145q0 89 -58 130q-56 39 -194 39h-48v-200q0 -62 32 -88
t107 -26zM286 435h59q87 0 134 33q48 33 48 103q0 73 -36 105.5t-116 32.5h-71q-18 0 -18 -17v-257z" />
    <glyph glyph-name="C" unicode="C" horiz-adv-x="823" 
d="M688 708l19 62h49l-20 -253h-40q-21 92 -82 145t-146 53q-117 0 -182 -89.5t-65 -247.5q0 -155 64.5 -238.5t186.5 -83.5q203 0 259 215h44v-271h-47l-14 79q-110 -89 -267 -89q-182 0 -291 103.5t-109 278.5q0 181 114.5 294.5t297.5 113.5q113 0 229 -72z" />
    <glyph glyph-name="D" unicode="D" horiz-adv-x="919" 
d="M452 0h-417v40q67 2 86 22.5t19 91.5v462q0 70 -16 90.5t-73 23.5v40h380q192 0 317 -112.5t125 -285.5q0 -164 -117.5 -268t-303.5 -104zM429 709h-125q-17 0 -17 -17v-517q0 -114 147 -114q131 0 201.5 79.5t70.5 229.5q0 159 -74 249t-203 90z" />
    <glyph glyph-name="E" unicode="E" horiz-adv-x="764" 
d="M287 680v-254q129 0 164 20.5t44 101.5h37v-293h-37q-5 35 -12.5 54.5t-19.5 34t-36.5 20.5t-55 8.5t-84.5 2.5v-206q0 -65 37 -89.5t134 -24.5q114 0 162 36t69 138h40l-16 -229h-678v40q67 2 86 23t19 91v462q0 70 -17 90.5t-77 23.5v40h632l7 -196h-43
q-13 84 -55 113.5t-149 29.5h-113q-25 0 -31.5 -6.5t-6.5 -30.5z" />
    <glyph glyph-name="F" unicode="F" horiz-adv-x="689" 
d="M287 355v-194q0 -77 25.5 -98t120.5 -23v-40h-398v40q67 2 86 23t19 91v462q0 70 -17 90.5t-77 23.5v40h612l12 -211h-42q-12 87 -51 121t-134 34h-138q-18 0 -18 -17v-289q122 0 161.5 24.5t46.5 105.5h37v-313h-37q-12 83 -50 106t-158 24z" />
    <glyph glyph-name="G" unicode="G" horiz-adv-x="876" 
d="M438 -10q-180 0 -285.5 103t-105.5 278q0 182 112 295.5t291 113.5q116 0 239 -72l19 62h36v-253h-50q-20 94 -80.5 146t-151.5 52q-114 0 -178 -89t-64 -247q0 -155 62.5 -238.5t179.5 -83.5q84 0 132 43.5t48 120.5q0 46 -24.5 68t-80.5 26v40h324v-40q-49 0 -68 -21.5
t-19 -77.5v-133q-44 0 -67 -7.5t-77 -40.5q-76 -45 -192 -45z" />
    <glyph glyph-name="H" unicode="H" horiz-adv-x="945" 
d="M805 609v-448q0 -76 18.5 -97.5t86.5 -23.5v-40h-367v40q73 2 94 22.5t21 91.5v209h-371v-202q0 -76 20 -97.5t94 -23.5v-40h-366v40q67 2 86 22.5t19 91.5v462q0 70 -16.5 90.5t-77.5 23.5v40h345v-40q-67 -2 -85.5 -23.5t-18.5 -97.5v-184h371v191q0 70 -19 90.5
t-86 23.5v40h346v-40q-61 -2 -77.5 -23.5t-16.5 -97.5z" />
    <glyph glyph-name="I" unicode="I" horiz-adv-x="429" 
d="M393 40v-40h-357v40q68 2 86.5 27t18.5 117v402q0 86 -17.5 113.5t-77.5 30.5v40h337v-40q-60 -3 -77.5 -30.5t-17.5 -113.5v-402q0 -92 18.5 -117t86.5 -27z" />
    <glyph glyph-name="J" unicode="J" horiz-adv-x="407" 
d="M130 -23v639q0 70 -17 90.5t-78 23.5v40h337v-40q-62 -2 -78.5 -23.5t-16.5 -97.5v-611q0 -126 -65 -192t-190 -66q-88 0 -139 30.5t-51 79.5q0 28 18 44t46 16q22 0 36 -11.5t34 -45.5q19 -32 35 -43.5t40 -11.5q43 0 66 47t23 132z" />
    <glyph glyph-name="K" unicode="K" horiz-adv-x="822" 
d="M287 293v-132q0 -76 17 -97.5t78 -23.5v-40h-347v40q67 2 86 23t19 91v462q0 69 -17 90t-77 24v40h345v-40q-67 -2 -85.5 -23.5t-18.5 -97.5v-222l259 278q23 25 23 42q0 23 -68 23v40h273v-39q-45 -2 -72.5 -18t-86.5 -77l-178 -186l294 -358q38 -48 112 -52v-40h-370
v40q77 1 77 27q0 16 -36 60l-177 218z" />
    <glyph glyph-name="L" unicode="L" horiz-adv-x="755" 
d="M740 227l-16 -227h-689v40q67 2 86 23t19 91v462q0 70 -17 90.5t-77 23.5v40h345v-40q-67 -2 -85.5 -23.5t-18.5 -97.5v-419q0 -82 37 -108.5t144 -26.5q117 0 163.5 34t68.5 138h40z" />
    <glyph glyph-name="M" unicode="M" horiz-adv-x="1145" 
d="M577 187h4l231 583h292v-40q-65 0 -84 -29t-19 -122v-388q0 -98 19.5 -123.5t94.5 -27.5v-40h-376v40q75 2 95 27t20 117v468h-5l-269 -662h-74l-278 662h-4v-461q0 -98 19.5 -123.5t94.5 -27.5v-40h-308v40q75 2 95.5 27t20.5 117v402q0 87 -19.5 115.5t-85.5 28.5v40
h303z" />
    <glyph glyph-name="N" unicode="N" horiz-adv-x="940" 
d="M804 -10h-134l-443 631h-4v-430q0 -98 18 -123.5t86 -27.5v-40h-297v40q74 2 94.5 27t20.5 117v402q0 86 -19.5 113.5t-85.5 30.5v40h279l403 -578h4v387q0 98 -18 123.5t-86 27.5v40h297v-40q-74 -2 -94.5 -27t-20.5 -117v-596z" />
    <glyph glyph-name="O" unicode="O" horiz-adv-x="943" 
d="M472 780q180 0 303.5 -116t123.5 -285q0 -163 -124 -276t-303 -113t-303 113t-124 276q0 169 123.5 285t303.5 116zM472 55q116 0 184.5 86.5t68.5 234.5q0 156 -68 247.5t-185 91.5t-185 -91.5t-68 -247.5q0 -148 68 -234.5t185 -86.5z" />
    <glyph glyph-name="P" unicode="P" horiz-adv-x="717" 
d="M700 556q0 -107 -84.5 -164t-243.5 -57h-85v-176q0 -76 26 -97.5t119 -21.5v-40h-397v40q67 2 86 23t19 91v462q0 70 -16.5 90.5t-77.5 23.5v40h346q151 0 229.5 -54.5t78.5 -159.5zM287 697v-302h65q96 0 141.5 39.5t45.5 122.5q0 157 -157 157h-77q-18 0 -18 -17z" />
    <glyph glyph-name="Q" unicode="Q" horiz-adv-x="949" 
d="M471 780q182 0 307.5 -116.5t125.5 -285.5q0 -102 -50.5 -189t-141.5 -146q-58 -37 -178 -79q-68 -24 -105 -48v-4q18 2 39 2q57 0 157 -30t156 -30q47 0 74.5 17t42.5 57h37q4 -23 4 -43q0 -62 -53 -103.5t-132 -41.5q-63 0 -130.5 30.5t-127 61t-101.5 30.5
q-38 0 -74.5 -28.5t-59.5 -28.5q-17 0 -27 8t-10 20q0 17 15 31t58 38l126 71q-161 14 -269 129.5t-108 274.5q0 171 122 287t303 116zM471 30q118 0 188.5 94t70.5 251q0 156 -70 248t-189 92q-117 0 -184 -91t-67 -249q0 -160 67.5 -252.5t183.5 -92.5z" />
    <glyph glyph-name="R" unicode="R" horiz-adv-x="815" 
d="M695 577q0 -178 -201 -214l232 -266q49 -57 124 -57v-40h-237l-248 304q-42 51 -78 51v-196q0 -75 25.5 -97t119.5 -22v-40h-397v40q66 0 85.5 21.5t19.5 92.5v462q0 70 -16.5 90.5t-77.5 23.5v40h346q144 0 223.5 -51t79.5 -142zM287 697v-282h65q95 0 141 37.5
t46 119.5q0 64 -39.5 103t-107.5 39h-87q-18 0 -18 -17z" />
    <glyph glyph-name="S" unicode="S" horiz-adv-x="663" 
d="M69 0l-15 255h39q13 -94 75.5 -149t153.5 -55q75 0 121 34t46 90q0 47 -36 76t-152 72q-229 87 -229 245q0 94 69 153t178 59q99 0 185 -64l18 50h24l11 -216h-39q-24 81 -75 125t-118 44q-61 0 -100 -30.5t-39 -78.5q0 -43 33 -69t137 -65q139 -53 200.5 -113.5
t61.5 -143.5q0 -101 -83.5 -165t-214.5 -64q-111 0 -207 70l-20 -60h-24z" />
    <glyph glyph-name="T" unicode="T" horiz-adv-x="827" 
d="M805 770l10 -220h-43q-6 96 -45 132t-123 36q-76 0 -97.5 -6t-21.5 -25v-524q0 -68 25 -94t110 -29v-40h-419v40q85 3 111 29t26 94v524q0 19 -19 25t-84 6q-36 0 -57 -2t-48 -11t-41.5 -26t-25.5 -49.5t-12 -79.5h-39l10 220h783z" />
    <glyph glyph-name="U" unicode="U" horiz-adv-x="880" 
d="M757 522v-212q0 -170 -76 -245t-248 -75q-161 0 -235.5 67.5t-74.5 215.5v274q0 132 -18 159q-16 24 -78 24v40h359v-40q-75 0 -93 -22q-13 -16 -18 -49.5t-5 -111.5v-262q0 -113 48.5 -168t149.5 -55q206 0 206 229v231q0 84 -6.5 123t-22.5 58q-26 27 -97 27v40h324
v-40q-67 0 -88 -25q-27 -34 -27 -183z" />
    <glyph glyph-name="V" unicode="V" horiz-adv-x="805" 
d="M278 610l160 -438l130 333q37 95 47.5 129t10.5 57q0 24 -18 31.5t-72 7.5v40h284v-40q-83 0 -115 -81l-263 -659h-74l-239 584q-39 94 -70 124.5t-90 30.5v41h378v-41q-52 -1 -70.5 -9.5t-18.5 -30.5q0 -24 20 -79z" />
    <glyph glyph-name="W" unicode="W" horiz-adv-x="1227" 
d="M761 597l126 -403l135 386q24 68 24 100q0 29 -20 39.5t-68 10.5v40h284v-40q-86 0 -115 -81l-241 -659h-89l-174 528l-198 -528h-83l-212 584q-36 99 -66.5 127t-91.5 28v41h378v-41q-49 0 -69 -9.5t-20 -31.5q0 -21 25 -91l140 -403l162 442q-19 53 -42 70t-73 23v41
h353v-41q-43 0 -62.5 -11t-19.5 -40q0 -27 17 -81z" />
    <glyph glyph-name="X" unicode="X" horiz-adv-x="848" 
d="M499 424l227 -313q52 -71 133 -71v-40h-373v40q47 0 62.5 6.5t15.5 19.5q0 11 -9.5 27.5t-43.5 63.5l-107 152l-69 -85q-16 -20 -41.5 -49l-39 -45t-24.5 -33.5t-11 -28.5q0 -16 20 -22t66 -6v-40h-307v40q55 0 81.5 12t59.5 52l219 267l-233 302q-26 33 -52.5 45
t-62.5 12v40h376v-40q-68 0 -68 -36q0 -26 30 -67l103 -142l129 154q28 34 28 60q0 16 -16 23.5t-65 7.5v40h298v-40q-43 0 -65.5 -6.5t-37.5 -23.5z" />
    <glyph glyph-name="Y" unicode="Y" horiz-adv-x="760" 
d="M308 276l-207 368q-30 52 -53 69t-62 17v40h336v-40q-76 0 -76 -32q0 -15 25 -62l143 -273h4l126 210q59 99 59 127q0 17 -15.5 23.5t-57.5 6.5v40h251v-40q-44 0 -77.5 -35t-102.5 -152l-146 -250v-102q0 -98 19.5 -124.5t84.5 -26.5v-40h-356v40q64 0 84.5 26t20.5 118
v92z" />
    <glyph glyph-name="Z" unicode="Z" horiz-adv-x="797" 
d="M760 255l-13 -255h-732v23l503 695h-253q-73 0 -110.5 -36.5t-52.5 -115.5h-39l16 204h648v-23l-498 -691h286q105 0 142.5 39.5t56.5 159.5h46z" />
    <glyph glyph-name="bracketleft" unicode="[" horiz-adv-x="392" 
d="M379 768h-159v-866h159v-52h-283v970h283v-52z" />
    <glyph glyph-name="backslash" unicode="\" horiz-adv-x="477" 
d="M383 0l-361 770h61l371 -770h-71z" />
    <glyph glyph-name="bracketright" unicode="]" horiz-adv-x="392" 
d="M172 768h-159v52h283v-970h-283v52h159v866z" />
    <glyph glyph-name="asciicircum" unicode="^" horiz-adv-x="492" 
d="M199 410h94l135 -180h-57l-125 99l-125 -99h-57z" />
    <glyph glyph-name="underscore" unicode="_" horiz-adv-x="730" 
d="M664 -148h-598v78h598v-78z" />
    <glyph glyph-name="grave" unicode="`" horiz-adv-x="299" 
d="M283 651h-64l-134 60q-36 16 -52.5 28.5t-16.5 28.5q0 21 15 33t40 12q39 0 85 -43z" />
    <glyph glyph-name="a" unicode="a" horiz-adv-x="574" 
d="M344 190v95q-87 -40 -128 -72t-41 -66q0 -29 16 -46t40 -17q48 0 80.5 30.5t32.5 75.5zM203 277l141 61v42q0 111 -84 111q-28 0 -43.5 -15t-28.5 -52q-19 -53 -71 -53q-28 0 -43 17t-15 48q0 48 54 76t157 28q113 0 160.5 -40.5t47.5 -135.5v-219q0 -85 34 -85
q19 0 35 13l15 -29q-13 -25 -43 -39.5t-67 -14.5q-46 0 -70 28t-24 79h-5q-58 -106 -180 -106q-62 0 -100.5 35.5t-38.5 92.5q0 90 169 158z" />
    <glyph glyph-name="b" unicode="b" horiz-adv-x="674" 
d="M225 282v-63q0 -74 39 -123t98 -49t90.5 55.5t31.5 161.5q0 213 -122 213q-36 0 -66.5 -19.5t-47.5 -54.5q-23 -48 -23 -121zM223 830v-369h4q54 79 160 79q105 0 177 -79.5t72 -194.5q0 -118 -76 -197.5t-184 -79.5q-54 0 -102.5 21t-78.5 57l-76 -67h-34v595
q0 94 -13 129q-6 15 -18.5 20.5t-54.5 11.5v34z" />
    <glyph glyph-name="c" unicode="c" horiz-adv-x="564" 
d="M502 121l26 -38q-79 -88 -217 -88q-122 0 -197 74t-75 194q0 124 80 200.5t208 76.5q90 0 149.5 -34t59.5 -84q0 -29 -16.5 -46t-44.5 -17q-42 0 -75 51q-30 47 -44.5 59.5t-40.5 12.5q-58 0 -90 -54t-32 -151q0 -104 38.5 -160t110.5 -56q83 0 160 60z" />
    <glyph glyph-name="d" unicode="d" horiz-adv-x="694" 
d="M481 -10v74h-4q-69 -74 -179 -74q-114 0 -186.5 76t-72.5 195t72.5 199t180.5 80q104 0 156 -66h4v85q0 132 -6 157q-9 40 -109 40v34l253 40v-572q0 -138 7 -177q4 -26 17.5 -33.5t56.5 -7.5v-39zM450 248v39q0 78 -32 128q-37 59 -106 59q-58 0 -89.5 -54.5
t-31.5 -156.5q0 -104 31 -160t89 -56q33 0 63 17t49 46q27 41 27 138z" />
    <glyph glyph-name="e" unicode="e" 
d="M512 128l28 -35q-91 -103 -227 -103q-123 0 -199 74.5t-76 193.5q0 124 80.5 203t206.5 79q106 0 165 -57.5t59 -159.5q0 -16 -5 -19.5t-28 -3.5h-322q-4 -9 -4 -33q0 -98 42.5 -155t115.5 -57q83 0 164 73zM201 356h145q41 0 52 4.5t11 21.5q0 43 -25 71.5t-63 28.5
q-43 0 -76.5 -35.5t-43.5 -90.5z" />
    <glyph glyph-name="f" unicode="f" horiz-adv-x="443" 
d="M17 475v55h108v56q0 109 70 176.5t183 67.5q67 0 111.5 -24t44.5 -61q0 -23 -17.5 -38t-42.5 -15q-17 0 -30 10.5t-42 45.5q-22 26 -52 26q-40 0 -63 -49t-23 -133v-62h169v-55h-169v-309q0 -75 21.5 -99.5t87.5 -26.5v-40h-338v40q60 3 75 22.5t15 95.5v317h-108z" />
    <glyph glyph-name="g" unicode="g" horiz-adv-x="610" 
d="M228 108q92 -8 163 -19q77 -11 122 -58.5t45 -117.5q0 -85 -70.5 -129t-205.5 -44q-124 0 -192 36.5t-68 103.5q0 50 26.5 77.5t68.5 27.5q57 0 92 -41q-26 -5 -42.5 -23.5t-16.5 -43.5q0 -40 36 -61.5t104 -21.5q150 0 150 95q0 35 -23 59t-64 29l-175 24
q-111 15 -111 99q0 40 26.5 66.5t75.5 36.5v4q-45 18 -74 62.5t-29 95.5q0 75 58.5 125t146.5 50q90 0 154 -49q79 49 122 49q38 0 61.5 -17t23.5 -45q0 -21 -13 -34.5t-34 -13.5q-20 0 -41.5 21.5t-41.5 21.5q-21 0 -40 -27q18 -32 18 -82q0 -79 -51.5 -129t-160.5 -62
q-48 -5 -66.5 -13t-18.5 -24q0 -24 45 -28zM276 230q32 0 50 34t18 95q0 62 -18 95.5t-51 33.5q-34 0 -54 -34.5t-20 -92.5q0 -59 20.5 -95t54.5 -36z" />
    <glyph glyph-name="h" unicode="h" horiz-adv-x="714" 
d="M244 297v-133q0 -82 13.5 -101t73.5 -23v-40h-315v40q61 4 75 22.5t14 94.5v411q0 113 -7 147q-5 25 -19.5 32.5t-59.5 7.5v37l223 38v-369h4q60 79 162 79q98 0 152 -60q56 -64 56 -161v-155q0 -46 1.5 -66.5t11.5 -35t24.5 -17.5t47.5 -5v-40h-313v40q60 3 74.5 22
t14.5 95v123q0 107 -23 150.5t-79 43.5q-60 0 -95 -44q-36 -49 -36 -133z" />
    <glyph glyph-name="i" unicode="i" horiz-adv-x="361" 
d="M257 540v-376q0 -80 14.5 -101t72.5 -23v-40h-315v40q56 3 72.5 24.5t16.5 92.5v123q0 116 -7 147q-5 25 -22.5 33t-63.5 8v34zM110 752q0 33 22.5 55.5t54.5 22.5q33 0 55.5 -22.5t22.5 -55.5q0 -32 -22.5 -54.5t-55.5 -22.5q-32 0 -54.5 22.5t-22.5 54.5z" />
    <glyph glyph-name="j" unicode="j" horiz-adv-x="331" 
d="M246 540v-542q0 -124 -61 -191t-174 -67q-75 0 -119.5 28t-44.5 71q0 24 16 38t38 14q25 0 42 -15.5t25 -33.5t24.5 -33.5t40.5 -15.5q38 0 56 30t18 99v368q0 104 -8 138q-5 24 -22 32t-63 8v34zM99 752q0 33 22.5 55.5t54.5 22.5q33 0 55.5 -22.5t22.5 -55.5
q0 -32 -22.5 -54.5t-55.5 -22.5q-32 0 -54.5 22.5t-22.5 54.5z" />
    <glyph glyph-name="k" unicode="k" horiz-adv-x="664" 
d="M358 0v40q58 0 58 13q0 14 -48 84l-76 114l-50 -48v-39q0 -77 13 -100.5t56 -23.5v-40h-295v40q55 1 72 23.5t17 93.5v424q0 46 -0.5 70.5t-4 47t-8 31.5t-15.5 16t-23 8t-35 1v37l223 38v-556l96 91q96 90 96 109q0 16 -87 16v40h273v-40q-38 0 -66.5 -13t-63.5 -45
l-97 -91l173 -245q23 -32 45 -44t58 -12v-40h-311z" />
    <glyph glyph-name="l" unicode="l" horiz-adv-x="355" 
d="M247 830v-666q0 -80 14.5 -101t72.5 -23v-40h-315v40q56 3 72.5 24.5t16.5 92.5v413q0 116 -7 147q-5 25 -22.5 33t-63.5 8v34z" />
    <glyph glyph-name="m" unicode="m" horiz-adv-x="1106" 
d="M258 297v-132q0 -83 13 -102t73 -23v-40h-316v40q60 4 75 23t15 94v124q0 122 -7 147q-6 25 -21.5 32.5t-63.5 7.5v34l193 38l12 -87h6q42 46 84.5 66.5t98.5 20.5q129 0 174 -89h4q76 89 193 89q122 0 174 -58q39 -45 39 -163v-154q0 -82 13.5 -101.5t73.5 -23.5v-40
h-316v40q60 3 74.5 22.5t14.5 94.5v131q0 104 -25 145.5t-87 41.5q-61 0 -95 -61q-26 -47 -26 -117v-132q0 -83 13.5 -102t74.5 -23v-40h-317v40q60 4 74.5 22.5t14.5 94.5v131q0 105 -25.5 146t-90.5 41q-59 0 -90 -59q-27 -51 -27 -119z" />
    <glyph glyph-name="n" unicode="n" horiz-adv-x="727" 
d="M257 301v-138q0 -81 13.5 -100t73.5 -23v-40h-315v40q59 4 74 23t15 93v125q0 115 -7 145q-6 26 -23 34t-63 8v34l193 38l13 -88h4q70 88 177 88q63 0 103 -17.5t71 -58.5q43 -58 43 -160v-141q0 -81 13.5 -100t71.5 -23v-40h-313v40q59 3 74 22.5t15 93.5v136
q0 102 -25.5 142.5t-90.5 40.5q-60 0 -95 -68q-22 -44 -22 -106z" />
    <glyph glyph-name="o" unicode="o" horiz-adv-x="660" 
d="M328 540q121 0 208 -77.5t87 -193.5q0 -120 -87 -199.5t-208 -79.5t-206 79.5t-85 199.5q0 117 85 194t206 77zM328 482q-61 0 -97.5 -59t-36.5 -155q0 -99 36.5 -158t97.5 -59q63 0 100.5 59.5t37.5 157.5q0 96 -38 155t-100 59z" />
    <glyph glyph-name="p" unicode="p" horiz-adv-x="697" 
d="M218 536v-71h4q66 75 172 75q116 0 190.5 -77.5t74.5 -197.5q0 -119 -74 -197t-189 -78q-97 0 -148 66h-4v-139q0 -79 21 -101t99 -24v-42h-345v42q54 2 70.5 24t16.5 94v372q0 108 -7 146q-5 23 -22.5 32t-59.5 9v39zM388 483q-69 0 -107 -51q-35 -48 -35 -132v-68
q0 -71 35 -121q38 -55 107 -55q120 0 120 207q0 220 -120 220z" />
    <glyph glyph-name="q" unicode="q" horiz-adv-x="674" 
d="M449 249v62q0 73 -38.5 122t-96.5 49q-59 0 -91.5 -55.5t-32.5 -157.5q0 -104 32 -159t92 -55q36 0 66 19.5t46 53.5q23 49 23 121zM451 -92v154h-5q-65 -72 -153 -72q-110 0 -182 77.5t-72 195.5q0 121 73 199t186 78q100 0 171 -68l76 58h44v-615q0 -83 15 -103t82 -22
v-40h-358v40q73 1 98 25.5t25 92.5z" />
    <glyph glyph-name="r" unicode="r" horiz-adv-x="498" 
d="M258 203v-48q0 -77 18 -95.5t88 -19.5v-40h-334v40q61 4 75 22.5t14 94.5v122q0 124 -16 156.5t-77 32.5v35l200 37l16 -115h4q27 53 71 84t93 31q38 0 62 -19t24 -48q0 -33 -19 -54.5t-50 -21.5q-22 0 -48.5 20t-38.5 20q-19 0 -36 -25t-28 -67q-18 -65 -18 -142z" />
    <glyph glyph-name="s" unicode="s" horiz-adv-x="466" 
d="M107 35l-22 -35h-31v182h42q17 -71 49 -104.5t83 -33.5q37 0 57.5 15.5t20.5 42.5q0 54 -106 111q-76 41 -109 81.5t-33 91.5q0 67 46.5 111t116.5 44q66 0 115 -34l18 24h26v-151h-39q-23 57 -48 82t-59 25q-28 0 -44.5 -15t-16.5 -40q0 -28 25 -53t81 -55
q81 -44 116 -85.5t35 -95.5q0 -69 -50 -111t-132 -42q-91 0 -141 45z" />
    <glyph glyph-name="t" unicode="t" horiz-adv-x="382" 
d="M98 475h-73v45q117 34 161 131h51v-121h115v-55h-115v-307q0 -61 13.5 -87.5t45.5 -26.5q39 0 59 36l21 -29q-28 -71 -132 -71q-69 0 -107.5 32t-38.5 90v363z" />
    <glyph glyph-name="u" unicode="u" horiz-adv-x="709" 
d="M465 262v104q0 81 -13 99.5t-74 24.5v40h226v-303q0 -116 7 -147q5 -26 20.5 -33t64.5 -7v-39l-199 -12l-11 89h-4q-25 -41 -72.5 -64.5t-105.5 -23.5q-107 0 -163 76q-43 58 -43 165v135q0 46 -1.5 65.5t-11.5 34t-24 17.5t-48 7v40h224v-283q0 -100 25 -146t80 -46
q60 0 91 54q32 52 32 153z" />
    <glyph glyph-name="v" unicode="v" horiz-adv-x="624" 
d="M259 -10l-158 411q-22 56 -40 72.5t-54 16.5v40h299v-40q-47 0 -60 -7.5t-13 -25.5q0 -21 17 -64l95 -262h4l107 261q15 37 15 55q0 22 -15.5 32t-52.5 11v40h221v-40q-29 0 -48 -15t-39 -61l-187 -424h-91z" />
    <glyph glyph-name="w" unicode="w" horiz-adv-x="891" 
d="M448 345l-135 -355h-75l-137 411q-15 47 -36.5 67t-56.5 22v40h286v-40q-36 -1 -50 -10.5t-14 -32.5q0 -14 11 -54l63 -234h4l140 371h82l105 -371h5l80 207q18 46 18 76q0 48 -63 48v40h215v-40q-36 0 -54.5 -24t-60.5 -130l-138 -346h-79l-106 355h-4z" />
    <glyph glyph-name="x" unicode="x" horiz-adv-x="648" 
d="M353 336l53 68q23 29 29 39t6 21q0 26 -50 26v40h230v-40q-39 -2 -65.5 -16.5t-66.5 -61.5l-102 -118l158 -203q23 -29 44.5 -40t55.5 -11v-40h-318v40q29 0 40.5 5t11.5 19q0 18 -28 56l-58 80l-44 -53q-50 -60 -50 -76q0 -31 61 -31v-40h-251v40q76 0 109 39l139 163
l-167 212q-18 23 -32.5 29.5t-40.5 6.5v40h305v-40q-51 0 -51 -28q0 -10 11 -26z" />
    <glyph glyph-name="y" unicode="y" horiz-adv-x="646" 
d="M516 323l-229 -480q-21 -44 -64 -73.5t-87 -29.5q-33 0 -53 16t-20 43q0 50 74 56q89 7 115 56l27 52l-177 438q-23 58 -39 72.5t-55 16.5v40h303v-40q-39 0 -54.5 -8t-15.5 -27q0 -13 9 -40l102 -292h4l86 195q44 101 44 128q0 26 -14.5 35t-58.5 9v40h241v-40
q-39 0 -62.5 -28t-75.5 -139z" />
    <glyph glyph-name="z" unicode="z" horiz-adv-x="568" 
d="M532 170l-12 -170h-494v23l313 454h-92q-86 0 -113.5 -18.5t-39.5 -84.5h-39l12 156h451v-23l-308 -453h88q105 0 140.5 21t54.5 95h39z" />
    <glyph glyph-name="braceleft" unicode="{" horiz-adv-x="354" 
d="M237 198v-193q0 -54 19.5 -82t71.5 -41v-32q-125 0 -170 32t-45 122v191q0 52 -22 89t-72 41v35q56 11 75 39.5t19 89.5v170q0 98 42 134.5t168 36.5v-33q-47 -11 -66.5 -40t-19.5 -82v-174q0 -70 -24 -107t-99 -49v-5q72 -10 97.5 -43.5t25.5 -98.5z" />
    <glyph glyph-name="bar" unicode="|" horiz-adv-x="295" 
d="M94 820h107v-1070h-107v1070z" />
    <glyph glyph-name="braceright" unicode="}" horiz-adv-x="354" 
d="M117 5v193q0 65 25.5 98.5t97.5 43.5v5q-75 12 -99 49t-24 107v174q0 53 -19.5 82t-66.5 40v33q126 0 168 -36.5t42 -134.5v-170q0 -61 19 -89.5t75 -39.5v-35q-50 -4 -72 -41t-22 -89v-191q0 -90 -45 -122t-170 -32v32q52 13 71.5 41t19.5 82z" />
    <glyph glyph-name="asciitilde" unicode="~" horiz-adv-x="562" 
d="M119 249h-46q10 61 43 97.5t80 36.5q29 0 99 -23t100 -23q21 0 33 9.5t19 32.5h45q-11 -66 -43 -102t-80 -36q-30 0 -97.5 24t-104.5 24q-21 0 -30.5 -7.5t-17.5 -32.5z" />
    <glyph glyph-name="uni00A0" unicode="&#xa0;" horiz-adv-x="266" 
 />
    <glyph glyph-name="exclamdown" unicode="&#xa1;" horiz-adv-x="311" 
d="M126 563h60q0 -137 20 -265q3 -20 9.5 -55t9.5 -55t6 -49.5t3 -58.5q0 -90 -78 -90t-78 90q0 29 3 58.5t6 49.5t9.5 55t9.5 55q20 128 20 265zM231 705q0 -32 -22 -54t-54 -22q-31 0 -53.5 22.5t-22.5 53.5q0 32 22 53.5t54 21.5t54 -21.5t22 -53.5z" />
    <glyph glyph-name="cent" unicode="&#xa2;" horiz-adv-x="579" 
d="M285 683h64v-143q91 -3 141.5 -39.5t50.5 -81.5q0 -24 -15.5 -42t-45.5 -18q-43 0 -75 52q-29 53 -56 65v-414q87 1 158 59l26 -38q-63 -73 -184 -89v-141h-64v137q-108 5 -174.5 79t-66.5 192q0 114 65.5 188t175.5 88v146zM198 276q0 -165 87 -203v406
q-87 -25 -87 -203z" />
    <glyph glyph-name="sterling" unicode="&#xa3;" horiz-adv-x="708" 
d="M242 77q-60 36 -91 36q-38 0 -38 -32t45 -32q48 0 84 28zM307 534l37 -103h213v-61h-199q14 -55 14 -99q0 -91 -40 -145q83 -17 167 -17q100 0 155 49l11 -4q0 -164 -158 -164q-75 0 -214 59q-20 -25 -64 -42.5t-88 -17.5q-49 0 -77.5 22.5t-28.5 60.5q0 43 32.5 70.5
t82.5 27.5q54 0 113 -27q4 18 4 56q0 65 -58 171h-131v61h111q-24 75 -24 133q0 99 69.5 157.5t187.5 58.5q92 0 151.5 -35t59.5 -90q0 -51 -54 -51q-25 0 -40 12t-23 29.5t-17.5 35t-30.5 29.5t-55 12q-54 0 -87 -27.5t-33 -73.5q0 -45 14 -87z" />
    <glyph glyph-name="currency" unicode="&#xa4;" horiz-adv-x="610" 
d="M52 57l74 71q-49 58 -49 135q0 78 49 136l-75 72l37 35l75 -72q61 47 142 47q79 0 142 -47l75 72l37 -35l-76 -72q51 -59 51 -136t-49 -135l74 -71l-37 -35l-74 71q-61 -47 -143 -47q-83 0 -143 48l-74 -71zM140 263q0 -65 48.5 -111t116.5 -46t117 46t49 111t-49 111.5
t-117 46.5t-116.5 -46.5t-48.5 -111.5z" />
    <glyph glyph-name="yen" unicode="&#xa5;" horiz-adv-x="851" 
d="M661 235v-65h-164q1 -82 20 -106t88 -26v-38h-360v38q68 2 86 26t19 106h-165v65h165v64h-165v65h119l-161 282q-30 53 -51 68.5t-64 15.5v40h343v-40q-45 0 -61 -7t-16 -25q0 -20 21 -60l143 -275h4l118 200q39 66 50.5 91.5t11.5 43.5q0 17 -14.5 24.5t-53.5 7.5v40
h251v-40q-45 0 -76 -29t-92 -133l-119 -204h123v-65h-164v-64h164z" />
    <glyph glyph-name="brokenbar" unicode="&#xa6;" horiz-adv-x="304" 
d="M98 750h108v-385h-108v385zM98 205h108v-385h-108v385z" />
    <glyph glyph-name="section" unicode="&#xa7;" horiz-adv-x="560" 
d="M208 307l170 -96q47 30 47 68q-1 29 -24.5 58.5t-60.5 49.5l-140 79q-57 -32 -57 -74q0 -49 65 -85zM281 107l-108 61q-63 36 -93 78.5t-30 99.5q0 106 99 153q-37 27 -58.5 70.5t-21.5 90.5q0 77 56 123.5t150 46.5q88 0 144.5 -40.5t56.5 -104.5q0 -35 -17.5 -55
t-48.5 -20q-29 0 -47.5 17t-18.5 44q0 20 15 37t15 26q0 20 -28 33t-71 13q-108 0 -108 -89q0 -26 22 -49.5t98 -69.5l105 -64q66 -40 93.5 -82.5t27.5 -97.5q0 -92 -86 -151q76 -67 76 -161q0 -84 -64 -137t-167 -53q-98 0 -161.5 49t-63.5 125q0 40 18 64t49 24
q29 0 50 -19.5t21 -46.5q0 -24 -23 -50.5t-23 -35.5q0 -22 41.5 -38.5t95.5 -16.5q64 0 99 26.5t35 73.5q0 32 -24.5 56.5t-104.5 69.5z" />
    <glyph glyph-name="dieresis" unicode="&#xa8;" horiz-adv-x="365" 
d="M20 740q0 28 18.5 46.5t45.5 18.5q28 0 46.5 -18.5t18.5 -46.5q0 -27 -18.5 -45.5t-46.5 -18.5q-27 0 -45.5 18.5t-18.5 45.5zM216 740q0 28 18.5 46.5t45.5 18.5q28 0 46.5 -18.5t18.5 -46.5q0 -27 -18.5 -45.5t-46.5 -18.5q-27 0 -45.5 18.5t-18.5 45.5z" />
    <glyph glyph-name="copyright" unicode="&#xa9;" horiz-adv-x="902" 
d="M857 386q0 -165 -119 -280.5t-289 -115.5q-168 0 -286 116t-118 279t117.5 279t285.5 116q170 0 289.5 -115t119.5 -279zM797 386q0 140 -102.5 238t-246.5 98q-143 0 -243 -99t-100 -238t100.5 -238t243.5 -99t245.5 99.5t102.5 238.5zM608 305h35q-16 -69 -61.5 -108.5
t-120.5 -39.5q-112 0 -178 59.5t-66 158.5q0 104 69.5 169t180.5 65q64 0 133 -51l10 45h22l5 -131h-27q-13 40 -49.5 63.5t-87.5 23.5q-67 0 -103.5 -47.5t-36.5 -132.5q0 -83 36.5 -127t105.5 -44q104 0 133 97z" />
    <glyph glyph-name="ordfeminine" unicode="&#xaa;" horiz-adv-x="381" 
d="M211 620v29q-73 -32 -73 -69q0 -12 9 -20t23 -8q17 0 29 20t12 48zM148 656l63 31v14q0 45 -42 45q-23 0 -32 -6t-16 -25q-11 -29 -32 -29q-32 0 -32 28q0 27 32.5 46.5t88.5 19.5q59 0 83 -17.5t24 -59.5v-102q0 -58 23 -58q17 0 25 13l8 -22q-19 -27 -68 -27
q-57 0 -57 38h-4q-26 -38 -78 -38q-37 0 -59 16.5t-22 42.5q0 27 20.5 47t74.5 43z" />
    <glyph glyph-name="guillemotleft" unicode="&#xab;" horiz-adv-x="553" 
d="M238 77l-192 185l196 185l32 -23l-92 -162l90 -161zM458 77l-192 185l196 185l32 -23l-92 -162l90 -161z" />
    <glyph glyph-name="logicalnot" unicode="&#xac;" horiz-adv-x="637" 
d="M489 110v193h-418v70h490v-263h-72z" />
    <glyph glyph-name="uni00AD" unicode="&#xad;" horiz-adv-x="467" 
d="M401 242h-335v95h335v-95z" />
    <glyph glyph-name="registered" unicode="&#xae;" horiz-adv-x="902" 
d="M857 386q0 -165 -119 -280.5t-289 -115.5q-168 0 -286 116t-118 279t117.5 279t285.5 116q170 0 289.5 -115t119.5 -279zM797 386q0 140 -102.5 238t-246.5 98q-143 0 -243 -99t-100 -238t100.5 -238t243.5 -99t245.5 99.5t102.5 238.5zM616 507q0 -97 -123 -114
l130 -145q27 -31 71 -38v-27h-124l-145 171q-25 29 -48 29v-107q0 -42 12.5 -54t58.5 -12v-27h-208v27q31 1 40 13t9 50v249q0 39 -7.5 50.5t-35.5 12.5v30h184q88 0 137 -28.5t49 -79.5zM377 571v-155h37q51 0 75.5 21t24.5 67q0 41 -19.5 58.5t-64.5 17.5h-43
q-10 0 -10 -9z" />
    <glyph glyph-name="macron" unicode="&#xaf;" horiz-adv-x="326" 
d="M305 692h-284v65h284v-65z" />
    <glyph glyph-name="degree" unicode="&#xb0;" horiz-adv-x="334" 
d="M41 660q0 49 37 84.5t89 35.5t89 -35.5t37 -84.5t-37 -84.5t-89 -35.5t-89 35.5t-37 84.5zM87 660q0 -31 24 -53t56 -22t55 22t23 53t-23 52.5t-55 21.5t-56 -21.5t-24 -52.5z" />
    <glyph glyph-name="plusminus" unicode="&#xb1;" horiz-adv-x="628" 
d="M348 227h-68v209h-212v64h212v209h68v-209h212v-64h-212v-209zM560 152v-64h-492v64h492z" />
    <glyph glyph-name="twosuperior" unicode="&#xb2;" horiz-adv-x="284" 
d="M105 516v-4h79q18 0 28 8.5t17 32.5h26l-15 -85h-211v18q87 77 117.5 121t30.5 87q0 25 -13 39t-35 14q-17 0 -29 -12t-12 -29q0 -19 10 -31t26 -12q-2 -11 -12 -18.5t-26 -7.5q-25 0 -41.5 17t-16.5 43q0 36 31 59.5t78 23.5q49 0 80 -24t31 -62q0 -77 -143 -178z" />
    <glyph glyph-name="threesuperior" unicode="&#xb3;" horiz-adv-x="283" 
d="M180 556q0 28 -11.5 44t-31.5 16q-18 -7 -29 -7q-23 0 -23 21q0 19 22 19q10 0 27 -5q17 0 28 17.5t11 43.5q0 43 -38 43t-38 -29q0 -23 24 -23q-1 -8 -11.5 -14t-23.5 -6q-20 0 -33.5 14t-13.5 33q0 26 26 41.5t70 15.5q50 0 79.5 -19.5t29.5 -52.5q0 -25 -18 -45.5
t-46 -26.5v-4q34 -8 54 -30t20 -51q0 -38 -34 -62.5t-86 -24.5q-46 0 -76.5 20t-30.5 51q0 22 15 36.5t37 14.5q32 0 39 -23q-11 0 -19 -9.5t-8 -22.5q0 -15 11 -24t30 -9q48 0 48 58z" />
    <glyph glyph-name="acute" unicode="&#xb4;" horiz-adv-x="299" 
d="M75 651h-59l127 119q46 43 85 43q25 0 40 -12t15 -33q0 -16 -17 -29t-52 -28z" />
    <glyph glyph-name="mu" unicode="&#xb5;" horiz-adv-x="744" 
d="M202 92l-4 -1q21 -69 42 -158t21 -122t-18.5 -52t-50.5 -19q-33 0 -54 23.5t-21 58.5v543q0 82 -13 101t-74 24v40h224v-273q0 -106 24.5 -154t78.5 -48q37 0 61 16.5t42 56.5q23 58 23 144v93q0 81 -13 100t-74 25v40h225v-307q0 -109 7 -143q5 -25 20.5 -32.5
t64.5 -7.5v-39l-199 -12l-11 89h-4q-21 -47 -56.5 -67.5t-89.5 -20.5q-100 0 -151 102z" />
    <glyph glyph-name="paragraph" unicode="&#xb6;" horiz-adv-x="659" 
d="M512 568v-500q0 -121 14 -154q11 -36 86 -36v-43h-196v881h-48v-881h-222v43q55 0 81 9t34 30q10 28 10 151v285q-5 0 -16 -0.5t-20 -0.5q-95 0 -148.5 54.5t-53.5 152.5q0 102 74.5 156.5t214.5 54.5h290v-43q-44 0 -62 -7.5t-26 -28.5q-12 -31 -12 -123z" />
    <glyph glyph-name="periodcentered" unicode="&#xb7;" horiz-adv-x="281" 
d="M65 274q0 32 22 54.5t53 22.5q33 0 55 -22.5t22 -54.5q0 -31 -22 -52.5t-55 -21.5q-31 0 -53 21.5t-22 52.5z" />
    <glyph glyph-name="cedilla" unicode="&#xb8;" horiz-adv-x="243" 
d="M166 12l-32 -74q62 0 98.5 -25t36.5 -68q0 -46 -40 -75.5t-102 -29.5q-57 0 -94 24.5t-37 61.5q0 41 36 41q14 0 23 -8t18 -29q10 -24 19.5 -33t26.5 -9q20 0 32 12.5t12 32.5q0 54 -76 54q-21 0 -39 -2l-2 3l55 124h65z" />
    <glyph glyph-name="onesuperior" unicode="&#xb9;" horiz-adv-x="249" 
d="M157 780v-237q0 -31 8 -40t36 -10v-25h-148v25q28 1 36 9.5t8 37.5v127q0 53 -2 58q-2 13 -44 13v25q49 1 106 17z" />
    <glyph glyph-name="ordmasculine" unicode="&#xba;" horiz-adv-x="383" 
d="M190 780q63 0 107.5 -38.5t44.5 -96.5q0 -59 -44.5 -98.5t-107.5 -39.5q-62 0 -105.5 39.5t-43.5 98.5q0 58 43.5 96.5t105.5 38.5zM190 744q-27 0 -44.5 -28t-17.5 -71q0 -46 17 -73.5t45 -27.5q29 0 46.5 27.5t17.5 73.5q0 44 -18 71.5t-46 27.5z" />
    <glyph glyph-name="guillemotright" unicode="&#xbb;" horiz-adv-x="553" 
d="M507 262l-192 -185l-34 24l90 161l-92 162l32 23zM287 262l-192 -185l-34 24l90 161l-92 162l32 23z" />
    <glyph glyph-name="onequarter" unicode="&#xbc;" horiz-adv-x="712" 
d="M679 770l-571 -770h-80l580 770h71zM242 780v-237q0 -31 8 -40t36 -10v-25h-148v25q28 1 36 9.5t8 37.5v127q0 53 -2 58q-2 13 -44 13v25q49 1 106 17zM369 72v30l155 210h31v-211q26 1 32.5 7t6.5 29h19v-94h-19q0 19 -7 24t-32 6v-8q0 -28 6 -36t27 -9v-20h-144v20
q28 1 36 8.5t8 33.5v10h-119zM488 102v111h-4l-80 -111h84z" />
    <glyph glyph-name="onehalf" unicode="&#xbd;" horiz-adv-x="716" 
d="M679 770l-571 -770h-80l580 770h71zM242 780v-237q0 -31 8 -40t36 -10v-25h-148v25q28 1 36 9.5t8 37.5v127q0 53 -2 58q-2 13 -44 13v25q49 1 106 17zM469 48v-4h79q18 0 28 8.5t17 32.5h26l-15 -85h-211v18q87 77 117.5 121t30.5 87q0 25 -13 39t-35 14q-17 0 -29 -12
t-12 -29q0 -19 10 -31t26 -12q-2 -11 -12 -18.5t-26 -7.5q-25 0 -41.5 17t-16.5 43q0 36 31 59.5t78 23.5q49 0 80 -24t31 -62q0 -77 -143 -178z" />
    <glyph glyph-name="threequarters" unicode="&#xbe;" horiz-adv-x="714" 
d="M685 770l-571 -770h-80l580 770h71zM375 72v30l155 210h31v-211q26 1 32.5 7t6.5 29h19v-94h-19q0 19 -7 24t-32 6v-8q0 -28 6 -36t27 -9v-20h-144v20q28 1 36 8.5t8 33.5v10h-119zM494 102v111h-4l-80 -111h84zM247 556q0 28 -11.5 44t-31.5 16q-18 -7 -29 -7
q-23 0 -23 21q0 19 22 19q10 0 27 -5q17 0 28 17.5t11 43.5q0 43 -38 43t-38 -29q0 -23 24 -23q-1 -8 -11.5 -14t-23.5 -6q-19 0 -33 14t-14 33q0 26 26 41.5t70 15.5q50 0 79.5 -19.5t29.5 -52.5q0 -25 -18 -45.5t-46 -26.5v-4q34 -8 54 -30t20 -51q0 -38 -34 -62.5
t-86 -24.5q-46 0 -76.5 20t-30.5 51q0 22 15 36.5t37 14.5q32 0 39 -23q-11 0 -19 -9.5t-8 -22.5q0 -15 11 -24t30 -9q48 0 48 58z" />
    <glyph glyph-name="questiondown" unicode="&#xbf;" horiz-adv-x="401" 
d="M216 531h68v-237h-35q-137 0 -137 -89q0 -44 27 -75t64 -31q13 0 40.5 5.5t38.5 5.5q29 0 47.5 -16.5t18.5 -42.5q0 -61 -75 -61q-89 0 -158.5 76t-69.5 174q0 80 45 125t126 45v121zM330 705q0 -32 -22 -54t-54 -22t-54 22.5t-22 53.5q0 32 22 53.5t54 21.5t54 -21.5
t22 -53.5z" />
    <glyph glyph-name="Agrave" unicode="&#xc0;" horiz-adv-x="809" 
d="M524 173l-23 60h-283q-47 -106 -47 -147q0 -28 20.5 -37t69.5 -9v-40h-274v40q49 5 73.5 22t41.5 59l263 659h74l239 -584q29 -71 48 -100t41 -39.5t71 -15.5v-41h-378v41q51 2 70.5 10.5t19.5 31.5q0 22 -26 90zM360 596l-119 -303h238l-115 303h-4zM442 830h-73
l-116 28q-50 12 -69 27t-19 38q0 37 57 37q51 0 94 -33z" />
    <glyph glyph-name="Aacute" unicode="&#xc1;" horiz-adv-x="809" 
d="M524 173l-23 60h-283q-47 -106 -47 -147q0 -28 20.5 -37t69.5 -9v-40h-274v40q49 5 73.5 22t41.5 59l263 659h74l239 -584q29 -71 48 -100t41 -39.5t71 -15.5v-41h-378v41q51 2 70.5 10.5t19.5 31.5q0 22 -26 90zM360 596l-119 -303h238l-115 303h-4zM437 830h-73l126 97
q43 33 94 33q57 0 57 -37q0 -23 -19 -38t-69 -27z" />
    <glyph glyph-name="Acircumflex" unicode="&#xc2;" horiz-adv-x="809" 
d="M524 173l-23 60h-283q-47 -106 -47 -147q0 -28 20.5 -37t69.5 -9v-40h-274v40q49 5 73.5 22t41.5 59l263 659h74l239 -584q29 -71 48 -100t41 -39.5t71 -15.5v-41h-378v41q51 2 70.5 10.5t19.5 31.5q0 22 -26 90zM360 596l-119 -303h238l-115 303h-4zM340 960h116
l124 -130h-67l-115 49l-115 -49h-67z" />
    <glyph glyph-name="Atilde" unicode="&#xc3;" horiz-adv-x="809" 
d="M524 173l-23 60h-283q-47 -106 -47 -147q0 -28 20.5 -37t69.5 -9v-40h-274v40q49 5 73.5 22t41.5 59l263 659h74l239 -584q29 -71 48 -100t41 -39.5t71 -15.5v-41h-378v41q51 2 70.5 10.5t19.5 31.5q0 22 -26 90zM360 596l-119 -303h238l-115 303h-4zM271 828h-46
q10 59 43 96.5t76 37.5q24 0 87 -24q56 -22 79 -22q19 0 30.5 9.5t18.5 32.5h45q-8 -58 -44 -102q-30 -36 -73 -36q-32 0 -85 25q-49 23 -87 23q-17 0 -27 -8.5t-17 -31.5z" />
    <glyph glyph-name="Adieresis" unicode="&#xc4;" horiz-adv-x="809" 
d="M524 173l-23 60h-283q-47 -106 -47 -147q0 -28 20.5 -37t69.5 -9v-40h-274v40q49 5 73.5 22t41.5 59l263 659h74l239 -584q29 -71 48 -100t41 -39.5t71 -15.5v-41h-378v41q51 2 70.5 10.5t19.5 31.5q0 22 -26 90zM360 596l-119 -303h238l-115 303h-4zM235 903q0 25 17 41
t43 16q27 0 44.5 -16t17.5 -41q0 -26 -17.5 -42.5t-44.5 -16.5q-26 0 -43 16.5t-17 42.5zM452 903q0 25 17.5 41t44.5 16q25 0 42.5 -16.5t17.5 -40.5q0 -26 -17.5 -42.5t-42.5 -16.5q-27 0 -44.5 16.5t-17.5 42.5z" />
    <glyph glyph-name="Aring" unicode="&#xc5;" horiz-adv-x="809" 
d="M524 173l-23 60h-283q-47 -106 -47 -147q0 -28 20.5 -37t69.5 -9v-40h-274v40q49 5 73.5 22t41.5 59l263 659h74l239 -584q29 -71 48 -100t41 -39.5t71 -15.5v-41h-378v41q51 2 70.5 10.5t19.5 31.5q0 22 -26 90zM360 596l-119 -303h238l-115 303h-4zM337 895
q0 28 19.5 46.5t48.5 18.5t48.5 -18.5t19.5 -46.5t-19.5 -46.5t-48.5 -18.5t-48.5 18.5t-19.5 46.5zM379 895q0 -10 7.5 -17t18.5 -7t18 7t7 17t-7 16.5t-18 6.5t-18.5 -6.5t-7.5 -16.5z" />
    <glyph glyph-name="AE" unicode="&#xc6;" horiz-adv-x="1136" 
d="M406 41q67 2 86 23t19 91v119h-248q-64 -114 -77 -143t-13 -48q0 -9 2 -15.5t7.5 -10.5l9.5 -7t13 -4.5t13.5 -2t16 -1.5t15.5 -1v-41h-272v41q48 5 74 22t51 59q3 5 303 552q8 16 8 25q0 13 -19 18t-64 5v48h723v-196h-42q-12 85 -54 114t-148 29h-134q-18 0 -18 -17
v-274q90 0 129.5 9t56 33t22.5 80h37v-293h-37q-9 54 -24 77t-55 33t-129 11v-209q0 -65 37.5 -89.5t137.5 -24.5q109 0 156 36.5t67 137.5h44l-15 -227h-679v41zM297 334h214v387z" />
    <glyph glyph-name="Ccedilla" unicode="&#xc7;" horiz-adv-x="823" 
d="M688 708l19 62h49l-20 -253h-40q-21 92 -82 145t-146 53q-117 0 -182 -89.5t-65 -247.5q0 -155 64.5 -238.5t186.5 -83.5q203 0 259 215h44v-271h-47l-14 79q-104 -84 -250 -89l-22 -52q62 0 98.5 -25t36.5 -68q0 -46 -40 -75.5t-102 -29.5q-57 0 -94 24.5t-37 61.5
q0 41 36 41q14 0 23 -8t18 -29q10 -24 19.5 -33t26.5 -9q20 0 32 12.5t12 32.5q0 54 -76 54q-21 0 -39 -2l-2 3l46 104q-163 14 -258 115.5t-95 264.5q0 181 114.5 294.5t297.5 113.5q113 0 229 -72z" />
    <glyph glyph-name="Egrave" unicode="&#xc8;" horiz-adv-x="764" 
d="M287 680v-254q129 0 164 20.5t44 101.5h37v-293h-37q-5 35 -12.5 54.5t-19.5 34t-36.5 20.5t-55 8.5t-84.5 2.5v-206q0 -65 37 -89.5t134 -24.5q114 0 162 36t69 138h40l-16 -229h-678v40q67 2 86 23t19 91v462q0 70 -17 90.5t-77 23.5v40h632l7 -196h-43
q-13 84 -55 113.5t-149 29.5h-113q-25 0 -31.5 -6.5t-6.5 -30.5zM495 830h-73l-116 28q-50 12 -69 27t-19 38q0 37 57 37q51 0 94 -33z" />
    <glyph glyph-name="Eacute" unicode="&#xc9;" horiz-adv-x="764" 
d="M287 680v-254q129 0 164 20.5t44 101.5h37v-293h-37q-5 35 -12.5 54.5t-19.5 34t-36.5 20.5t-55 8.5t-84.5 2.5v-206q0 -65 37 -89.5t134 -24.5q114 0 162 36t69 138h40l-16 -229h-678v40q67 2 86 23t19 91v462q0 70 -17 90.5t-77 23.5v40h632l7 -196h-43
q-13 84 -55 113.5t-149 29.5h-113q-25 0 -31.5 -6.5t-6.5 -30.5zM391 830h-73l126 97q43 33 94 33q57 0 57 -37q0 -23 -19 -38t-69 -27z" />
    <glyph glyph-name="Ecircumflex" unicode="&#xca;" horiz-adv-x="764" 
d="M287 680v-254q129 0 164 20.5t44 101.5h37v-293h-37q-5 35 -12.5 54.5t-19.5 34t-36.5 20.5t-55 8.5t-84.5 2.5v-206q0 -65 37 -89.5t134 -24.5q114 0 162 36t69 138h40l-16 -229h-678v40q67 2 86 23t19 91v462q0 70 -17 90.5t-77 23.5v40h632l7 -196h-43
q-13 84 -55 113.5t-149 29.5h-113q-25 0 -31.5 -6.5t-6.5 -30.5zM344 960h116l124 -130h-67l-115 49l-115 -49h-67z" />
    <glyph glyph-name="Edieresis" unicode="&#xcb;" horiz-adv-x="764" 
d="M287 680v-254q129 0 164 20.5t44 101.5h37v-293h-37q-5 35 -12.5 54.5t-19.5 34t-36.5 20.5t-55 8.5t-84.5 2.5v-206q0 -65 37 -89.5t134 -24.5q114 0 162 36t69 138h40l-16 -229h-678v40q67 2 86 23t19 91v462q0 70 -17 90.5t-77 23.5v40h632l7 -196h-43
q-13 84 -55 113.5t-149 29.5h-113q-25 0 -31.5 -6.5t-6.5 -30.5zM219 903q0 25 17 41t43 16q27 0 44.5 -16t17.5 -41q0 -26 -17.5 -42.5t-44.5 -16.5q-26 0 -43 16.5t-17 42.5zM436 903q0 25 17.5 41t44.5 16q25 0 42.5 -16.5t17.5 -40.5q0 -26 -17.5 -42.5t-42.5 -16.5
q-27 0 -44.5 16.5t-17.5 42.5z" />
    <glyph glyph-name="Igrave" unicode="&#xcc;" horiz-adv-x="429" 
d="M393 40v-40h-357v40q68 2 86.5 27t18.5 117v402q0 86 -17.5 113.5t-77.5 30.5v40h337v-40q-60 -3 -77.5 -30.5t-17.5 -113.5v-402q0 -92 18.5 -117t86.5 -27zM346 830h-73l-116 28q-50 12 -69 27t-19 38q0 37 57 37q51 0 94 -33z" />
    <glyph glyph-name="Iacute" unicode="&#xcd;" horiz-adv-x="429" 
d="M393 40v-40h-357v40q68 2 86.5 27t18.5 117v402q0 86 -17.5 113.5t-77.5 30.5v40h337v-40q-60 -3 -77.5 -30.5t-17.5 -113.5v-402q0 -92 18.5 -117t86.5 -27zM194 830h-73l126 97q43 33 94 33q57 0 57 -37q0 -23 -19 -38t-69 -27z" />
    <glyph glyph-name="Icircumflex" unicode="&#xce;" horiz-adv-x="429" 
d="M393 40v-40h-357v40q68 2 86.5 27t18.5 117v402q0 86 -17.5 113.5t-77.5 30.5v40h337v-40q-60 -3 -77.5 -30.5t-17.5 -113.5v-402q0 -92 18.5 -117t86.5 -27zM156 960h116l124 -130h-67l-115 49l-115 -49h-67z" />
    <glyph glyph-name="Idieresis" unicode="&#xcf;" horiz-adv-x="429" 
d="M393 40v-40h-357v40q68 2 86.5 27t18.5 117v402q0 86 -17.5 113.5t-77.5 30.5v40h337v-40q-60 -3 -77.5 -30.5t-17.5 -113.5v-402q0 -92 18.5 -117t86.5 -27zM45 903q0 25 17 41t43 16q27 0 44.5 -16t17.5 -41q0 -26 -17.5 -42.5t-44.5 -16.5q-26 0 -43 16.5t-17 42.5z
M262 903q0 25 17.5 41t44.5 16q25 0 42.5 -16.5t17.5 -40.5q0 -26 -17.5 -42.5t-42.5 -16.5q-27 0 -44.5 16.5t-17.5 42.5z" />
    <glyph glyph-name="Eth" unicode="&#xd0;" horiz-adv-x="920" 
d="M453 0h-417v40q67 2 86 22.5t19 91.5v222h-87v60h87v180q0 70 -16 90.5t-73 23.5v40h380q192 0 317 -112.5t125 -285.5q0 -164 -117.5 -268t-303.5 -104zM430 709h-125q-17 0 -17 -17v-256h133v-60h-133v-201q0 -114 147 -114q131 0 201.5 79.5t70.5 229.5q0 159 -74 249
t-203 90z" />
    <glyph glyph-name="Ntilde" unicode="&#xd1;" horiz-adv-x="940" 
d="M804 -10h-134l-443 631h-4v-430q0 -98 18 -123.5t86 -27.5v-40h-297v40q74 2 94.5 27t20.5 117v402q0 86 -19.5 113.5t-85.5 30.5v40h279l403 -578h4v387q0 98 -18 123.5t-86 27.5v40h297v-40q-74 -2 -94.5 -27t-20.5 -117v-596zM353 828h-46q10 59 43 96.5t76 37.5
q24 0 87 -24q56 -22 79 -22q19 0 30.5 9.5t18.5 32.5h45q-8 -58 -44 -102q-30 -36 -73 -36q-32 0 -85 25q-49 23 -87 23q-17 0 -27 -8.5t-17 -31.5z" />
    <glyph glyph-name="Ograve" unicode="&#xd2;" horiz-adv-x="944" 
d="M472 780q180 0 303.5 -116t123.5 -285q0 -163 -124 -276t-303 -113t-303 113t-124 276q0 169 123.5 285t303.5 116zM472 55q116 0 184.5 86.5t68.5 234.5q0 156 -68 247.5t-185 91.5t-185 -91.5t-68 -247.5q0 -148 68 -234.5t185 -86.5zM601 830h-73l-116 28
q-50 12 -69 27t-19 38q0 37 57 37q51 0 94 -33z" />
    <glyph glyph-name="Oacute" unicode="&#xd3;" horiz-adv-x="944" 
d="M472 780q180 0 303.5 -116t123.5 -285q0 -163 -124 -276t-303 -113t-303 113t-124 276q0 169 123.5 285t303.5 116zM472 55q116 0 184.5 86.5t68.5 234.5q0 156 -68 247.5t-185 91.5t-185 -91.5t-68 -247.5q0 -148 68 -234.5t185 -86.5zM419 830h-73l126 97q43 33 94 33
q57 0 57 -37q0 -23 -19 -38t-69 -27z" />
    <glyph glyph-name="Ocircumflex" unicode="&#xd4;" horiz-adv-x="944" 
d="M472 780q180 0 303.5 -116t123.5 -285q0 -163 -124 -276t-303 -113t-303 113t-124 276q0 169 123.5 285t303.5 116zM472 55q116 0 184.5 86.5t68.5 234.5q0 156 -68 247.5t-185 91.5t-185 -91.5t-68 -247.5q0 -148 68 -234.5t185 -86.5zM413 960h116l124 -130h-67
l-115 49l-115 -49h-67z" />
    <glyph glyph-name="Otilde" unicode="&#xd5;" horiz-adv-x="944" 
d="M472 780q180 0 303.5 -116t123.5 -285q0 -163 -124 -276t-303 -113t-303 113t-124 276q0 169 123.5 285t303.5 116zM472 55q116 0 184.5 86.5t68.5 234.5q0 156 -68 247.5t-185 91.5t-185 -91.5t-68 -247.5q0 -148 68 -234.5t185 -86.5zM326 828h-46q10 59 43 96.5
t76 37.5q24 0 87 -24q56 -22 79 -22q19 0 30.5 9.5t18.5 32.5h45q-8 -58 -44 -102q-30 -36 -73 -36q-32 0 -85 25q-49 23 -87 23q-17 0 -26.5 -8.5t-17.5 -31.5z" />
    <glyph glyph-name="Odieresis" unicode="&#xd6;" horiz-adv-x="944" 
d="M472 780q180 0 303.5 -116t123.5 -285q0 -163 -124 -276t-303 -113t-303 113t-124 276q0 169 123.5 285t303.5 116zM472 55q116 0 184.5 86.5t68.5 234.5q0 156 -68 247.5t-185 91.5t-185 -91.5t-68 -247.5q0 -148 68 -234.5t185 -86.5zM297 903q0 25 17 41t43 16
q27 0 44.5 -16t17.5 -41q0 -26 -17.5 -42.5t-44.5 -16.5q-26 0 -43 16.5t-17 42.5zM514 903q0 25 17.5 41t44.5 16q25 0 42.5 -16.5t17.5 -40.5q0 -26 -17.5 -42.5t-42.5 -16.5q-27 0 -44.5 16.5t-17.5 42.5z" />
    <glyph glyph-name="multiply" unicode="&#xd7;" horiz-adv-x="524" 
d="M471 169l-48 -48l-162 162l-164 -164l-46 46l164 164l-162 162l48 48l162 -162l164 164l46 -46l-164 -164z" />
    <glyph glyph-name="Oslash" unicode="&#xd8;" horiz-adv-x="943" 
d="M472 780q128 0 235 -64l95 114h89l-128 -154q64 -56 100 -132.5t36 -164.5q0 -163 -124 -276t-303 -113q-124 0 -229 59l-108 -130h-88l140 169q-67 54 -104.5 129.5t-37.5 161.5q0 169 123.5 285t303.5 116zM219 376q0 -117 43 -197l382 460q-67 76 -172 76
q-117 0 -185 -91.5t-68 -247.5zM472 55q116 0 184.5 86.5t68.5 234.5q0 118 -42 204l-379 -458q65 -67 168 -67z" />
    <glyph glyph-name="Ugrave" unicode="&#xd9;" horiz-adv-x="880" 
d="M757 522v-212q0 -170 -76 -245t-248 -75q-161 0 -235.5 67.5t-74.5 215.5v274q0 132 -18 159q-16 24 -78 24v40h359v-40q-75 0 -93 -22q-13 -16 -18 -49.5t-5 -111.5v-262q0 -113 48.5 -168t149.5 -55q206 0 206 229v231q0 84 -6.5 123t-22.5 58q-26 27 -97 27v40h324
v-40q-67 0 -88 -25q-27 -34 -27 -183zM599 830h-73l-116 28q-50 12 -69 27t-19 38q0 37 57 37q51 0 94 -33z" />
    <glyph glyph-name="Uacute" unicode="&#xda;" horiz-adv-x="880" 
d="M757 522v-212q0 -170 -76 -245t-248 -75q-161 0 -235.5 67.5t-74.5 215.5v274q0 132 -18 159q-16 24 -78 24v40h359v-40q-75 0 -93 -22q-13 -16 -18 -49.5t-5 -111.5v-262q0 -113 48.5 -168t149.5 -55q206 0 206 229v231q0 84 -6.5 123t-22.5 58q-26 27 -97 27v40h324
v-40q-67 0 -88 -25q-27 -34 -27 -183zM407 830h-73l126 97q43 33 94 33q57 0 57 -37q0 -23 -19 -38t-69 -27z" />
    <glyph glyph-name="Ucircumflex" unicode="&#xdb;" horiz-adv-x="880" 
d="M757 522v-212q0 -170 -76 -245t-248 -75q-161 0 -235.5 67.5t-74.5 215.5v274q0 132 -18 159q-16 24 -78 24v40h359v-40q-75 0 -93 -22q-13 -16 -18 -49.5t-5 -111.5v-262q0 -113 48.5 -168t149.5 -55q206 0 206 229v231q0 84 -6.5 123t-22.5 58q-26 27 -97 27v40h324
v-40q-67 0 -88 -25q-27 -34 -27 -183zM409 960h116l124 -130h-67l-115 49l-115 -49h-67z" />
    <glyph glyph-name="Udieresis" unicode="&#xdc;" horiz-adv-x="880" 
d="M757 522v-212q0 -170 -76 -245t-248 -75q-161 0 -235.5 67.5t-74.5 215.5v274q0 132 -18 159q-16 24 -78 24v40h359v-40q-75 0 -93 -22q-13 -16 -18 -49.5t-5 -111.5v-262q0 -113 48.5 -168t149.5 -55q206 0 206 229v231q0 84 -6.5 123t-22.5 58q-26 27 -97 27v40h324
v-40q-67 0 -88 -25q-27 -34 -27 -183zM301 903q0 25 17 41t43 16q27 0 44.5 -16t17.5 -41q0 -26 -17.5 -42.5t-44.5 -16.5q-26 0 -43 16.5t-17 42.5zM518 903q0 25 17.5 41t44.5 16q25 0 42.5 -16.5t17.5 -40.5q0 -26 -17.5 -42.5t-42.5 -16.5q-27 0 -44.5 16.5t-17.5 42.5z
" />
    <glyph glyph-name="Yacute" unicode="&#xdd;" horiz-adv-x="760" 
d="M308 276l-207 368q-30 52 -53 69t-62 17v40h336v-40q-76 0 -76 -32q0 -15 25 -62l143 -273h4l126 210q59 99 59 127q0 17 -15.5 23.5t-57.5 6.5v40h251v-40q-44 0 -77.5 -35t-102.5 -152l-146 -250v-102q0 -98 19.5 -124.5t84.5 -26.5v-40h-356v40q64 0 84.5 26t20.5 118
v92zM325 830h-73l126 97q43 33 94 33q57 0 57 -37q0 -23 -19 -38t-69 -27z" />
    <glyph glyph-name="Thorn" unicode="&#xde;" horiz-adv-x="734" 
d="M294 618v-17h105q144 0 226 -57.5t82 -152.5q0 -113 -77 -169t-251 -56h-85v-19q0 -38 3 -55.5t17.5 -31t39.5 -16.5t75 -3v-41h-397v41q74 2 94.5 21.5t20.5 89.5v463q0 71 -21 91.5t-94 22.5v41h397v-38q-49 0 -75 -3.5t-40 -18.5t-17 -33.5t-3 -58.5zM294 527v-301h65
q92 0 136.5 39.5t44.5 125.5q0 74 -37 113.5t-104 39.5h-87q-18 0 -18 -17z" />
    <glyph glyph-name="germandbls" unicode="&#xdf;" horiz-adv-x="711" 
d="M358 830q115 0 185.5 -53.5t70.5 -140.5q0 -67 -39.5 -111t-112.5 -58v-5q89 0 150 -69t61 -170t-63.5 -167t-160.5 -66q-57 0 -92.5 24t-35.5 62q0 21 12.5 34t34.5 13q19 0 31.5 -12t17.5 -26.5t14.5 -26.5t23.5 -12q29 0 48 47t19 118q0 105 -47 162.5t-133 57.5v61
q62 0 91.5 34t29.5 107q0 137 -107 137q-58 0 -84 -41.5t-26 -136.5v-428q0 -74 9.5 -98.5t38.5 -24.5v-41h-278v41q59 0 75 20t16 95v430q0 117 65.5 180.5t185.5 63.5z" />
    <glyph glyph-name="agrave" unicode="&#xe0;" horiz-adv-x="574" 
d="M344 190v95q-87 -40 -128 -72t-41 -66q0 -29 16 -46t40 -17q48 0 80.5 30.5t32.5 75.5zM203 277l141 61v42q0 111 -84 111q-28 0 -43.5 -15t-28.5 -52q-19 -53 -71 -53q-28 0 -43 17t-15 48q0 48 54 76t157 28q113 0 160.5 -40.5t47.5 -135.5v-219q0 -85 34 -85
q19 0 35 13l15 -29q-13 -25 -43 -39.5t-67 -14.5q-46 0 -70 28t-24 79h-5q-58 -106 -180 -106q-62 0 -100.5 35.5t-38.5 92.5q0 90 169 158zM392 651h-64l-134 60q-36 16 -52.5 28.5t-16.5 28.5q0 21 15 33t40 12q39 0 85 -43z" />
    <glyph glyph-name="aacute" unicode="&#xe1;" horiz-adv-x="574" 
d="M344 190v95q-87 -40 -128 -72t-41 -66q0 -29 16 -46t40 -17q48 0 80.5 30.5t32.5 75.5zM203 277l141 61v42q0 111 -84 111q-28 0 -43.5 -15t-28.5 -52q-19 -53 -71 -53q-28 0 -43 17t-15 48q0 48 54 76t157 28q113 0 160.5 -40.5t47.5 -135.5v-219q0 -85 34 -85
q19 0 35 13l15 -29q-13 -25 -43 -39.5t-67 -14.5q-46 0 -70 28t-24 79h-5q-58 -106 -180 -106q-62 0 -100.5 35.5t-38.5 92.5q0 90 169 158zM211 651h-59l127 119q46 43 85 43q25 0 40 -12t15 -33q0 -16 -17 -29t-52 -28z" />
    <glyph glyph-name="acircumflex" unicode="&#xe2;" horiz-adv-x="574" 
d="M344 190v95q-87 -40 -128 -72t-41 -66q0 -29 16 -46t40 -17q48 0 80.5 30.5t32.5 75.5zM203 277l141 61v42q0 111 -84 111q-28 0 -43.5 -15t-28.5 -52q-19 -53 -71 -53q-28 0 -43 17t-15 48q0 48 54 76t157 28q113 0 160.5 -40.5t47.5 -135.5v-219q0 -85 34 -85
q19 0 35 13l15 -29q-13 -25 -43 -39.5t-67 -14.5q-46 0 -70 28t-24 79h-5q-58 -106 -180 -106q-62 0 -100.5 35.5t-38.5 92.5q0 90 169 158zM221 800h104l120 -149h-52l-120 68l-120 -68h-52z" />
    <glyph glyph-name="atilde" unicode="&#xe3;" horiz-adv-x="574" 
d="M344 190v95q-87 -40 -128 -72t-41 -66q0 -29 16 -46t40 -17q48 0 80.5 30.5t32.5 75.5zM203 277l141 61v42q0 111 -84 111q-28 0 -43.5 -15t-28.5 -52q-19 -53 -71 -53q-28 0 -43 17t-15 48q0 48 54 76t157 28q113 0 160.5 -40.5t47.5 -135.5v-219q0 -85 34 -85
q19 0 35 13l15 -29q-13 -25 -43 -39.5t-67 -14.5q-46 0 -70 28t-24 79h-5q-58 -106 -180 -106q-62 0 -100.5 35.5t-38.5 92.5q0 90 169 158zM134 660h-46q10 59 43 96.5t76 37.5q24 0 87 -24q56 -22 79 -22q19 0 30.5 9.5t18.5 32.5h45q-8 -58 -44 -102q-30 -36 -73 -36
q-32 0 -85 25q-49 23 -87 23q-17 0 -26.5 -9t-17.5 -31z" />
    <glyph glyph-name="adieresis" unicode="&#xe4;" horiz-adv-x="574" 
d="M344 190v95q-87 -40 -128 -72t-41 -66q0 -29 16 -46t40 -17q48 0 80.5 30.5t32.5 75.5zM203 277l141 61v42q0 111 -84 111q-28 0 -43.5 -15t-28.5 -52q-19 -53 -71 -53q-28 0 -43 17t-15 48q0 48 54 76t157 28q113 0 160.5 -40.5t47.5 -135.5v-219q0 -85 34 -85
q19 0 35 13l15 -29q-13 -25 -43 -39.5t-67 -14.5q-46 0 -70 28t-24 79h-5q-58 -106 -180 -106q-62 0 -100.5 35.5t-38.5 92.5q0 90 169 158zM110 740q0 28 18.5 46.5t45.5 18.5q28 0 46.5 -18.5t18.5 -46.5q0 -27 -18.5 -45.5t-46.5 -18.5q-27 0 -45.5 18.5t-18.5 45.5z
M306 740q0 28 18.5 46.5t45.5 18.5q28 0 46.5 -18.5t18.5 -46.5q0 -27 -18.5 -45.5t-46.5 -18.5q-27 0 -45.5 18.5t-18.5 45.5z" />
    <glyph glyph-name="aring" unicode="&#xe5;" horiz-adv-x="574" 
d="M344 190v95q-87 -40 -128 -72t-41 -66q0 -29 16 -46t40 -17q48 0 80.5 30.5t32.5 75.5zM203 277l141 61v42q0 111 -84 111q-28 0 -43.5 -15t-28.5 -52q-19 -53 -71 -53q-28 0 -43 17t-15 48q0 48 54 76t157 28q113 0 160.5 -40.5t47.5 -135.5v-219q0 -85 34 -85
q19 0 35 13l15 -29q-13 -25 -43 -39.5t-67 -14.5q-46 0 -70 28t-24 79h-5q-58 -106 -180 -106q-62 0 -100.5 35.5t-38.5 92.5q0 90 169 158zM179 742q0 38 25.5 63t64.5 25q40 0 66 -25t26 -63q0 -37 -26 -61.5t-66 -24.5q-39 0 -64.5 24.5t-25.5 61.5zM228 742
q0 -16 12 -27.5t29 -11.5t28 11.5t11 27.5t-11 26.5t-28 10.5t-29 -10.5t-12 -26.5z" />
    <glyph glyph-name="ae" unicode="&#xe6;" horiz-adv-x="889" 
d="M817 128l28 -35q-97 -103 -231 -103q-170 0 -243 127q-28 -60 -79.5 -93t-116.5 -33q-66 0 -103.5 32.5t-37.5 89.5q0 51 37 88t127 75l146 62v42q0 111 -82 111q-28 0 -42 -12.5t-31 -51.5q-22 -56 -69 -56q-29 0 -45 16.5t-16 45.5q0 107 203 107q138 0 186 -58
q67 58 182 58q106 0 164.5 -58t58.5 -165q0 -12 -4.5 -14.5t-27.5 -2.5h-329q-4 -9 -4 -40q0 -100 41.5 -152.5t120.5 -52.5t167 73zM344 197v89q-94 -45 -131.5 -77t-37.5 -66q0 -27 18 -43t48 -16q44 0 73.5 32.5t29.5 80.5zM499 356h153q41 0 51.5 5t10.5 24q0 43 -25 70
t-66 27q-43 0 -76.5 -33.5t-47.5 -92.5z" />
    <glyph glyph-name="ccedilla" unicode="&#xe7;" horiz-adv-x="564" 
d="M502 121l26 -38q-76 -85 -210 -88l-24 -57q62 0 98.5 -25t36.5 -68q0 -46 -40 -75.5t-102 -29.5q-57 0 -94 24.5t-37 61.5q0 41 36 41q14 0 23 -8t18 -29q10 -24 19.5 -33t26.5 -9q20 0 32 12.5t12 32.5q0 54 -76 54q-21 0 -39 -2l-2 3l49 112q-99 16 -157.5 87
t-58.5 176q0 124 80 200.5t208 76.5q90 0 149.5 -34t59.5 -84q0 -29 -16.5 -46t-44.5 -17q-42 0 -75 51q-30 47 -44.5 59.5t-40.5 12.5q-58 0 -90 -54t-32 -151q0 -104 38.5 -160t110.5 -56q83 0 160 60z" />
    <glyph glyph-name="egrave" unicode="&#xe8;" 
d="M512 128l28 -35q-91 -103 -227 -103q-123 0 -199 74.5t-76 193.5q0 124 80.5 203t206.5 79q106 0 165 -57.5t59 -159.5q0 -16 -5 -19.5t-28 -3.5h-322q-4 -9 -4 -33q0 -98 42.5 -155t115.5 -57q83 0 164 73zM201 356h145q41 0 52 4.5t11 21.5q0 43 -25 71.5t-63 28.5
q-43 0 -76.5 -35.5t-43.5 -90.5zM388 651h-64l-134 60q-36 16 -52.5 28.5t-16.5 28.5q0 21 15 33t40 12q39 0 85 -43z" />
    <glyph glyph-name="eacute" unicode="&#xe9;" 
d="M512 128l28 -35q-91 -103 -227 -103q-123 0 -199 74.5t-76 193.5q0 124 80.5 203t206.5 79q106 0 165 -57.5t59 -159.5q0 -16 -5 -19.5t-28 -3.5h-322q-4 -9 -4 -33q0 -98 42.5 -155t115.5 -57q83 0 164 73zM201 356h145q41 0 52 4.5t11 21.5q0 43 -25 71.5t-63 28.5
q-43 0 -76.5 -35.5t-43.5 -90.5zM291 651h-59l127 119q46 43 85 43q25 0 40 -12t15 -33q0 -16 -17 -29t-52 -28z" />
    <glyph glyph-name="ecircumflex" unicode="&#xea;" 
d="M512 128l28 -35q-91 -103 -227 -103q-123 0 -199 74.5t-76 193.5q0 124 80.5 203t206.5 79q106 0 165 -57.5t59 -159.5q0 -16 -5 -19.5t-28 -3.5h-322q-4 -9 -4 -33q0 -98 42.5 -155t115.5 -57q83 0 164 73zM201 356h145q41 0 52 4.5t11 21.5q0 43 -25 71.5t-63 28.5
q-43 0 -76.5 -35.5t-43.5 -90.5zM263 800h104l120 -149h-52l-120 68l-120 -68h-52z" />
    <glyph glyph-name="edieresis" unicode="&#xeb;" 
d="M512 128l28 -35q-91 -103 -227 -103q-123 0 -199 74.5t-76 193.5q0 124 80.5 203t206.5 79q106 0 165 -57.5t59 -159.5q0 -16 -5 -19.5t-28 -3.5h-322q-4 -9 -4 -33q0 -98 42.5 -155t115.5 -57q83 0 164 73zM201 356h145q41 0 52 4.5t11 21.5q0 43 -25 71.5t-63 28.5
q-43 0 -76.5 -35.5t-43.5 -90.5zM167 740q0 28 18.5 46.5t45.5 18.5q28 0 46.5 -18.5t18.5 -46.5q0 -27 -18.5 -45.5t-46.5 -18.5q-27 0 -45.5 18.5t-18.5 45.5zM363 740q0 28 18.5 46.5t45.5 18.5q28 0 46.5 -18.5t18.5 -46.5q0 -27 -18.5 -45.5t-46.5 -18.5
q-27 0 -45.5 18.5t-18.5 45.5z" />
    <glyph glyph-name="igrave" unicode="&#xec;" horiz-adv-x="361" 
d="M257 540v-376q0 -80 14.5 -101t72.5 -23v-40h-315v40q56 3 72.5 24.5t16.5 92.5v123q0 116 -7 147q-5 25 -22.5 33t-63.5 8v34zM280 651h-64l-134 60q-36 16 -52.5 28.5t-16.5 28.5q0 21 15 33t40 12q39 0 85 -43z" />
    <glyph glyph-name="iacute" unicode="&#xed;" horiz-adv-x="361" 
d="M257 540v-376q0 -80 14.5 -101t72.5 -23v-40h-315v40q56 3 72.5 24.5t16.5 92.5v123q0 116 -7 147q-5 25 -22.5 33t-63.5 8v34zM146 651h-59l127 119q46 43 85 43q25 0 40 -12t15 -33q0 -16 -17 -29t-52 -28z" />
    <glyph glyph-name="icircumflex" unicode="&#xee;" horiz-adv-x="361" 
d="M257 540v-376q0 -80 14.5 -101t72.5 -23v-40h-315v40q56 3 72.5 24.5t16.5 92.5v123q0 116 -7 147q-5 25 -22.5 33t-63.5 8v34zM135 800h104l120 -149h-52l-120 68l-120 -68h-52z" />
    <glyph glyph-name="idieresis" unicode="&#xef;" horiz-adv-x="361" 
d="M257 540v-376q0 -80 14.5 -101t72.5 -23v-40h-315v40q56 3 72.5 24.5t16.5 92.5v123q0 116 -7 147q-5 25 -22.5 33t-63.5 8v34zM38 740q0 28 18.5 46.5t45.5 18.5q28 0 46.5 -18.5t18.5 -46.5q0 -27 -18.5 -45.5t-46.5 -18.5q-27 0 -45.5 18.5t-18.5 45.5zM234 740
q0 28 18.5 46.5t45.5 18.5q28 0 46.5 -18.5t18.5 -46.5q0 -27 -18.5 -45.5t-46.5 -18.5q-27 0 -45.5 18.5t-18.5 45.5z" />
    <glyph glyph-name="eth" unicode="&#xf0;" horiz-adv-x="661" 
d="M200 244q0 -93 33 -146t88 -53q61 0 97.5 53.5t36.5 145.5q0 97 -36 153.5t-97 56.5q-55 0 -88.5 -56t-33.5 -154zM164 736l20 44q122 -34 182 -68l136 75l30 -43l-116 -64q99 -60 151 -158t52 -214q0 -139 -84.5 -228.5t-214.5 -89.5q-119 0 -200 72.5t-81 181.5
q0 113 78 191t194 78q117 0 161 -101l3 2q-41 151 -130 228l-140 -76l-24 43l124 66q-32 25 -141 61z" />
    <glyph glyph-name="ntilde" unicode="&#xf1;" horiz-adv-x="727" 
d="M257 301v-138q0 -81 13.5 -100t73.5 -23v-40h-315v40q59 4 74 23t15 93v125q0 115 -7 145q-6 26 -23 34t-63 8v34l193 38l13 -88h4q70 88 177 88q63 0 103 -17.5t71 -58.5q43 -58 43 -160v-141q0 -81 13.5 -100t71.5 -23v-40h-313v40q59 3 74 22.5t15 93.5v136
q0 102 -25.5 142.5t-90.5 40.5q-60 0 -95 -68q-22 -44 -22 -106zM220 660h-46q10 59 43 96.5t76 37.5q24 0 87 -24q56 -22 79 -22q19 0 30.5 9.5t18.5 32.5h45q-8 -58 -44 -102q-30 -36 -73 -36q-32 0 -85 25q-49 23 -87 23q-17 0 -26.5 -9t-17.5 -31z" />
    <glyph glyph-name="ograve" unicode="&#xf2;" horiz-adv-x="660" 
d="M328 540q121 0 208 -77.5t87 -193.5q0 -120 -87 -199.5t-208 -79.5t-206 79.5t-85 199.5q0 117 85 194t206 77zM328 482q-61 0 -97.5 -59t-36.5 -155q0 -99 36.5 -158t97.5 -59q63 0 100.5 59.5t37.5 157.5q0 96 -38 155t-100 59zM469 651h-64l-134 60q-36 16 -52.5 28.5
t-16.5 28.5q0 21 15 33t40 12q39 0 85 -43z" />
    <glyph glyph-name="oacute" unicode="&#xf3;" horiz-adv-x="660" 
d="M328 540q121 0 208 -77.5t87 -193.5q0 -120 -87 -199.5t-208 -79.5t-206 79.5t-85 199.5q0 117 85 194t206 77zM328 482q-61 0 -97.5 -59t-36.5 -155q0 -99 36.5 -158t97.5 -59q63 0 100.5 59.5t37.5 157.5q0 96 -38 155t-100 59zM288 651h-59l127 119q46 43 85 43
q25 0 40 -12t15 -33q0 -16 -17 -29t-52 -28z" />
    <glyph glyph-name="ocircumflex" unicode="&#xf4;" horiz-adv-x="660" 
d="M328 540q121 0 208 -77.5t87 -193.5q0 -120 -87 -199.5t-208 -79.5t-206 79.5t-85 199.5q0 117 85 194t206 77zM328 482q-61 0 -97.5 -59t-36.5 -155q0 -99 36.5 -158t97.5 -59q63 0 100.5 59.5t37.5 157.5q0 96 -38 155t-100 59zM276 800h104l120 -149h-52l-120 68
l-120 -68h-52z" />
    <glyph glyph-name="otilde" unicode="&#xf5;" horiz-adv-x="660" 
d="M328 540q121 0 208 -77.5t87 -193.5q0 -120 -87 -199.5t-208 -79.5t-206 79.5t-85 199.5q0 117 85 194t206 77zM328 482q-61 0 -97.5 -59t-36.5 -155q0 -99 36.5 -158t97.5 -59q63 0 100.5 59.5t37.5 157.5q0 96 -38 155t-100 59zM177 660h-46q10 59 43 96.5t76 37.5
q24 0 87 -24q56 -22 79 -22q19 0 30.5 9.5t18.5 32.5h45q-8 -58 -44 -102q-30 -36 -73 -36q-32 0 -85 25q-49 23 -87 23q-17 0 -27 -9t-17 -31z" />
    <glyph glyph-name="odieresis" unicode="&#xf6;" horiz-adv-x="660" 
d="M328 540q121 0 208 -77.5t87 -193.5q0 -120 -87 -199.5t-208 -79.5t-206 79.5t-85 199.5q0 117 85 194t206 77zM328 482q-61 0 -97.5 -59t-36.5 -155q0 -99 36.5 -158t97.5 -59q63 0 100.5 59.5t37.5 157.5q0 96 -38 155t-100 59zM179 740q0 28 18.5 46.5t45.5 18.5
q28 0 46.5 -18.5t18.5 -46.5q0 -27 -18.5 -45.5t-46.5 -18.5q-27 0 -45.5 18.5t-18.5 45.5zM375 740q0 28 18.5 46.5t45.5 18.5q28 0 46.5 -18.5t18.5 -46.5q0 -27 -18.5 -45.5t-46.5 -18.5q-27 0 -45.5 18.5t-18.5 45.5z" />
    <glyph glyph-name="divide" unicode="&#xf7;" 
d="M539 370v-64h-492v64h492zM220 521q0 32 22 54.5t53 22.5q33 0 55 -22.5t22 -54.5q0 -31 -22 -52.5t-55 -21.5q-31 0 -53 21.5t-22 52.5zM220 151q0 32 22 54.5t53 22.5q33 0 55 -22.5t22 -54.5q0 -31 -22 -52.5t-55 -21.5q-31 0 -53 21.5t-22 52.5z" />
    <glyph glyph-name="oslash" unicode="&#xf8;" horiz-adv-x="658" 
d="M327 540q86 0 159 -43l79 95h81l-109 -131q85 -78 85 -192q0 -120 -87 -199.5t-208 -79.5q-80 0 -150 38l-74 -89h-80l104 125q-91 81 -91 205q0 117 85 194t206 77zM327 482q-61 0 -97.5 -59t-36.5 -155q0 -60 14 -107l219 263q-38 58 -99 58zM465 268q0 52 -12 92
l-217 -261q36 -48 91 -48q63 0 100.5 59.5t37.5 157.5z" />
    <glyph glyph-name="ugrave" unicode="&#xf9;" horiz-adv-x="709" 
d="M465 262v104q0 81 -13 99.5t-74 24.5v40h226v-303q0 -116 7 -147q5 -26 20.5 -33t64.5 -7v-39l-199 -12l-11 89h-4q-25 -41 -72.5 -64.5t-105.5 -23.5q-107 0 -163 76q-43 58 -43 165v135q0 46 -1.5 65.5t-11.5 34t-24 17.5t-48 7v40h224v-283q0 -100 25 -146t80 -46
q60 0 91 54q32 52 32 153zM439 651h-64l-134 60q-36 16 -52.5 28.5t-16.5 28.5q0 21 15 33t40 12q39 0 85 -43z" />
    <glyph glyph-name="uacute" unicode="&#xfa;" horiz-adv-x="709" 
d="M465 262v104q0 81 -13 99.5t-74 24.5v40h226v-303q0 -116 7 -147q5 -26 20.5 -33t64.5 -7v-39l-199 -12l-11 89h-4q-25 -41 -72.5 -64.5t-105.5 -23.5q-107 0 -163 76q-43 58 -43 165v135q0 46 -1.5 65.5t-11.5 34t-24 17.5t-48 7v40h224v-283q0 -100 25 -146t80 -46
q60 0 91 54q32 52 32 153zM278 651h-59l127 119q46 43 85 43q25 0 40 -12t15 -33q0 -16 -17 -29t-52 -28z" />
    <glyph glyph-name="ucircumflex" unicode="&#xfb;" horiz-adv-x="709" 
d="M465 262v104q0 81 -13 99.5t-74 24.5v40h226v-303q0 -116 7 -147q5 -26 20.5 -33t64.5 -7v-39l-199 -12l-11 89h-4q-25 -41 -72.5 -64.5t-105.5 -23.5q-107 0 -163 76q-43 58 -43 165v135q0 46 -1.5 65.5t-11.5 34t-24 17.5t-48 7v40h224v-283q0 -100 25 -146t80 -46
q60 0 91 54q32 52 32 153zM267 800h104l120 -149h-52l-120 68l-120 -68h-52z" />
    <glyph glyph-name="udieresis" unicode="&#xfc;" horiz-adv-x="709" 
d="M465 262v104q0 81 -13 99.5t-74 24.5v40h226v-303q0 -116 7 -147q5 -26 20.5 -33t64.5 -7v-39l-199 -12l-11 89h-4q-25 -41 -72.5 -64.5t-105.5 -23.5q-107 0 -163 76q-43 58 -43 165v135q0 46 -1.5 65.5t-11.5 34t-24 17.5t-48 7v40h224v-283q0 -100 25 -146t80 -46
q60 0 91 54q32 52 32 153zM170 740q0 28 18.5 46.5t45.5 18.5q28 0 46.5 -18.5t18.5 -46.5q0 -27 -18.5 -45.5t-46.5 -18.5q-27 0 -45.5 18.5t-18.5 45.5zM366 740q0 28 18.5 46.5t45.5 18.5q28 0 46.5 -18.5t18.5 -46.5q0 -27 -18.5 -45.5t-46.5 -18.5q-27 0 -45.5 18.5
t-18.5 45.5z" />
    <glyph glyph-name="yacute" unicode="&#xfd;" horiz-adv-x="646" 
d="M516 323l-229 -480q-21 -44 -64 -73.5t-87 -29.5q-33 0 -53 16t-20 43q0 50 74 56q89 7 115 56l27 52l-177 438q-23 58 -39 72.5t-55 16.5v40h303v-40q-39 0 -54.5 -8t-15.5 -27q0 -13 9 -40l102 -292h4l86 195q44 101 44 128q0 26 -14.5 35t-58.5 9v40h241v-40
q-39 0 -62.5 -28t-75.5 -139zM329 651h-59l127 119q46 43 85 43q25 0 40 -12t15 -33q0 -16 -17 -29t-52 -28z" />
    <glyph glyph-name="thorn" unicode="&#xfe;" horiz-adv-x="674" 
d="M85 -97v691q0 100 -13 129q-6 14 -22 20t-61 12v35l234 40v-371h4q54 81 158 81q107 0 179 -78.5t72 -193.5q0 -118 -76.5 -198.5t-188.5 -80.5q-90 0 -144 67v-146q0 -79 21 -101t99 -24v-35h-360v35q62 2 80 23.5t18 94.5zM225 298v-89q0 -72 36.5 -117t95.5 -45
q62 0 95 55t33 161q0 214 -130 214q-70 0 -107 -74q-23 -49 -23 -105z" />
    <glyph glyph-name="ydieresis" unicode="&#xff;" horiz-adv-x="646" 
d="M516 323l-229 -480q-21 -44 -64 -73.5t-87 -29.5q-33 0 -53 16t-20 43q0 50 74 56q89 7 115 56l27 52l-177 438q-23 58 -39 72.5t-55 16.5v40h303v-40q-39 0 -54.5 -8t-15.5 -27q0 -13 9 -40l102 -292h4l86 195q44 101 44 128q0 26 -14.5 35t-58.5 9v40h241v-40
q-39 0 -62.5 -28t-75.5 -139zM220 740q0 28 18.5 46.5t45.5 18.5q28 0 46.5 -18.5t18.5 -46.5q0 -27 -18.5 -45.5t-46.5 -18.5q-27 0 -45.5 18.5t-18.5 45.5zM416 740q0 28 18.5 46.5t45.5 18.5q28 0 46.5 -18.5t18.5 -46.5q0 -27 -18.5 -45.5t-46.5 -18.5q-27 0 -45.5 18.5
t-18.5 45.5z" />
    <glyph glyph-name="Amacron" unicode="&#x100;" horiz-adv-x="809" 
d="M524 173l-23 60h-283q-47 -106 -47 -147q0 -28 20.5 -37t69.5 -9v-40h-274v40q49 5 73.5 22t41.5 59l263 659h74l239 -584q29 -71 48 -100t41 -39.5t71 -15.5v-41h-378v41q51 2 70.5 10.5t19.5 31.5q0 22 -26 90zM360 596l-119 -303h238l-115 303h-4zM540 865h-284v65
h284v-65z" />
    <glyph glyph-name="amacron" unicode="&#x101;" horiz-adv-x="574" 
d="M344 190v95q-87 -40 -128 -72t-41 -66q0 -29 16 -46t40 -17q48 0 80.5 30.5t32.5 75.5zM203 277l141 61v42q0 111 -84 111q-28 0 -43.5 -15t-28.5 -52q-19 -53 -71 -53q-28 0 -43 17t-15 48q0 48 54 76t157 28q113 0 160.5 -40.5t47.5 -135.5v-219q0 -85 34 -85
q19 0 35 13l15 -29q-13 -25 -43 -39.5t-67 -14.5q-46 0 -70 28t-24 79h-5q-58 -106 -180 -106q-62 0 -100.5 35.5t-38.5 92.5q0 90 169 158zM407 692h-284v65h284v-65z" />
    <glyph glyph-name="Abreve" unicode="&#x102;" horiz-adv-x="809" 
d="M524 173l-23 60h-283q-47 -106 -47 -147q0 -28 20.5 -37t69.5 -9v-40h-274v40q49 5 73.5 22t41.5 59l263 659h74l239 -584q29 -71 48 -100t41 -39.5t71 -15.5v-41h-378v41q51 2 70.5 10.5t19.5 31.5q0 22 -26 90zM360 596l-119 -303h238l-115 303h-4zM504 960h44
q-4 -57 -46 -93.5t-104 -36.5q-63 0 -105.5 37t-44.5 93h43q9 -19 38 -30t68 -11t68.5 11t38.5 30z" />
    <glyph glyph-name="abreve" unicode="&#x103;" horiz-adv-x="574" 
d="M344 190v95q-87 -40 -128 -72t-41 -66q0 -29 16 -46t40 -17q48 0 80.5 30.5t32.5 75.5zM203 277l141 61v42q0 111 -84 111q-28 0 -43.5 -15t-28.5 -52q-19 -53 -71 -53q-28 0 -43 17t-15 48q0 48 54 76t157 28q113 0 160.5 -40.5t47.5 -135.5v-219q0 -85 34 -85
q19 0 35 13l15 -29q-13 -25 -43 -39.5t-67 -14.5q-46 0 -70 28t-24 79h-5q-58 -106 -180 -106q-62 0 -100.5 35.5t-38.5 92.5q0 90 169 158zM376 786h44q-4 -61 -46 -100.5t-104 -39.5q-63 0 -105.5 39.5t-44.5 100.5h43q9 -23 38 -37t68 -14t68.5 14t38.5 37z" />
    <glyph glyph-name="Aogonek" unicode="&#x104;" horiz-adv-x="809" 
d="M698 -116l35 -36q-67 -87 -166 -87q-110 0 -110 88q0 91 152 151h-149v41q51 2 70.5 10.5t19.5 31.5q0 22 -26 90l-23 60h-283q-47 -106 -47 -147q0 -28 20.5 -37t69.5 -9v-40h-274v40q49 5 73.5 22t41.5 59l263 659h74l239 -584q29 -71 48 -100t41 -39.5t71 -15.5v-41
h-154q-55 -24 -89.5 -58.5t-34.5 -65.5q0 -20 13.5 -32.5t35.5 -12.5q47 0 89 53zM360 596l-119 -303h238l-115 303h-4z" />
    <glyph glyph-name="aogonek" unicode="&#x105;" horiz-adv-x="574" 
d="M499 -116l35 -36q-67 -87 -166 -87q-110 0 -110 88q0 90 149 150q-49 23 -49 98h-5q-58 -106 -180 -106q-62 0 -100.5 35.5t-38.5 92.5q0 44 40 81.5t129 76.5l141 61v42q0 111 -84 111q-28 0 -43.5 -15t-28.5 -52q-19 -53 -71 -53q-28 0 -43 17t-15 48q0 48 54 76
t157 28q113 0 160.5 -40.5t47.5 -135.5v-219q0 -85 34 -85q19 0 35 13l15 -29q-27 -48 -97 -53q-47 -24 -75.5 -55.5t-28.5 -59.5q0 -20 13.5 -32.5t35.5 -12.5q47 0 89 53zM344 190v95q-87 -40 -128 -72t-41 -66q0 -29 16 -46t40 -17q48 0 80.5 30.5t32.5 75.5z" />
    <glyph glyph-name="Cacute" unicode="&#x106;" horiz-adv-x="823" 
d="M688 708l19 62h49l-20 -253h-40q-21 92 -82 145t-146 53q-117 0 -182 -89.5t-65 -247.5q0 -155 64.5 -238.5t186.5 -83.5q203 0 259 215h44v-271h-47l-14 79q-110 -89 -267 -89q-182 0 -291 103.5t-109 278.5q0 181 114.5 294.5t297.5 113.5q113 0 229 -72zM392 830h-73
l126 97q43 33 94 33q57 0 57 -37q0 -23 -19 -38t-69 -27z" />
    <glyph glyph-name="cacute" unicode="&#x107;" horiz-adv-x="564" 
d="M502 121l26 -38q-79 -88 -217 -88q-122 0 -197 74t-75 194q0 124 80 200.5t208 76.5q90 0 149.5 -34t59.5 -84q0 -29 -16.5 -46t-44.5 -17q-42 0 -75 51q-30 47 -44.5 59.5t-40.5 12.5q-58 0 -90 -54t-32 -151q0 -104 38.5 -160t110.5 -56q83 0 160 60zM306 651h-59
l127 119q46 43 85 43q25 0 40 -12t15 -33q0 -16 -17 -29t-52 -28z" />
    <glyph glyph-name="Ccircumflex" unicode="&#x108;" horiz-adv-x="823" 
d="M688 708l19 62h49l-20 -253h-40q-21 92 -82 145t-146 53q-117 0 -182 -89.5t-65 -247.5q0 -155 64.5 -238.5t186.5 -83.5q203 0 259 215h44v-271h-47l-14 79q-110 -89 -267 -89q-182 0 -291 103.5t-109 278.5q0 181 114.5 294.5t297.5 113.5q113 0 229 -72zM398 960h116
l124 -130h-67l-115 49l-115 -49h-67z" />
    <glyph glyph-name="ccircumflex" unicode="&#x109;" horiz-adv-x="564" 
d="M502 121l26 -38q-79 -88 -217 -88q-122 0 -197 74t-75 194q0 124 80 200.5t208 76.5q90 0 149.5 -34t59.5 -84q0 -29 -16.5 -46t-44.5 -17q-42 0 -75 51q-30 47 -44.5 59.5t-40.5 12.5q-58 0 -90 -54t-32 -151q0 -104 38.5 -160t110.5 -56q83 0 160 60zM257 800h104
l120 -149h-52l-120 68l-120 -68h-52z" />
    <glyph glyph-name="Cdotaccent" unicode="&#x10a;" horiz-adv-x="823" 
d="M688 708l19 62h49l-20 -253h-40q-21 92 -82 145t-146 53q-117 0 -182 -89.5t-65 -247.5q0 -155 64.5 -238.5t186.5 -83.5q203 0 259 215h44v-271h-47l-14 79q-110 -89 -267 -89q-182 0 -291 103.5t-109 278.5q0 181 114.5 294.5t297.5 113.5q113 0 229 -72zM392 893
q0 27 19.5 46.5t46.5 19.5q29 0 49.5 -19t20.5 -47q0 -26 -20.5 -44.5t-49.5 -18.5q-26 0 -46 19t-20 44z" />
    <glyph glyph-name="cdotaccent" unicode="&#x10b;" horiz-adv-x="564" 
d="M502 121l26 -38q-79 -88 -217 -88q-122 0 -197 74t-75 194q0 124 80 200.5t208 76.5q90 0 149.5 -34t59.5 -84q0 -29 -16.5 -46t-44.5 -17q-42 0 -75 51q-30 47 -44.5 59.5t-40.5 12.5q-58 0 -90 -54t-32 -151q0 -104 38.5 -160t110.5 -56q83 0 160 60zM243 752
q0 33 22.5 55.5t54.5 22.5q33 0 55.5 -22.5t22.5 -55.5q0 -32 -22.5 -54.5t-55.5 -22.5q-32 0 -54.5 22.5t-22.5 54.5z" />
    <glyph glyph-name="Ccaron" unicode="&#x10c;" horiz-adv-x="823" 
d="M688 708l19 62h49l-20 -253h-40q-21 92 -82 145t-146 53q-117 0 -182 -89.5t-65 -247.5q0 -155 64.5 -238.5t186.5 -83.5q203 0 259 215h44v-271h-47l-14 79q-110 -89 -267 -89q-182 0 -291 103.5t-109 278.5q0 181 114.5 294.5t297.5 113.5q113 0 229 -72zM516 830h-116
l-124 130h67l115 -49l115 49h67z" />
    <glyph glyph-name="ccaron" unicode="&#x10d;" horiz-adv-x="564" 
d="M502 121l26 -38q-79 -88 -217 -88q-122 0 -197 74t-75 194q0 124 80 200.5t208 76.5q90 0 149.5 -34t59.5 -84q0 -29 -16.5 -46t-44.5 -17q-42 0 -75 51q-30 47 -44.5 59.5t-40.5 12.5q-58 0 -90 -54t-32 -151q0 -104 38.5 -160t110.5 -56q83 0 160 60zM381 651h-104
l-120 149h52l120 -68l120 68h52z" />
    <glyph glyph-name="Dcaron" unicode="&#x10e;" horiz-adv-x="919" 
d="M452 0h-417v40q67 2 86 22.5t19 91.5v462q0 70 -16 90.5t-73 23.5v40h380q192 0 317 -112.5t125 -285.5q0 -164 -117.5 -268t-303.5 -104zM429 709h-125q-17 0 -17 -17v-517q0 -114 147 -114q131 0 201.5 79.5t70.5 229.5q0 159 -74 249t-203 90zM511 830h-116l-124 130
h67l115 -49l115 49h67z" />
    <glyph glyph-name="dcaron" unicode="&#x10f;" horiz-adv-x="694" 
d="M481 -10v74h-4q-69 -74 -179 -74q-114 0 -186.5 76t-72.5 195t72.5 199t180.5 80q104 0 156 -66h4v85q0 132 -6 157q-9 40 -109 40v34l253 40v-572q0 -138 7 -177q4 -26 17.5 -33.5t56.5 -7.5v-39zM450 248v39q0 78 -32 128q-37 59 -106 59q-58 0 -89.5 -54.5
t-31.5 -156.5q0 -104 31 -160t89 -56q33 0 63 17t49 46q27 41 27 138zM718 559l-28 31q58 41 58 88q-10 -8 -27 -8q-19 0 -32.5 14t-13.5 36q0 24 20.5 42t51.5 18t48.5 -20.5t17.5 -58.5q0 -80 -95 -142z" />
    <glyph glyph-name="Dcroat" unicode="&#x110;" horiz-adv-x="920" 
d="M453 0h-417v40q67 2 86 22.5t19 91.5v216h-87v60h87v186q0 70 -16 90.5t-73 23.5v40h380q192 0 317 -112.5t125 -285.5q0 -164 -117.5 -268t-303.5 -104zM430 709h-125q-17 0 -17 -17v-262h133v-60h-133v-195q0 -114 147 -114q131 0 201.5 79.5t70.5 229.5q0 159 -74 249
t-203 90z" />
    <glyph glyph-name="dcroat" unicode="&#x111;" horiz-adv-x="694" 
d="M481 -10v74h-4q-69 -74 -179 -74q-114 0 -186.5 76t-72.5 195t72.5 199t180.5 80q104 0 156 -66h4v127h-85v50h84q-1 47 -5 65q-9 40 -109 40v34l253 40v-179h70v-50h-70v-343q0 -138 7 -177q4 -26 17.5 -33.5t56.5 -7.5v-39zM450 248v39q0 78 -32 128q-37 59 -106 59
q-58 0 -89.5 -54.5t-31.5 -156.5q0 -104 31 -160t89 -56q33 0 63 17t49 46q27 41 27 138z" />
    <glyph glyph-name="Emacron" unicode="&#x112;" horiz-adv-x="764" 
d="M287 680v-254q129 0 164 20.5t44 101.5h37v-293h-37q-5 35 -12.5 54.5t-19.5 34t-36.5 20.5t-55 8.5t-84.5 2.5v-206q0 -65 37 -89.5t134 -24.5q114 0 162 36t69 138h40l-16 -229h-678v40q67 2 86 23t19 91v462q0 70 -17 90.5t-77 23.5v40h632l7 -196h-43
q-13 84 -55 113.5t-149 29.5h-113q-25 0 -31.5 -6.5t-6.5 -30.5zM545 865h-284v65h284v-65z" />
    <glyph glyph-name="emacron" unicode="&#x113;" 
d="M512 128l28 -35q-91 -103 -227 -103q-123 0 -199 74.5t-76 193.5q0 124 80.5 203t206.5 79q106 0 165 -57.5t59 -159.5q0 -16 -5 -19.5t-28 -3.5h-322q-4 -9 -4 -33q0 -98 42.5 -155t115.5 -57q83 0 164 73zM201 356h145q41 0 52 4.5t11 21.5q0 43 -25 71.5t-63 28.5
q-43 0 -76.5 -35.5t-43.5 -90.5zM460 692h-284v65h284v-65z" />
    <glyph glyph-name="Ebreve" unicode="&#x114;" horiz-adv-x="764" 
d="M287 680v-254q129 0 164 20.5t44 101.5h37v-293h-37q-5 35 -12.5 54.5t-19.5 34t-36.5 20.5t-55 8.5t-84.5 2.5v-206q0 -65 37 -89.5t134 -24.5q114 0 162 36t69 138h40l-16 -229h-678v40q67 2 86 23t19 91v462q0 70 -17 90.5t-77 23.5v40h632l7 -196h-43
q-13 84 -55 113.5t-149 29.5h-113q-25 0 -31.5 -6.5t-6.5 -30.5zM509 960h44q-4 -57 -46 -93.5t-104 -36.5q-63 0 -105.5 37t-44.5 93h43q9 -19 38 -30t68 -11t68.5 11t38.5 30z" />
    <glyph glyph-name="ebreve" unicode="&#x115;" 
d="M512 128l28 -35q-91 -103 -227 -103q-123 0 -199 74.5t-76 193.5q0 124 80.5 203t206.5 79q106 0 165 -57.5t59 -159.5q0 -16 -5 -19.5t-28 -3.5h-322q-4 -9 -4 -33q0 -98 42.5 -155t115.5 -57q83 0 164 73zM201 356h145q41 0 52 4.5t11 21.5q0 43 -25 71.5t-63 28.5
q-43 0 -76.5 -35.5t-43.5 -90.5zM420 786h44q-4 -61 -46 -100.5t-104 -39.5q-63 0 -105.5 39.5t-44.5 100.5h43q9 -23 38 -37t68 -14t68.5 14t38.5 37z" />
    <glyph glyph-name="Edotaccent" unicode="&#x116;" horiz-adv-x="764" 
d="M287 680v-254q129 0 164 20.5t44 101.5h37v-293h-37q-5 35 -12.5 54.5t-19.5 34t-36.5 20.5t-55 8.5t-84.5 2.5v-206q0 -65 37 -89.5t134 -24.5q114 0 162 36t69 138h40l-16 -229h-678v40q67 2 86 23t19 91v462q0 70 -17 90.5t-77 23.5v40h632l7 -196h-43
q-13 84 -55 113.5t-149 29.5h-113q-25 0 -31.5 -6.5t-6.5 -30.5zM314 893q0 27 19.5 46.5t46.5 19.5q29 0 49.5 -19t20.5 -47q0 -26 -20.5 -44.5t-49.5 -18.5q-26 0 -46 19t-20 44z" />
    <glyph glyph-name="edotaccent" unicode="&#x117;" 
d="M512 128l28 -35q-91 -103 -227 -103q-123 0 -199 74.5t-76 193.5q0 124 80.5 203t206.5 79q106 0 165 -57.5t59 -159.5q0 -16 -5 -19.5t-28 -3.5h-322q-4 -9 -4 -33q0 -98 42.5 -155t115.5 -57q83 0 164 73zM201 356h145q41 0 52 4.5t11 21.5q0 43 -25 71.5t-63 28.5
q-43 0 -76.5 -35.5t-43.5 -90.5zM247 752q0 33 22.5 55.5t54.5 22.5q33 0 55.5 -22.5t22.5 -55.5q0 -32 -22.5 -54.5t-55.5 -22.5q-32 0 -54.5 22.5t-22.5 54.5z" />
    <glyph glyph-name="Eogonek" unicode="&#x118;" horiz-adv-x="764" 
d="M476 -116l35 -36q-67 -87 -166 -87q-110 0 -110 88q0 91 152 151h-352v40q67 2 86 23t19 91v462q0 70 -17 90.5t-77 23.5v40h632l7 -196h-43q-13 84 -55 113.5t-149 29.5h-113q-25 0 -31.5 -6.5t-6.5 -30.5v-254q129 0 164 20.5t44 101.5h37v-293h-37q-5 35 -12.5 54.5
t-19.5 34t-36.5 20.5t-55 8.5t-84.5 2.5v-206q0 -65 37 -89.5t134 -24.5q114 0 162 36t69 138h40l-16 -229h-251q-55 -24 -89.5 -58.5t-34.5 -65.5q0 -20 13.5 -32.5t35.5 -12.5q47 0 89 53z" />
    <glyph glyph-name="eogonek" unicode="&#x119;" 
d="M369 -116l35 -36q-67 -87 -166 -87q-110 0 -110 88q0 85 135 145q-102 14 -163.5 85.5t-61.5 178.5q0 124 80.5 203t206.5 79q106 0 165 -57.5t59 -159.5q0 -16 -5 -19.5t-28 -3.5h-322q-4 -9 -4 -33q0 -98 42.5 -155t115.5 -57q83 0 164 73l28 -35q-84 -95 -205 -102
q-47 -24 -75.5 -55.5t-28.5 -59.5q0 -20 13.5 -32.5t35.5 -12.5q47 0 89 53zM201 356h145q41 0 52 4.5t11 21.5q0 43 -25 71.5t-63 28.5q-43 0 -76.5 -35.5t-43.5 -90.5z" />
    <glyph glyph-name="Ecaron" unicode="&#x11a;" horiz-adv-x="764" 
d="M287 680v-254q129 0 164 20.5t44 101.5h37v-293h-37q-5 35 -12.5 54.5t-19.5 34t-36.5 20.5t-55 8.5t-84.5 2.5v-206q0 -65 37 -89.5t134 -24.5q114 0 162 36t69 138h40l-16 -229h-678v40q67 2 86 23t19 91v462q0 70 -17 90.5t-77 23.5v40h632l7 -196h-43
q-13 84 -55 113.5t-149 29.5h-113q-25 0 -31.5 -6.5t-6.5 -30.5zM460 830h-116l-124 130h67l115 -49l115 49h67z" />
    <glyph glyph-name="ecaron" unicode="&#x11b;" 
d="M512 128l28 -35q-91 -103 -227 -103q-123 0 -199 74.5t-76 193.5q0 124 80.5 203t206.5 79q106 0 165 -57.5t59 -159.5q0 -16 -5 -19.5t-28 -3.5h-322q-4 -9 -4 -33q0 -98 42.5 -155t115.5 -57q83 0 164 73zM201 356h145q41 0 52 4.5t11 21.5q0 43 -25 71.5t-63 28.5
q-43 0 -76.5 -35.5t-43.5 -90.5zM375 651h-104l-120 149h52l120 -68l120 68h52z" />
    <glyph glyph-name="Gcircumflex" unicode="&#x11c;" horiz-adv-x="876" 
d="M438 -10q-180 0 -285.5 103t-105.5 278q0 182 112 295.5t291 113.5q116 0 239 -72l19 62h36v-253h-50q-20 94 -80.5 146t-151.5 52q-114 0 -178 -89t-64 -247q0 -155 62.5 -238.5t179.5 -83.5q84 0 132 43.5t48 120.5q0 46 -24.5 68t-80.5 26v40h324v-40q-49 0 -68 -21.5
t-19 -77.5v-133q-44 0 -67 -7.5t-77 -40.5q-76 -45 -192 -45zM397 960h116l124 -130h-67l-115 49l-115 -49h-67z" />
    <glyph glyph-name="gcircumflex" unicode="&#x11d;" horiz-adv-x="610" 
d="M228 108q92 -8 163 -19q77 -11 122 -58.5t45 -117.5q0 -85 -70.5 -129t-205.5 -44q-124 0 -192 36.5t-68 103.5q0 50 26.5 77.5t68.5 27.5q57 0 92 -41q-26 -5 -42.5 -23.5t-16.5 -43.5q0 -40 36 -61.5t104 -21.5q150 0 150 95q0 35 -23 59t-64 29l-175 24
q-111 15 -111 99q0 40 26.5 66.5t75.5 36.5v4q-45 18 -74 62.5t-29 95.5q0 75 58.5 125t146.5 50q90 0 154 -49q79 49 122 49q38 0 61.5 -17t23.5 -45q0 -21 -13 -34.5t-34 -13.5q-20 0 -41.5 21.5t-41.5 21.5q-21 0 -40 -27q18 -32 18 -82q0 -79 -51.5 -129t-160.5 -62
q-48 -5 -66.5 -13t-18.5 -24q0 -24 45 -28zM276 230q32 0 50 34t18 95q0 62 -18 95.5t-51 33.5q-34 0 -54 -34.5t-20 -92.5q0 -59 20.5 -95t54.5 -36zM241 800h104l120 -149h-52l-120 68l-120 -68h-52z" />
    <glyph glyph-name="Gbreve" unicode="&#x11e;" horiz-adv-x="876" 
d="M438 -10q-180 0 -285.5 103t-105.5 278q0 182 112 295.5t291 113.5q116 0 239 -72l19 62h36v-253h-50q-20 94 -80.5 146t-151.5 52q-114 0 -178 -89t-64 -247q0 -155 62.5 -238.5t179.5 -83.5q84 0 132 43.5t48 120.5q0 46 -24.5 68t-80.5 26v40h324v-40q-49 0 -68 -21.5
t-19 -77.5v-133q-44 0 -67 -7.5t-77 -40.5q-76 -45 -192 -45zM561 960h44q-4 -57 -46 -93.5t-104 -36.5q-63 0 -105.5 37t-44.5 93h43q9 -19 38 -30t68 -11t68.5 11t38.5 30z" />
    <glyph glyph-name="gbreve" unicode="&#x11f;" horiz-adv-x="610" 
d="M228 108q92 -8 163 -19q77 -11 122 -58.5t45 -117.5q0 -85 -70.5 -129t-205.5 -44q-124 0 -192 36.5t-68 103.5q0 50 26.5 77.5t68.5 27.5q57 0 92 -41q-26 -5 -42.5 -23.5t-16.5 -43.5q0 -40 36 -61.5t104 -21.5q150 0 150 95q0 35 -23 59t-64 29l-175 24
q-111 15 -111 99q0 40 26.5 66.5t75.5 36.5v4q-45 18 -74 62.5t-29 95.5q0 75 58.5 125t146.5 50q90 0 154 -49q79 49 122 49q38 0 61.5 -17t23.5 -45q0 -21 -13 -34.5t-34 -13.5q-20 0 -41.5 21.5t-41.5 21.5q-21 0 -40 -27q18 -32 18 -82q0 -79 -51.5 -129t-160.5 -62
q-48 -5 -66.5 -13t-18.5 -24q0 -24 45 -28zM276 230q32 0 50 34t18 95q0 62 -18 95.5t-51 33.5q-34 0 -54 -34.5t-20 -92.5q0 -59 20.5 -95t54.5 -36zM390 786h44q-4 -61 -46 -100.5t-104 -39.5q-63 0 -105.5 39.5t-44.5 100.5h43q9 -23 38 -37t68 -14t68.5 14t38.5 37z" />
    <glyph glyph-name="Gdotaccent" unicode="&#x120;" horiz-adv-x="876" 
d="M438 -10q-180 0 -285.5 103t-105.5 278q0 182 112 295.5t291 113.5q116 0 239 -72l19 62h36v-253h-50q-20 94 -80.5 146t-151.5 52q-114 0 -178 -89t-64 -247q0 -155 62.5 -238.5t179.5 -83.5q84 0 132 43.5t48 120.5q0 46 -24.5 68t-80.5 26v40h324v-40q-49 0 -68 -21.5
t-19 -77.5v-133q-44 0 -67 -7.5t-77 -40.5q-76 -45 -192 -45zM374 893q0 27 19.5 46.5t46.5 19.5q29 0 49.5 -19t20.5 -47q0 -26 -20.5 -44.5t-49.5 -18.5q-26 0 -46 19t-20 44z" />
    <glyph glyph-name="gdotaccent" unicode="&#x121;" horiz-adv-x="610" 
d="M228 108q92 -8 163 -19q77 -11 122 -58.5t45 -117.5q0 -85 -70.5 -129t-205.5 -44q-124 0 -192 36.5t-68 103.5q0 50 26.5 77.5t68.5 27.5q57 0 92 -41q-26 -5 -42.5 -23.5t-16.5 -43.5q0 -40 36 -61.5t104 -21.5q150 0 150 95q0 35 -23 59t-64 29l-175 24
q-111 15 -111 99q0 40 26.5 66.5t75.5 36.5v4q-45 18 -74 62.5t-29 95.5q0 75 58.5 125t146.5 50q90 0 154 -49q79 49 122 49q38 0 61.5 -17t23.5 -45q0 -21 -13 -34.5t-34 -13.5q-20 0 -41.5 21.5t-41.5 21.5q-21 0 -40 -27q18 -32 18 -82q0 -79 -51.5 -129t-160.5 -62
q-48 -5 -66.5 -13t-18.5 -24q0 -24 45 -28zM276 230q32 0 50 34t18 95q0 62 -18 95.5t-51 33.5q-34 0 -54 -34.5t-20 -92.5q0 -59 20.5 -95t54.5 -36zM222 752q0 33 22.5 55.5t54.5 22.5q33 0 55.5 -22.5t22.5 -55.5q0 -32 -22.5 -54.5t-55.5 -22.5q-32 0 -54.5 22.5
t-22.5 54.5z" />
    <glyph glyph-name="Gcommaaccent" unicode="&#x122;" horiz-adv-x="876" 
d="M438 -10q-180 0 -285.5 103t-105.5 278q0 182 112 295.5t291 113.5q116 0 239 -72l19 62h36v-253h-50q-20 94 -80.5 146t-151.5 52q-114 0 -178 -89t-64 -247q0 -155 62.5 -238.5t179.5 -83.5q84 0 132 43.5t48 120.5q0 46 -24.5 68t-80.5 26v40h324v-40q-49 0 -68 -21.5
t-19 -77.5v-133q-44 0 -67 -7.5t-77 -40.5q-76 -45 -192 -45zM415 -250l-28 31q58 32 58 72q-10 -8 -27 -8q-19 0 -32.5 14t-13.5 36q0 24 20.5 42t51.5 18t48.5 -20.5t17.5 -58.5q0 -72 -95 -126z" />
    <glyph glyph-name="gcommaaccent" unicode="&#x123;" horiz-adv-x="610" 
d="M327 856l28 -31q-58 -32 -58 -72q10 8 27 8q19 0 32.5 -14t13.5 -36q0 -24 -20.5 -42t-51.5 -18t-48.5 20.5t-17.5 58.5q0 72 95 126zM228 108q92 -8 163 -19q77 -11 122 -58.5t45 -117.5q0 -85 -70.5 -129t-205.5 -44q-124 0 -192 36.5t-68 103.5q0 50 26.5 77.5
t68.5 27.5q57 0 92 -41q-26 -5 -42.5 -23.5t-16.5 -43.5q0 -40 36 -61.5t104 -21.5q150 0 150 95q0 35 -23 59t-64 29l-175 24q-111 15 -111 99q0 40 26.5 66.5t75.5 36.5v4q-45 18 -74 62.5t-29 95.5q0 75 58.5 125t146.5 50q90 0 154 -49q79 49 122 49q38 0 61.5 -17
t23.5 -45q0 -21 -13 -34.5t-34 -13.5q-20 0 -41.5 21.5t-41.5 21.5q-21 0 -40 -27q18 -32 18 -82q0 -79 -51.5 -129t-160.5 -62q-48 -5 -66.5 -13t-18.5 -24q0 -24 45 -28zM276 230q32 0 50 34t18 95q0 62 -18 95.5t-51 33.5q-34 0 -54 -34.5t-20 -92.5q0 -59 20.5 -95
t54.5 -36z" />
    <glyph glyph-name="Hcircumflex" unicode="&#x124;" horiz-adv-x="945" 
d="M805 609v-448q0 -76 18.5 -97.5t86.5 -23.5v-40h-367v40q73 2 94 22.5t21 91.5v209h-371v-202q0 -76 20 -97.5t94 -23.5v-40h-366v40q67 2 86 22.5t19 91.5v462q0 70 -16.5 90.5t-77.5 23.5v40h345v-40q-67 -2 -85.5 -23.5t-18.5 -97.5v-184h371v191q0 70 -19 90.5
t-86 23.5v40h346v-40q-61 -2 -77.5 -23.5t-16.5 -97.5zM413 960h116l124 -130h-67l-115 49l-115 -49h-67z" />
    <glyph glyph-name="hcircumflex" unicode="&#x125;" horiz-adv-x="714" 
d="M244 297v-133q0 -82 13.5 -101t73.5 -23v-40h-315v40q61 4 75 22.5t14 94.5v411q0 113 -7 147q-5 25 -19.5 32.5t-59.5 7.5v37l223 38v-369h4q60 79 162 79q98 0 152 -60q56 -64 56 -161v-155q0 -46 1.5 -66.5t11.5 -35t24.5 -17.5t47.5 -5v-40h-313v40q60 3 74.5 22
t14.5 95v123q0 107 -23 150.5t-79 43.5q-60 0 -95 -44q-36 -49 -36 -133zM409 800h104l120 -149h-52l-120 68l-120 -68h-52z" />
    <glyph glyph-name="Hbar" unicode="&#x126;" horiz-adv-x="949" 
d="M807 609v-8h75v-60h-75v-380q0 -76 18.5 -97.5t86.5 -23.5v-40h-367v40q73 2 94 22.5t21 91.5v209h-371v-202q0 -76 20 -97.5t94 -23.5v-40h-366v40q67 2 86 22.5t19 91.5v387h-72v60h72v15q0 70 -16.5 90.5t-77.5 23.5v40h345v-40q-67 -2 -85.5 -23.5t-18.5 -97.5v-8
h371v15q0 70 -19 90.5t-86 23.5v40h346v-40q-61 -2 -77.5 -23.5t-16.5 -97.5zM289 425h371v116h-371v-116z" />
    <glyph glyph-name="hbar" unicode="&#x127;" horiz-adv-x="714" 
d="M244 297v-133q0 -82 13.5 -101t73.5 -23v-40h-315v40q61 4 75 22.5t14 94.5v444h-85v50h84q-1 43 -6 64q-5 25 -19.5 32.5t-59.5 7.5v37l223 38v-179h71v-50h-71v-140h4q60 79 162 79q98 0 152 -60q56 -64 56 -161v-155q0 -46 1.5 -66.5t11.5 -35t24.5 -17.5t47.5 -5v-40
h-313v40q60 3 74.5 22t14.5 95v123q0 107 -23 150.5t-79 43.5q-60 0 -95 -44q-36 -49 -36 -133z" />
    <glyph glyph-name="Itilde" unicode="&#x128;" horiz-adv-x="429" 
d="M393 40v-40h-357v40q68 2 86.5 27t18.5 117v402q0 86 -17.5 113.5t-77.5 30.5v40h337v-40q-60 -3 -77.5 -30.5t-17.5 -113.5v-402q0 -92 18.5 -117t86.5 -27zM73 828h-46q10 59 43 96.5t76 37.5q24 0 87 -24q56 -22 79 -22q19 0 30.5 9.5t18.5 32.5h45q-8 -58 -44 -102
q-30 -36 -73 -36q-32 0 -85 25q-49 23 -87 23q-17 0 -27 -8.5t-17 -31.5z" />
    <glyph glyph-name="itilde" unicode="&#x129;" horiz-adv-x="361" 
d="M257 540v-376q0 -80 14.5 -101t72.5 -23v-40h-315v40q56 3 72.5 24.5t16.5 92.5v123q0 116 -7 147q-5 25 -22.5 33t-63.5 8v34zM36 660h-46q10 59 43 96.5t76 37.5q24 0 87 -24q56 -22 79 -22q19 0 30.5 9.5t18.5 32.5h45q-8 -58 -44 -102q-30 -36 -73 -36q-32 0 -85 25
q-49 23 -87 23q-17 0 -26.5 -9t-17.5 -31z" />
    <glyph glyph-name="Imacron" unicode="&#x12a;" horiz-adv-x="429" 
d="M393 40v-40h-357v40q68 2 86.5 27t18.5 117v402q0 86 -17.5 113.5t-77.5 30.5v40h337v-40q-60 -3 -77.5 -30.5t-17.5 -113.5v-402q0 -92 18.5 -117t86.5 -27zM357 865h-284v65h284v-65z" />
    <glyph glyph-name="imacron" unicode="&#x12b;" horiz-adv-x="361" 
d="M257 540v-376q0 -80 14.5 -101t72.5 -23v-40h-315v40q56 3 72.5 24.5t16.5 92.5v123q0 116 -7 147q-5 25 -22.5 33t-63.5 8v34zM329 692h-284v65h284v-65z" />
    <glyph glyph-name="Ibreve" unicode="&#x12c;" horiz-adv-x="429" 
d="M393 40v-40h-357v40q68 2 86.5 27t18.5 117v402q0 86 -17.5 113.5t-77.5 30.5v40h337v-40q-60 -3 -77.5 -30.5t-17.5 -113.5v-402q0 -92 18.5 -117t86.5 -27zM320 960h44q-4 -57 -46 -93.5t-104 -36.5q-63 0 -105.5 37t-44.5 93h43q9 -19 38 -30t68 -11t68.5 11t38.5 30z
" />
    <glyph glyph-name="ibreve" unicode="&#x12d;" horiz-adv-x="361" 
d="M257 540v-376q0 -80 14.5 -101t72.5 -23v-40h-315v40q56 3 72.5 24.5t16.5 92.5v123q0 116 -7 147q-5 25 -22.5 33t-63.5 8v34zM293 786h44q-4 -61 -46 -100.5t-104 -39.5q-63 0 -105.5 39.5t-44.5 100.5h43q9 -23 38 -37t68 -14t68.5 14t38.5 37z" />
    <glyph glyph-name="Iogonek" unicode="&#x12e;" horiz-adv-x="429" 
d="M272 -116l35 -36q-67 -87 -166 -87q-110 0 -110 88q0 91 152 151h-147v40q68 2 86.5 27t18.5 117v402q0 86 -17.5 113.5t-77.5 30.5v40h337v-40q-60 -3 -77.5 -30.5t-17.5 -113.5v-402q0 -92 18.5 -117t86.5 -27v-40h-135q-55 -24 -89.5 -58.5t-34.5 -65.5
q0 -20 13.5 -32.5t35.5 -12.5q47 0 89 53z" />
    <glyph glyph-name="iogonek" unicode="&#x12f;" horiz-adv-x="361" 
d="M243 -116l35 -36q-67 -87 -166 -87q-110 0 -110 88q0 91 152 151h-125v40q56 3 72.5 24.5t16.5 92.5v123q0 116 -7 147q-5 25 -22.5 33t-63.5 8v34l232 38v-376q0 -80 14.5 -101t72.5 -23v-40h-115q-55 -24 -89.5 -58.5t-34.5 -65.5q0 -20 13.5 -32.5t35.5 -12.5
q47 0 89 53zM110 752q0 33 22.5 55.5t54.5 22.5q33 0 55.5 -22.5t22.5 -55.5q0 -32 -22.5 -54.5t-55.5 -22.5q-32 0 -54.5 22.5t-22.5 54.5z" />
    <glyph glyph-name="Idotaccent" unicode="&#x130;" horiz-adv-x="429" 
d="M393 40v-40h-357v40q68 2 86.5 27t18.5 117v402q0 86 -17.5 113.5t-77.5 30.5v40h337v-40q-60 -3 -77.5 -30.5t-17.5 -113.5v-402q0 -92 18.5 -117t86.5 -27zM147 893q0 27 19.5 46.5t46.5 19.5q29 0 49.5 -19t20.5 -47q0 -26 -20.5 -44.5t-49.5 -18.5q-26 0 -46 19
t-20 44z" />
    <glyph glyph-name="dotlessi" unicode="&#x131;" horiz-adv-x="361" 
d="M257 540v-376q0 -80 14.5 -101t72.5 -23v-40h-315v40q56 3 72.5 24.5t16.5 92.5v123q0 116 -7 147q-5 25 -22.5 33t-63.5 8v34z" />
    <glyph glyph-name="IJ" unicode="&#x132;" horiz-adv-x="836" 
d="M393 40v-40h-357v40q68 2 86.5 27t18.5 117v402q0 86 -17.5 113.5t-77.5 30.5v40h337v-40q-60 -3 -77.5 -30.5t-17.5 -113.5v-402q0 -92 18.5 -117t86.5 -27zM559 -23v639q0 70 -17 90.5t-78 23.5v40h337v-40q-62 -2 -78.5 -23.5t-16.5 -97.5v-611q0 -126 -65 -192
t-190 -66q-88 0 -139 30.5t-51 79.5q0 28 18 44t46 16q22 0 36 -11.5t34 -45.5q19 -32 35 -43.5t40 -11.5q43 0 66 47t23 132z" />
    <glyph glyph-name="ij" unicode="&#x133;" horiz-adv-x="692" 
d="M257 540v-376q0 -80 14.5 -101t72.5 -23v-40h-315v40q56 3 72.5 24.5t16.5 92.5v123q0 116 -7 147q-5 25 -22.5 33t-63.5 8v34zM110 752q0 33 22.5 55.5t54.5 22.5q33 0 55.5 -22.5t22.5 -55.5q0 -32 -22.5 -54.5t-55.5 -22.5q-32 0 -54.5 22.5t-22.5 54.5zM607 540v-542
q0 -124 -61 -191t-174 -67q-75 0 -119.5 28t-44.5 71q0 24 16 38t38 14q25 0 42 -15.5t25 -33.5t24.5 -33.5t40.5 -15.5q38 0 56 30t18 99v368q0 104 -8 138q-5 24 -22 32t-63 8v34zM460 752q0 33 22.5 55.5t54.5 22.5q33 0 55.5 -22.5t22.5 -55.5q0 -32 -22.5 -54.5
t-55.5 -22.5q-32 0 -54.5 22.5t-22.5 54.5z" />
    <glyph glyph-name="Jcircumflex" unicode="&#x134;" horiz-adv-x="407" 
d="M130 -23v639q0 70 -17 90.5t-78 23.5v40h337v-40q-62 -2 -78.5 -23.5t-16.5 -97.5v-611q0 -126 -65 -192t-190 -66q-88 0 -139 30.5t-51 79.5q0 28 18 44t46 16q22 0 36 -11.5t34 -45.5q19 -32 35 -43.5t40 -11.5q43 0 66 47t23 132zM145 960h116l124 -130h-67l-115 49
l-115 -49h-67z" />
    <glyph glyph-name="jcircumflex" unicode="&#x135;" horiz-adv-x="331" 
d="M246 540v-542q0 -124 -61 -191t-174 -67q-75 0 -119.5 28t-44.5 71q0 24 16 38t38 14q25 0 42 -15.5t25 -33.5t24.5 -33.5t40.5 -15.5q38 0 56 30t18 99v368q0 104 -8 138q-5 24 -22 32t-63 8v34zM120 800h104l120 -149h-52l-120 68l-120 -68h-52z" />
    <glyph glyph-name="Kcommaaccent" unicode="&#x136;" horiz-adv-x="822" 
d="M287 293v-132q0 -76 17 -97.5t78 -23.5v-40h-347v40q67 2 86 23t19 91v462q0 69 -17 90t-77 24v40h345v-40q-67 -2 -85.5 -23.5t-18.5 -97.5v-222l259 278q23 25 23 42q0 23 -68 23v40h273v-39q-45 -2 -72.5 -18t-86.5 -77l-178 -186l294 -358q38 -48 112 -52v-40h-370
v40q77 1 77 27q0 16 -36 60l-177 218zM406 -250l-28 31q58 32 58 72q-10 -8 -27 -8q-19 0 -32.5 14t-13.5 36q0 24 20.5 42t51.5 18t48.5 -20.5t17.5 -58.5q0 -72 -95 -126z" />
    <glyph glyph-name="kcommaaccent" unicode="&#x137;" horiz-adv-x="664" 
d="M358 0v40q58 0 58 13q0 14 -48 84l-76 114l-50 -48v-39q0 -77 13 -100.5t56 -23.5v-40h-295v40q55 1 72 23.5t17 93.5v424q0 46 -0.5 70.5t-4 47t-8 31.5t-15.5 16t-23 8t-35 1v37l223 38v-556l96 91q96 90 96 109q0 16 -87 16v40h273v-40q-38 0 -66.5 -13t-63.5 -45
l-97 -91l173 -245q23 -32 45 -44t58 -12v-40h-311zM314 -250l-28 31q58 32 58 72q-10 -8 -27 -8q-19 0 -32.5 14t-13.5 36q0 24 20.5 42t51.5 18t48.5 -20.5t17.5 -58.5q0 -72 -95 -126z" />
    <glyph glyph-name="kgreenlandic" unicode="&#x138;" horiz-adv-x="675" 
d="M369 0v40q51 0 51 20q0 12 -17 38l-100 153l-50 -48v-39q0 -77 13 -100.5t56 -23.5v-40h-295v40q54 0 71.5 23t17.5 94v134q0 46 -0.5 72t-4.5 48t-8 31t-16 15t-23 7t-34 1v37l223 38v-266l96 91q96 91 96 109q0 16 -87 16v40h273v-40q-38 0 -67 -13t-63 -45l-97 -91
l173 -245q24 -34 46 -45t57 -11v-40h-311z" />
    <glyph glyph-name="Lacute" unicode="&#x139;" horiz-adv-x="755" 
d="M740 227l-16 -227h-689v40q67 2 86 23t19 91v462q0 70 -17 90.5t-77 23.5v40h345v-40q-67 -2 -85.5 -23.5t-18.5 -97.5v-419q0 -82 37 -108.5t144 -26.5q117 0 163.5 34t68.5 138h40zM193 830h-73l126 97q43 33 94 33q57 0 57 -37q0 -23 -19 -38t-69 -27z" />
    <glyph glyph-name="lacute" unicode="&#x13a;" horiz-adv-x="355" 
d="M150 830h-73l126 97q43 33 94 33q57 0 57 -37q0 -23 -19 -38t-69 -27zM247 830v-666q0 -80 14.5 -101t72.5 -23v-40h-315v40q56 3 72.5 24.5t16.5 92.5v413q0 116 -7 147q-5 25 -22.5 33t-63.5 8v34z" />
    <glyph glyph-name="Lcommaaccent" unicode="&#x13b;" horiz-adv-x="755" 
d="M740 227l-16 -227h-689v40q67 2 86 23t19 91v462q0 70 -17 90.5t-77 23.5v40h345v-40q-67 -2 -85.5 -23.5t-18.5 -97.5v-419q0 -82 37 -108.5t144 -26.5q117 0 163.5 34t68.5 138h40zM378 -250l-28 31q58 32 58 72q-10 -8 -27 -8q-19 0 -32.5 14t-13.5 36q0 24 20.5 42
t51.5 18t48.5 -20.5t17.5 -58.5q0 -72 -95 -126z" />
    <glyph glyph-name="lcommaaccent" unicode="&#x13c;" horiz-adv-x="355" 
d="M247 830v-666q0 -80 14.5 -101t72.5 -23v-40h-315v40q56 3 72.5 24.5t16.5 92.5v413q0 116 -7 147q-5 25 -22.5 33t-63.5 8v34zM159 -250l-28 31q58 32 58 72q-10 -8 -27 -8q-19 0 -32.5 14t-13.5 36q0 24 20.5 42t51.5 18t48.5 -20.5t17.5 -58.5q0 -72 -95 -126z" />
    <glyph glyph-name="Lcaron" unicode="&#x13d;" horiz-adv-x="755" 
d="M740 227l-16 -227h-689v40q67 2 86 23t19 91v462q0 70 -17 90.5t-77 23.5v40h345v-40q-67 -2 -85.5 -23.5t-18.5 -97.5v-419q0 -82 37 -108.5t144 -26.5q117 0 163.5 34t68.5 138h40zM284 830h-116l-124 130h67l115 -49l115 49h67z" />
    <glyph glyph-name="lcaron" unicode="&#x13e;" horiz-adv-x="355" 
d="M247 830v-666q0 -80 14.5 -101t72.5 -23v-40h-315v40q56 3 72.5 24.5t16.5 92.5v413q0 116 -7 147q-5 25 -22.5 33t-63.5 8v34zM384 559l-28 31q58 41 58 88q-10 -8 -27 -8q-19 0 -32.5 14t-13.5 36q0 24 20.5 42t51.5 18t48.5 -20.5t17.5 -58.5q0 -80 -95 -142z" />
    <glyph glyph-name="Ldot" unicode="&#x13f;" horiz-adv-x="755" 
d="M740 227l-16 -227h-689v40q67 2 86 23t19 91v462q0 70 -17 90.5t-77 23.5v40h345v-40q-67 -2 -85.5 -23.5t-18.5 -97.5v-419q0 -82 37 -108.5t144 -26.5q117 0 163.5 34t68.5 138h40zM415 401q0 32 22 54.5t53 22.5q33 0 55 -22.5t22 -54.5q0 -31 -22 -52.5t-55 -21.5
q-31 0 -53 21.5t-22 52.5z" />
    <glyph glyph-name="ldot" unicode="&#x140;" horiz-adv-x="439" 
d="M247 830v-666q0 -80 14.5 -101t72.5 -23v-40h-315v40q56 3 72.5 24.5t16.5 92.5v413q0 116 -7 147q-5 25 -22.5 33t-63.5 8v34zM322 416q0 32 22 54.5t53 22.5q33 0 55 -22.5t22 -54.5q0 -31 -22 -52.5t-55 -21.5q-31 0 -53 21.5t-22 52.5z" />
    <glyph glyph-name="Lslash" unicode="&#x141;" horiz-adv-x="757" 
d="M742 227l-16 -227h-689v40q67 2 86 23t19 91v151l-75 -45v74l75 45v237q0 70 -17 90.5t-77 23.5v40h345v-40q-67 -2 -85.5 -23.5t-18.5 -97.5v-143l118 71v-74l-118 -71v-202q0 -82 37 -108.5t144 -26.5q117 0 163.5 34t68.5 138h40z" />
    <glyph glyph-name="lslash" unicode="&#x142;" horiz-adv-x="357" 
d="M248 830v-359l73 43v-65l-73 -43v-242q0 -80 14.5 -101t72.5 -23v-40h-315v40q56 3 72.5 24.5t16.5 92.5v167l-72 -42v65l72 42v181q0 116 -7 147q-5 25 -22.5 33t-63.5 8v34z" />
    <glyph glyph-name="Nacute" unicode="&#x143;" horiz-adv-x="940" 
d="M804 -10h-134l-443 631h-4v-430q0 -98 18 -123.5t86 -27.5v-40h-297v40q74 2 94.5 27t20.5 117v402q0 86 -19.5 113.5t-85.5 30.5v40h279l403 -578h4v387q0 98 -18 123.5t-86 27.5v40h297v-40q-74 -2 -94.5 -27t-20.5 -117v-596zM444 830h-73l126 97q43 33 94 33
q57 0 57 -37q0 -23 -19 -38t-69 -27z" />
    <glyph glyph-name="nacute" unicode="&#x144;" horiz-adv-x="727" 
d="M257 301v-138q0 -81 13.5 -100t73.5 -23v-40h-315v40q59 4 74 23t15 93v125q0 115 -7 145q-6 26 -23 34t-63 8v34l193 38l13 -88h4q70 88 177 88q63 0 103 -17.5t71 -58.5q43 -58 43 -160v-141q0 -81 13.5 -100t71.5 -23v-40h-313v40q59 3 74 22.5t15 93.5v136
q0 102 -25.5 142.5t-90.5 40.5q-60 0 -95 -68q-22 -44 -22 -106zM330 651h-59l127 119q46 43 85 43q25 0 40 -12t15 -33q0 -16 -17 -29t-52 -28z" />
    <glyph glyph-name="Ncommaaccent" unicode="&#x145;" horiz-adv-x="940" 
d="M804 -10h-134l-443 631h-4v-430q0 -98 18 -123.5t86 -27.5v-40h-297v40q74 2 94.5 27t20.5 117v402q0 86 -19.5 113.5t-85.5 30.5v40h279l403 -578h4v387q0 98 -18 123.5t-86 27.5v40h297v-40q-74 -2 -94.5 -27t-20.5 -117v-596zM460 -250l-28 31q58 32 58 72
q-10 -8 -27 -8q-19 0 -32.5 14t-13.5 36q0 24 20.5 42t51.5 18t48.5 -20.5t17.5 -58.5q0 -72 -95 -126z" />
    <glyph glyph-name="ncommaaccent" unicode="&#x146;" horiz-adv-x="727" 
d="M257 301v-138q0 -81 13.5 -100t73.5 -23v-40h-315v40q59 4 74 23t15 93v125q0 115 -7 145q-6 26 -23 34t-63 8v34l193 38l13 -88h4q70 88 177 88q63 0 103 -17.5t71 -58.5q43 -58 43 -160v-141q0 -81 13.5 -100t71.5 -23v-40h-313v40q59 3 74 22.5t15 93.5v136
q0 102 -25.5 142.5t-90.5 40.5q-60 0 -95 -68q-22 -44 -22 -106zM340 -250l-28 31q58 32 58 72q-10 -8 -27 -8q-19 0 -32.5 14t-13.5 36q0 24 20.5 42t51.5 18t48.5 -20.5t17.5 -58.5q0 -72 -95 -126z" />
    <glyph glyph-name="Ncaron" unicode="&#x147;" horiz-adv-x="940" 
d="M804 -10h-134l-443 631h-4v-430q0 -98 18 -123.5t86 -27.5v-40h-297v40q74 2 94.5 27t20.5 117v402q0 86 -19.5 113.5t-85.5 30.5v40h279l403 -578h4v387q0 98 -18 123.5t-86 27.5v40h297v-40q-74 -2 -94.5 -27t-20.5 -117v-596zM528 830h-116l-124 130h67l115 -49
l115 49h67z" />
    <glyph glyph-name="ncaron" unicode="&#x148;" horiz-adv-x="727" 
d="M257 301v-138q0 -81 13.5 -100t73.5 -23v-40h-315v40q59 4 74 23t15 93v125q0 115 -7 145q-6 26 -23 34t-63 8v34l193 38l13 -88h4q70 88 177 88q63 0 103 -17.5t71 -58.5q43 -58 43 -160v-141q0 -81 13.5 -100t71.5 -23v-40h-313v40q59 3 74 22.5t15 93.5v136
q0 102 -25.5 142.5t-90.5 40.5q-60 0 -95 -68q-22 -44 -22 -106zM423 651h-104l-120 149h52l120 -68l120 68h52z" />
    <glyph glyph-name="napostrophe" unicode="&#x149;" horiz-adv-x="797" 
d="M327 301v-138q0 -81 13.5 -100t73.5 -23v-40h-315v40q59 4 74 23t15 93v125q0 115 -7 145q-6 26 -23 34t-63 8v34l193 38l13 -88h4q70 88 177 88q63 0 103 -17.5t71 -58.5q43 -58 43 -160v-141q0 -81 13.5 -100t71.5 -23v-40h-313v40q59 3 74 22.5t15 93.5v136
q0 102 -25.5 142.5t-90.5 40.5q-60 0 -95 -68q-22 -44 -22 -106zM96 596h-41q-3 16 -19 87q-17 68 -17 88q0 25 16 42t40 17t40 -17t16 -43q0 -19 -17 -87q-13 -53 -18 -87z" />
    <glyph glyph-name="Eng" unicode="&#x14a;" horiz-adv-x="940" 
d="M804 588v-598q0 -121 -59 -185.5t-167 -64.5q-73 0 -117.5 29.5t-44.5 77.5q0 53 51 53q18 0 29.5 -9.5t27.5 -37.5q19 -33 34 -44t38 -11q57 0 90.5 36t38.5 102l-498 695h-4v-440q0 -98 18 -123.5t86 -27.5v-40h-297v40q74 2 94.5 27t20.5 117v402q0 86 -19.5 113.5
t-85.5 30.5v40h279l403 -578h4v387q0 98 -18 123.5t-86 27.5v40h297v-40q-74 -2 -94.5 -26.5t-20.5 -115.5z" />
    <glyph glyph-name="eng" unicode="&#x14b;" horiz-adv-x="700" 
d="M257 301v-138q0 -81 13.5 -100t73.5 -23v-40h-315v40q59 4 74 23t15 93v125q0 115 -7 145q-6 26 -23 34t-63 8v34l193 38l13 -88h4q70 88 177 88q63 0 103 -17.5t71 -58.5q43 -58 43 -160v-306q0 -124 -61 -191t-174 -67q-75 0 -119.5 28t-44.5 71q0 24 16 38t38 14
q25 0 42 -15.5t25 -33.5t24.5 -33.5t40.5 -15.5q38 0 56 30t18 99v370q0 102 -25.5 142.5t-90.5 40.5q-60 0 -95 -68q-22 -44 -22 -106z" />
    <glyph glyph-name="Omacron" unicode="&#x14c;" horiz-adv-x="944" 
d="M472 780q180 0 303.5 -116t123.5 -285q0 -163 -124 -276t-303 -113t-303 113t-124 276q0 169 123.5 285t303.5 116zM472 55q116 0 184.5 86.5t68.5 234.5q0 156 -68 247.5t-185 91.5t-185 -91.5t-68 -247.5q0 -148 68 -234.5t185 -86.5zM613 865h-284v65h284v-65z" />
    <glyph glyph-name="omacron" unicode="&#x14d;" horiz-adv-x="660" 
d="M328 540q121 0 208 -77.5t87 -193.5q0 -120 -87 -199.5t-208 -79.5t-206 79.5t-85 199.5q0 117 85 194t206 77zM328 482q-61 0 -97.5 -59t-36.5 -155q0 -99 36.5 -158t97.5 -59q63 0 100.5 59.5t37.5 157.5q0 96 -38 155t-100 59zM470 692h-284v65h284v-65z" />
    <glyph glyph-name="Obreve" unicode="&#x14e;" horiz-adv-x="944" 
d="M472 780q180 0 303.5 -116t123.5 -285q0 -163 -124 -276t-303 -113t-303 113t-124 276q0 169 123.5 285t303.5 116zM472 55q116 0 184.5 86.5t68.5 234.5q0 156 -68 247.5t-185 91.5t-185 -91.5t-68 -247.5q0 -148 68 -234.5t185 -86.5zM580 960h44q-4 -57 -46 -93.5
t-104 -36.5q-63 0 -105.5 37t-44.5 93h43q9 -19 38 -30t68 -11t68.5 11t38.5 30z" />
    <glyph glyph-name="obreve" unicode="&#x14f;" horiz-adv-x="660" 
d="M328 540q121 0 208 -77.5t87 -193.5q0 -120 -87 -199.5t-208 -79.5t-206 79.5t-85 199.5q0 117 85 194t206 77zM328 482q-61 0 -97.5 -59t-36.5 -155q0 -99 36.5 -158t97.5 -59q63 0 100.5 59.5t37.5 157.5q0 96 -38 155t-100 59zM434 786h44q-4 -61 -46 -100.5
t-104 -39.5q-63 0 -105.5 39.5t-44.5 100.5h43q9 -23 38 -37t68 -14t68.5 14t38.5 37z" />
    <glyph glyph-name="Ohungarumlaut" unicode="&#x150;" horiz-adv-x="944" 
d="M472 780q180 0 303.5 -116t123.5 -285q0 -163 -124 -276t-303 -113t-303 113t-124 276q0 169 123.5 285t303.5 116zM472 55q116 0 184.5 86.5t68.5 234.5q0 156 -68 247.5t-185 91.5t-185 -91.5t-68 -247.5q0 -148 68 -234.5t185 -86.5zM344 830h-73l106 97q36 33 94 33
q57 0 57 -37q0 -23 -18.5 -36.5t-69.5 -28.5zM568 830h-73l106 97q36 33 94 33q57 0 57 -37q0 -23 -18.5 -36.5t-69.5 -28.5z" />
    <glyph glyph-name="ohungarumlaut" unicode="&#x151;" horiz-adv-x="660" 
d="M328 540q121 0 208 -77.5t87 -193.5q0 -120 -87 -199.5t-208 -79.5t-206 79.5t-85 199.5q0 117 85 194t206 77zM328 482q-61 0 -97.5 -59t-36.5 -155q0 -99 36.5 -158t97.5 -59q63 0 100.5 59.5t37.5 157.5q0 96 -38 155t-100 59zM215 651h-59l127 119q46 43 85 43
q25 0 40 -12t15 -33q0 -16 -17 -29t-52 -28zM452 651h-59l127 119q46 43 85 43q25 0 40 -12t15 -33q0 -16 -17 -29t-52 -28z" />
    <glyph glyph-name="OE" unicode="&#x152;" horiz-adv-x="1181" 
d="M482 770h614l9 -196h-42q-13 80 -57.5 111.5t-150.5 31.5h-133q-18 0 -18 -17v-277q116 0 156 24t48 101h41v-293h-41q-12 77 -51 102t-153 26v-214q0 -65 37.5 -89.5t136.5 -24.5q80 0 126 18t69 53.5t38 102.5h40l-21 -229h-652q-182 0 -307.5 110t-125.5 269
q0 165 126.5 278t310.5 113zM482 705q-123 0 -193 -87.5t-70 -241.5q0 -144 70 -227.5t193 -83.5q41 0 58 19t17 68v466q0 49 -17 68t-58 19z" />
    <glyph glyph-name="oe" unicode="&#x153;" horiz-adv-x="1053" 
d="M980 128l28 -35q-91 -103 -227 -103q-147 0 -224 102q-41 -48 -101 -75t-128 -27q-121 0 -206 79.5t-85 199.5q0 117 85 194t206 77q70 0 131.5 -28t103.5 -78q82 106 230 106q106 0 165 -57.5t59 -159.5q0 -16 -5 -19.5t-28 -3.5h-322q-4 -9 -4 -33q0 -98 42.5 -155
t115.5 -57q83 0 164 73zM328 482q-61 0 -97.5 -59t-36.5 -155q0 -99 36.5 -158t97.5 -59q63 0 100.5 59.5t37.5 157.5q0 96 -38 155t-100 59zM669 356h145q41 0 52 4.5t11 21.5q0 43 -25 71.5t-63 28.5q-43 0 -76.5 -35.5t-43.5 -90.5z" />
    <glyph glyph-name="Racute" unicode="&#x154;" horiz-adv-x="815" 
d="M695 577q0 -178 -201 -214l232 -266q49 -57 124 -57v-40h-237l-248 304q-42 51 -78 51v-196q0 -75 25.5 -97t119.5 -22v-40h-397v40q66 0 85.5 21.5t19.5 92.5v462q0 70 -16.5 90.5t-77.5 23.5v40h346q144 0 223.5 -51t79.5 -142zM287 697v-282h65q95 0 141 37.5
t46 119.5q0 64 -39.5 103t-107.5 39h-87q-18 0 -18 -17zM365 830h-73l126 97q43 33 94 33q57 0 57 -37q0 -23 -19 -38t-69 -27z" />
    <glyph glyph-name="racute" unicode="&#x155;" horiz-adv-x="498" 
d="M258 203v-48q0 -77 18 -95.5t88 -19.5v-40h-334v40q61 4 75 22.5t14 94.5v122q0 124 -16 156.5t-77 32.5v35l200 37l16 -115h4q27 53 71 84t93 31q38 0 62 -19t24 -48q0 -33 -19 -54.5t-50 -21.5q-22 0 -48.5 20t-38.5 20q-19 0 -36 -25t-28 -67q-18 -65 -18 -142z
M248 651h-59l127 119q46 43 85 43q25 0 40 -12t15 -33q0 -16 -17 -29t-52 -28z" />
    <glyph glyph-name="Rcommaaccent" unicode="&#x156;" horiz-adv-x="815" 
d="M695 577q0 -178 -201 -214l232 -266q49 -57 124 -57v-40h-237l-248 304q-42 51 -78 51v-196q0 -75 25.5 -97t119.5 -22v-40h-397v40q66 0 85.5 21.5t19.5 92.5v462q0 70 -16.5 90.5t-77.5 23.5v40h346q144 0 223.5 -51t79.5 -142zM287 697v-282h65q95 0 141 37.5
t46 119.5q0 64 -39.5 103t-107.5 39h-87q-18 0 -18 -17zM406 -250l-28 31q58 32 58 72q-10 -8 -27 -8q-19 0 -32.5 14t-13.5 36q0 24 20.5 42t51.5 18t48.5 -20.5t17.5 -58.5q0 -72 -95 -126z" />
    <glyph glyph-name="rcommaaccent" unicode="&#x157;" horiz-adv-x="498" 
d="M258 203v-48q0 -77 18 -95.5t88 -19.5v-40h-334v40q61 4 75 22.5t14 94.5v122q0 124 -16 156.5t-77 32.5v35l200 37l16 -115h4q27 53 71 84t93 31q38 0 62 -19t24 -48q0 -33 -19 -54.5t-50 -21.5q-22 0 -48.5 20t-38.5 20q-19 0 -36 -25t-28 -67q-18 -65 -18 -142z
M158 -250l-28 31q58 32 58 72q-10 -8 -27 -8q-19 0 -32.5 14t-13.5 36q0 24 20.5 42t51.5 18t48.5 -20.5t17.5 -58.5q0 -72 -95 -126z" />
    <glyph glyph-name="Rcaron" unicode="&#x158;" horiz-adv-x="815" 
d="M695 577q0 -178 -201 -214l232 -266q49 -57 124 -57v-40h-237l-248 304q-42 51 -78 51v-196q0 -75 25.5 -97t119.5 -22v-40h-397v40q66 0 85.5 21.5t19.5 92.5v462q0 70 -16.5 90.5t-77.5 23.5v40h346q144 0 223.5 -51t79.5 -142zM287 697v-282h65q95 0 141 37.5
t46 119.5q0 64 -39.5 103t-107.5 39h-87q-18 0 -18 -17zM433 830h-116l-124 130h67l115 -49l115 49h67z" />
    <glyph glyph-name="rcaron" unicode="&#x159;" horiz-adv-x="498" 
d="M258 203v-48q0 -77 18 -95.5t88 -19.5v-40h-334v40q61 4 75 22.5t14 94.5v122q0 124 -16 156.5t-77 32.5v35l200 37l16 -115h4q27 53 71 84t93 31q38 0 62 -19t24 -48q0 -33 -19 -54.5t-50 -21.5q-22 0 -48.5 20t-38.5 20q-19 0 -36 -25t-28 -67q-18 -65 -18 -142z
M340 651h-104l-120 149h52l120 -68l120 68h52z" />
    <glyph glyph-name="Sacute" unicode="&#x15a;" horiz-adv-x="663" 
d="M69 0l-15 255h39q13 -94 75.5 -149t153.5 -55q75 0 121 34t46 90q0 47 -36 76t-152 72q-229 87 -229 245q0 94 69 153t178 59q99 0 185 -64l18 50h24l11 -216h-39q-24 81 -75 125t-118 44q-61 0 -100 -30.5t-39 -78.5q0 -43 33 -69t137 -65q139 -53 200.5 -113.5
t61.5 -143.5q0 -101 -83.5 -165t-214.5 -64q-111 0 -207 70l-20 -60h-24zM286 830h-73l126 97q43 33 94 33q57 0 57 -37q0 -23 -19 -38t-69 -27z" />
    <glyph glyph-name="sacute" unicode="&#x15b;" horiz-adv-x="466" 
d="M107 35l-22 -35h-31v182h42q17 -71 49 -104.5t83 -33.5q37 0 57.5 15.5t20.5 42.5q0 54 -106 111q-76 41 -109 81.5t-33 91.5q0 67 46.5 111t116.5 44q66 0 115 -34l18 24h26v-151h-39q-23 57 -48 82t-59 25q-28 0 -44.5 -15t-16.5 -40q0 -28 25 -53t81 -55
q81 -44 116 -85.5t35 -95.5q0 -69 -50 -111t-132 -42q-91 0 -141 45zM197 651h-59l127 119q46 43 85 43q25 0 40 -12t15 -33q0 -16 -17 -29t-52 -28z" />
    <glyph glyph-name="Scircumflex" unicode="&#x15c;" horiz-adv-x="663" 
d="M69 0l-15 255h39q13 -94 75.5 -149t153.5 -55q75 0 121 34t46 90q0 47 -36 76t-152 72q-229 87 -229 245q0 94 69 153t178 59q99 0 185 -64l18 50h24l11 -216h-39q-24 81 -75 125t-118 44q-61 0 -100 -30.5t-39 -78.5q0 -43 33 -69t137 -65q139 -53 200.5 -113.5
t61.5 -143.5q0 -101 -83.5 -165t-214.5 -64q-111 0 -207 70l-20 -60h-24zM261 960h116l124 -130h-67l-115 49l-115 -49h-67z" />
    <glyph glyph-name="scircumflex" unicode="&#x15d;" horiz-adv-x="466" 
d="M107 35l-22 -35h-31v182h42q17 -71 49 -104.5t83 -33.5q37 0 57.5 15.5t20.5 42.5q0 54 -106 111q-76 41 -109 81.5t-33 91.5q0 67 46.5 111t116.5 44q66 0 115 -34l18 24h26v-151h-39q-23 57 -48 82t-59 25q-28 0 -44.5 -15t-16.5 -40q0 -28 25 -53t81 -55
q81 -44 116 -85.5t35 -95.5q0 -69 -50 -111t-132 -42q-91 0 -141 45zM190 800h104l120 -149h-52l-120 68l-120 -68h-52z" />
    <glyph glyph-name="uni015E" unicode="&#x15e;" horiz-adv-x="663" 
d="M69 0l-15 255h39q13 -94 75.5 -149t153.5 -55q75 0 121 34t46 90q0 47 -36 76t-152 72q-229 87 -229 245q0 94 69 153t178 59q99 0 185 -64l18 50h24l11 -216h-39q-24 81 -75 125t-118 44q-61 0 -100 -30.5t-39 -78.5q0 -43 33 -69t137 -65q139 -53 200.5 -113.5
t61.5 -143.5q0 -96 -75.5 -159t-197.5 -69l-22 -53q62 0 98.5 -25t36.5 -68q0 -46 -40 -75.5t-102 -29.5q-57 0 -94 24.5t-37 61.5q0 41 36 41q14 0 23 -8t18 -29q10 -24 19.5 -33t26.5 -9q20 0 32 12.5t12 32.5q0 54 -76 54q-21 0 -39 -2l-2 3l46 104q-88 9 -168 68
l-20 -60h-24z" />
    <glyph glyph-name="uni015F" unicode="&#x15f;" horiz-adv-x="466" 
d="M107 35l-22 -35h-31v182h42q17 -71 49 -104.5t83 -33.5q37 0 57.5 15.5t20.5 42.5q0 54 -106 111q-76 41 -109 81.5t-33 91.5q0 67 46.5 111t116.5 44q66 0 115 -34l18 24h26v-151h-39q-23 57 -48 82t-59 25q-28 0 -44.5 -15t-16.5 -40q0 -28 25 -53t81 -55
q81 -44 116 -85.5t35 -95.5q0 -67 -46.5 -108t-123.5 -44l-22 -53q62 0 98.5 -25t36.5 -68q0 -46 -40 -75.5t-102 -29.5q-57 0 -94 24.5t-37 61.5q0 41 36 41q14 0 23 -8t18 -29q10 -24 19.5 -33t26.5 -9q20 0 32 12.5t12 32.5q0 54 -76 54q-21 0 -39 -2l-2 3l47 107
q-56 9 -90 40z" />
    <glyph glyph-name="Scaron" unicode="&#x160;" horiz-adv-x="663" 
d="M69 0l-15 255h39q13 -94 75.5 -149t153.5 -55q75 0 121 34t46 90q0 47 -36 76t-152 72q-229 87 -229 245q0 94 69 153t178 59q99 0 185 -64l18 50h24l11 -216h-39q-24 81 -75 125t-118 44q-61 0 -100 -30.5t-39 -78.5q0 -43 33 -69t137 -65q139 -53 200.5 -113.5
t61.5 -143.5q0 -101 -83.5 -165t-214.5 -64q-111 0 -207 70l-20 -60h-24zM377 830h-116l-124 130h67l115 -49l115 49h67z" />
    <glyph glyph-name="scaron" unicode="&#x161;" horiz-adv-x="466" 
d="M107 35l-22 -35h-31v182h42q17 -71 49 -104.5t83 -33.5q37 0 57.5 15.5t20.5 42.5q0 54 -106 111q-76 41 -109 81.5t-33 91.5q0 67 46.5 111t116.5 44q66 0 115 -34l18 24h26v-151h-39q-23 57 -48 82t-59 25q-28 0 -44.5 -15t-16.5 -40q0 -28 25 -53t81 -55
q81 -44 116 -85.5t35 -95.5q0 -69 -50 -111t-132 -42q-91 0 -141 45zM294 651h-104l-120 149h52l120 -68l120 68h52z" />
    <glyph glyph-name="uni0162" unicode="&#x162;" horiz-adv-x="827" 
d="M805 770l10 -220h-43q-6 96 -45 132t-123 36q-76 0 -97.5 -6t-21.5 -25v-524q0 -68 25 -94t110 -29v-40h-181l-27 -62q62 0 98.5 -25t36.5 -68q0 -46 -40 -75.5t-102 -29.5q-57 0 -94 24.5t-37 61.5q0 41 36 41q14 0 23 -8t18 -29q10 -24 19.5 -33t26.5 -9q20 0 32 12.5
t12 32.5q0 54 -76 54q-21 0 -39 -2l-2 3l49 112h-172v40q85 3 111 29t26 94v524q0 19 -19 25t-84 6q-36 0 -57 -2t-48 -11t-41.5 -26t-25.5 -49.5t-12 -79.5h-39l10 220h783z" />
    <glyph glyph-name="uni0163" unicode="&#x163;" horiz-adv-x="382" 
d="M98 475h-73v45q117 34 161 131h51v-121h115v-55h-115v-307q0 -61 13.5 -87.5t45.5 -26.5q39 0 59 36l21 -29q-28 -71 -132 -71l-22 -52q62 0 98.5 -25t36.5 -68q0 -46 -40 -75.5t-102 -29.5q-57 0 -94 24.5t-37 61.5q0 41 36 41q14 0 23 -8t18 -29q10 -24 19.5 -33
t26.5 -9q20 0 32 12.5t12 32.5q0 54 -76 54q-21 0 -39 -2l-2 3l48 110q-84 25 -84 114v363z" />
    <glyph glyph-name="Tcaron" unicode="&#x164;" horiz-adv-x="827" 
d="M805 770l10 -220h-43q-6 96 -45 132t-123 36q-76 0 -97.5 -6t-21.5 -25v-524q0 -68 25 -94t110 -29v-40h-419v40q85 3 111 29t26 94v524q0 19 -19 25t-84 6q-36 0 -57 -2t-48 -11t-41.5 -26t-25.5 -49.5t-12 -79.5h-39l10 220h783zM470 830h-116l-124 130h67l115 -49
l115 49h67z" />
    <glyph glyph-name="tcaron" unicode="&#x165;" horiz-adv-x="382" 
d="M98 475h-73v45q117 34 161 131h51v-121h115v-55h-115v-307q0 -61 13.5 -87.5t45.5 -26.5q39 0 59 36l21 -29q-28 -71 -132 -71q-69 0 -107.5 32t-38.5 90v363zM355 559l-28 31q58 41 58 88q-10 -8 -27 -8q-19 0 -32.5 14t-13.5 36q0 24 20.5 42t51.5 18t48.5 -20.5
t17.5 -58.5q0 -80 -95 -142z" />
    <glyph glyph-name="Tbar" unicode="&#x166;" horiz-adv-x="827" 
d="M805 770l10 -220h-43q-6 96 -45 132t-123 36q-76 0 -97.5 -6t-21.5 -25v-220h203v-60h-203v-244q0 -68 25 -94t110 -29v-40h-419v40q85 3 111 29t26 94v244h-203v60h203v220q0 19 -19 25t-84 6q-36 0 -57 -2t-48 -11t-41.5 -26t-25.5 -49.5t-12 -79.5h-39l10 220h783z
" />
    <glyph glyph-name="tbar" unicode="&#x167;" horiz-adv-x="385" 
d="M101 475h-73v45q117 34 161 131h51v-121h115v-55h-115v-94h102v-50h-102v-163q0 -61 13.5 -87.5t45.5 -26.5q39 0 59 36l21 -29q-28 -71 -132 -71q-69 0 -107.5 32t-38.5 90v219h-52v50h52v94z" />
    <glyph glyph-name="Utilde" unicode="&#x168;" horiz-adv-x="880" 
d="M757 522v-212q0 -170 -76 -245t-248 -75q-161 0 -235.5 67.5t-74.5 215.5v274q0 132 -18 159q-16 24 -78 24v40h359v-40q-75 0 -93 -22q-13 -16 -18 -49.5t-5 -111.5v-262q0 -113 48.5 -168t149.5 -55q206 0 206 229v231q0 84 -6.5 123t-22.5 58q-26 27 -97 27v40h324
v-40q-67 0 -88 -25q-27 -34 -27 -183zM336 828h-46q10 59 43 96.5t76 37.5q24 0 87 -24q56 -22 79 -22q19 0 30.5 9.5t18.5 32.5h45q-8 -58 -44 -102q-30 -36 -73 -36q-32 0 -85 25q-49 23 -87 23q-17 0 -26.5 -8.5t-17.5 -31.5z" />
    <glyph glyph-name="utilde" unicode="&#x169;" horiz-adv-x="709" 
d="M465 262v104q0 81 -13 99.5t-74 24.5v40h226v-303q0 -116 7 -147q5 -26 20.5 -33t64.5 -7v-39l-199 -12l-11 89h-4q-25 -41 -72.5 -64.5t-105.5 -23.5q-107 0 -163 76q-43 58 -43 165v135q0 46 -1.5 65.5t-11.5 34t-24 17.5t-48 7v40h224v-283q0 -100 25 -146t80 -46
q60 0 91 54q32 52 32 153zM168 660h-46q10 59 43 96.5t76 37.5q24 0 87 -24q56 -22 79 -22q19 0 30.5 9.5t18.5 32.5h45q-8 -58 -44 -102q-30 -36 -73 -36q-32 0 -85 25q-49 23 -87 23q-17 0 -26.5 -9t-17.5 -31z" />
    <glyph glyph-name="Umacron" unicode="&#x16a;" horiz-adv-x="880" 
d="M757 522v-212q0 -170 -76 -245t-248 -75q-161 0 -235.5 67.5t-74.5 215.5v274q0 132 -18 159q-16 24 -78 24v40h359v-40q-75 0 -93 -22q-13 -16 -18 -49.5t-5 -111.5v-262q0 -113 48.5 -168t149.5 -55q206 0 206 229v231q0 84 -6.5 123t-22.5 58q-26 27 -97 27v40h324
v-40q-67 0 -88 -25q-27 -34 -27 -183zM612 865h-284v65h284v-65z" />
    <glyph glyph-name="umacron" unicode="&#x16b;" horiz-adv-x="709" 
d="M465 262v104q0 81 -13 99.5t-74 24.5v40h226v-303q0 -116 7 -147q5 -26 20.5 -33t64.5 -7v-39l-199 -12l-11 89h-4q-25 -41 -72.5 -64.5t-105.5 -23.5q-107 0 -163 76q-43 58 -43 165v135q0 46 -1.5 65.5t-11.5 34t-24 17.5t-48 7v40h224v-283q0 -100 25 -146t80 -46
q60 0 91 54q32 52 32 153zM461 692h-284v65h284v-65z" />
    <glyph glyph-name="Ubreve" unicode="&#x16c;" horiz-adv-x="880" 
d="M757 522v-212q0 -170 -76 -245t-248 -75q-161 0 -235.5 67.5t-74.5 215.5v274q0 132 -18 159q-16 24 -78 24v40h359v-40q-75 0 -93 -22q-13 -16 -18 -49.5t-5 -111.5v-262q0 -113 48.5 -168t149.5 -55q206 0 206 229v231q0 84 -6.5 123t-22.5 58q-26 27 -97 27v40h324
v-40q-67 0 -88 -25q-27 -34 -27 -183zM574 960h44q-4 -57 -46 -93.5t-104 -36.5q-63 0 -105.5 37t-44.5 93h43q9 -19 38 -30t68 -11t68.5 11t38.5 30z" />
    <glyph glyph-name="ubreve" unicode="&#x16d;" horiz-adv-x="709" 
d="M465 262v104q0 81 -13 99.5t-74 24.5v40h226v-303q0 -116 7 -147q5 -26 20.5 -33t64.5 -7v-39l-199 -12l-11 89h-4q-25 -41 -72.5 -64.5t-105.5 -23.5q-107 0 -163 76q-43 58 -43 165v135q0 46 -1.5 65.5t-11.5 34t-24 17.5t-48 7v40h224v-283q0 -100 25 -146t80 -46
q60 0 91 54q32 52 32 153zM425 786h44q-4 -61 -46 -100.5t-104 -39.5q-63 0 -105.5 39.5t-44.5 100.5h43q9 -23 38 -37t68 -14t68.5 14t38.5 37z" />
    <glyph glyph-name="Uring" unicode="&#x16e;" horiz-adv-x="880" 
d="M757 522v-212q0 -170 -76 -245t-248 -75q-161 0 -235.5 67.5t-74.5 215.5v274q0 132 -18 159q-16 24 -78 24v40h359v-40q-75 0 -93 -22q-13 -16 -18 -49.5t-5 -111.5v-262q0 -113 48.5 -168t149.5 -55q206 0 206 229v231q0 84 -6.5 123t-22.5 58q-26 27 -97 27v40h324
v-40q-67 0 -88 -25q-27 -34 -27 -183zM402 895q0 28 19.5 46.5t48.5 18.5t48.5 -18.5t19.5 -46.5t-19.5 -46.5t-48.5 -18.5t-48.5 18.5t-19.5 46.5zM444 895q0 -10 7.5 -17t18.5 -7t18 7t7 17t-7 16.5t-18 6.5t-18.5 -6.5t-7.5 -16.5z" />
    <glyph glyph-name="uring" unicode="&#x16f;" horiz-adv-x="709" 
d="M465 262v104q0 81 -13 99.5t-74 24.5v40h226v-303q0 -116 7 -147q5 -26 20.5 -33t64.5 -7v-39l-199 -12l-11 89h-4q-25 -41 -72.5 -64.5t-105.5 -23.5q-107 0 -163 76q-43 58 -43 165v135q0 46 -1.5 65.5t-11.5 34t-24 17.5t-48 7v40h224v-283q0 -100 25 -146t80 -46
q60 0 91 54q32 52 32 153zM238 742q0 38 25.5 63t64.5 25q40 0 66 -25t26 -63q0 -37 -26 -61.5t-66 -24.5q-39 0 -64.5 24.5t-25.5 61.5zM287 742q0 -16 12 -27.5t29 -11.5q16 0 27.5 11.5t11.5 27.5t-11 26.5t-28 10.5t-29 -10.5t-12 -26.5z" />
    <glyph glyph-name="Uhungarumlaut" unicode="&#x170;" horiz-adv-x="880" 
d="M757 522v-212q0 -170 -76 -245t-248 -75q-161 0 -235.5 67.5t-74.5 215.5v274q0 132 -18 159q-16 24 -78 24v40h359v-40q-75 0 -93 -22q-13 -16 -18 -49.5t-5 -111.5v-262q0 -113 48.5 -168t149.5 -55q206 0 206 229v231q0 84 -6.5 123t-22.5 58q-26 27 -97 27v40h324
v-40q-67 0 -88 -25q-27 -34 -27 -183zM358 830h-73l106 97q36 33 94 33q57 0 57 -37q0 -23 -18.5 -36.5t-69.5 -28.5zM582 830h-73l106 97q36 33 94 33q57 0 57 -37q0 -23 -18.5 -36.5t-69.5 -28.5z" />
    <glyph glyph-name="uhungarumlaut" unicode="&#x171;" horiz-adv-x="709" 
d="M465 262v104q0 81 -13 99.5t-74 24.5v40h226v-303q0 -116 7 -147q5 -26 20.5 -33t64.5 -7v-39l-199 -12l-11 89h-4q-25 -41 -72.5 -64.5t-105.5 -23.5q-107 0 -163 76q-43 58 -43 165v135q0 46 -1.5 65.5t-11.5 34t-24 17.5t-48 7v40h224v-283q0 -100 25 -146t80 -46
q60 0 91 54q32 52 32 153zM191 651h-59l127 119q46 43 85 43q25 0 40 -12t15 -33q0 -16 -17 -29t-52 -28zM428 651h-59l127 119q46 43 85 43q25 0 40 -12t15 -33q0 -16 -17 -29t-52 -28z" />
    <glyph glyph-name="Uogonek" unicode="&#x172;" horiz-adv-x="880" 
d="M541 -116l35 -36q-67 -87 -166 -87q-110 0 -110 88q0 83 128 141q-159 2 -232 69t-73 214v274q0 132 -18 159q-16 24 -78 24v40h359v-40q-75 0 -93 -22q-13 -16 -18 -49.5t-5 -111.5v-262q0 -113 48.5 -168t149.5 -55q206 0 206 229v231q0 84 -6.5 123t-22.5 58
q-26 27 -97 27v40h324v-40q-67 0 -88 -25q-27 -34 -27 -183v-212q0 -148 -57.5 -223.5t-183.5 -91.5q-50 -24 -81.5 -57t-31.5 -62q0 -20 13.5 -32.5t35.5 -12.5q47 0 89 53z" />
    <glyph glyph-name="uogonek" unicode="&#x173;" horiz-adv-x="709" 
d="M606 -116l35 -36q-67 -87 -166 -87q-110 0 -110 88q0 85 131 143l-10 86h-4q-25 -41 -72.5 -64.5t-105.5 -23.5q-107 0 -163 76q-43 58 -43 165v135q0 46 -1.5 65.5t-11.5 34t-24 17.5t-48 7v40h224v-283q0 -100 25 -146t80 -46q60 0 91 54q32 52 32 153v104
q0 81 -13 99.5t-74 24.5v40h226v-303q0 -116 7 -147q5 -26 20.5 -33t64.5 -7v-39l-117 -7q-50 -24 -80.5 -56.5t-30.5 -61.5q0 -20 13.5 -32.5t35.5 -12.5q47 0 89 53z" />
    <glyph glyph-name="Wcircumflex" unicode="&#x174;" horiz-adv-x="1227" 
d="M761 597l126 -403l135 386q24 68 24 100q0 29 -20 39.5t-68 10.5v40h284v-40q-86 0 -115 -81l-241 -659h-89l-174 528l-198 -528h-83l-212 584q-36 99 -66.5 127t-91.5 28v41h378v-41q-49 0 -69 -9.5t-20 -31.5q0 -21 25 -91l140 -403l162 442q-19 53 -42 70t-73 23v41
h353v-41q-43 0 -62.5 -11t-19.5 -40q0 -27 17 -81zM590 960h116l124 -130h-67l-115 49l-115 -49h-67z" />
    <glyph glyph-name="wcircumflex" unicode="&#x175;" horiz-adv-x="891" 
d="M448 345l-135 -355h-75l-137 411q-15 47 -36.5 67t-56.5 22v40h286v-40q-36 -1 -50 -10.5t-14 -32.5q0 -14 11 -54l63 -234h4l140 371h82l105 -371h5l80 207q18 46 18 76q0 48 -63 48v40h215v-40q-36 0 -54.5 -24t-60.5 -130l-138 -346h-79l-106 355h-4zM416 800h104
l120 -149h-52l-120 68l-120 -68h-52z" />
    <glyph glyph-name="Ycircumflex" unicode="&#x176;" horiz-adv-x="760" 
d="M308 276l-207 368q-30 52 -53 69t-62 17v40h336v-40q-76 0 -76 -32q0 -15 25 -62l143 -273h4l126 210q59 99 59 127q0 17 -15.5 23.5t-57.5 6.5v40h251v-40q-44 0 -77.5 -35t-102.5 -152l-146 -250v-102q0 -98 19.5 -124.5t84.5 -26.5v-40h-356v40q64 0 84.5 26t20.5 118
v92zM359 960h116l124 -130h-67l-115 49l-115 -49h-67z" />
    <glyph glyph-name="ycircumflex" unicode="&#x177;" horiz-adv-x="646" 
d="M516 323l-229 -480q-21 -44 -64 -73.5t-87 -29.5q-33 0 -53 16t-20 43q0 50 74 56q89 7 115 56l27 52l-177 438q-23 58 -39 72.5t-55 16.5v40h303v-40q-39 0 -54.5 -8t-15.5 -27q0 -13 9 -40l102 -292h4l86 195q44 101 44 128q0 26 -14.5 35t-58.5 9v40h241v-40
q-39 0 -62.5 -28t-75.5 -139zM317 800h104l120 -149h-52l-120 68l-120 -68h-52z" />
    <glyph glyph-name="Ydieresis" unicode="&#x178;" horiz-adv-x="760" 
d="M308 276l-207 368q-30 52 -53 69t-62 17v40h336v-40q-76 0 -76 -32q0 -15 25 -62l143 -273h4l126 210q59 99 59 127q0 17 -15.5 23.5t-57.5 6.5v40h251v-40q-44 0 -77.5 -35t-102.5 -152l-146 -250v-102q0 -98 19.5 -124.5t84.5 -26.5v-40h-356v40q64 0 84.5 26t20.5 118
v92zM251 903q0 25 17 41t43 16q27 0 44.5 -16t17.5 -41q0 -26 -17.5 -42.5t-44.5 -16.5q-26 0 -43 16.5t-17 42.5zM468 903q0 25 17.5 41t44.5 16q25 0 42.5 -16.5t17.5 -40.5q0 -26 -17.5 -42.5t-42.5 -16.5q-27 0 -44.5 16.5t-17.5 42.5z" />
    <glyph glyph-name="Zacute" unicode="&#x179;" horiz-adv-x="797" 
d="M760 255l-13 -255h-732v23l503 695h-253q-73 0 -110.5 -36.5t-52.5 -115.5h-39l16 204h648v-23l-498 -691h286q105 0 142.5 39.5t56.5 159.5h46zM513 830h-73l-116 28q-50 12 -69 27t-19 38q0 37 57 37q51 0 94 -33z" />
    <glyph glyph-name="zacute" unicode="&#x17a;" horiz-adv-x="568" 
d="M532 170l-12 -170h-494v23l313 454h-92q-86 0 -113.5 -18.5t-39.5 -84.5h-39l12 156h451v-23l-308 -453h88q105 0 140.5 21t54.5 95h39zM275 651h-59l127 119q46 43 85 43q25 0 40 -12t15 -33q0 -16 -17 -29t-52 -28z" />
    <glyph glyph-name="Zdotaccent" unicode="&#x17b;" horiz-adv-x="797" 
d="M760 255l-13 -255h-732v23l503 695h-253q-73 0 -110.5 -36.5t-52.5 -115.5h-39l16 204h648v-23l-498 -691h286q105 0 142.5 39.5t56.5 159.5h46zM326 893q0 27 19.5 46.5t46.5 19.5q29 0 49.5 -19t20.5 -47q0 -26 -20.5 -44.5t-49.5 -18.5q-26 0 -46 19t-20 44z" />
    <glyph glyph-name="zdotaccent" unicode="&#x17c;" horiz-adv-x="568" 
d="M532 170l-12 -170h-494v23l313 454h-92q-86 0 -113.5 -18.5t-39.5 -84.5h-39l12 156h451v-23l-308 -453h88q105 0 140.5 21t54.5 95h39zM250 752q0 33 22.5 55.5t54.5 22.5q33 0 55.5 -22.5t22.5 -55.5q0 -32 -22.5 -54.5t-55.5 -22.5q-32 0 -54.5 22.5t-22.5 54.5z" />
    <glyph glyph-name="Zcaron" unicode="&#x17d;" horiz-adv-x="797" 
d="M760 255l-13 -255h-732v23l503 695h-253q-73 0 -110.5 -36.5t-52.5 -115.5h-39l16 204h648v-23l-498 -691h286q105 0 142.5 39.5t56.5 159.5h46zM454 830h-116l-124 130h67l115 -49l115 49h67z" />
    <glyph glyph-name="zcaron" unicode="&#x17e;" horiz-adv-x="568" 
d="M532 170l-12 -170h-494v23l313 454h-92q-86 0 -113.5 -18.5t-39.5 -84.5h-39l12 156h451v-23l-308 -453h88q105 0 140.5 21t54.5 95h39zM368 651h-104l-120 149h52l120 -68l120 68h52z" />
    <glyph glyph-name="Schwa" unicode="&#x18f;" horiz-adv-x="853" 
d="M107 596l-47 41q124 144 323 144q190 0 307 -107t117 -280q0 -177 -124 -290.5t-318 -113.5q-154 0 -240 79.5t-86 219.5q0 19 8 24t39 5h542q6 16 6 64q0 153 -74 242.5t-199 89.5q-78 0 -135 -26t-119 -92zM618 245h-340q-60 0 -75 -7t-15 -34q0 -66 54.5 -106
t147.5 -40q187 0 228 187z" />
    <glyph glyph-name="florin" unicode="&#x192;" horiz-adv-x="723" 
d="M55 -201q45 0 73 63t54 220l55 343h-110l15 55h105l9 45q24 119 101 187t187 68q71 0 117 -28t46 -71q0 -46 -50 -46q-28 0 -54 29q-34 37 -49.5 47.5t-34.5 10.5q-47 0 -76.5 -47.5t-48.5 -151.5l-8 -43h130l-14 -55h-122l-35 -199q-24 -136 -42.5 -204.5t-44.5 -120.5
q-82 -161 -218 -161q-68 0 -117 30.5t-49 73.5q0 23 14.5 37.5t36.5 14.5q31 0 64 -44q29 -38 38 -45.5t28 -7.5z" />
    <glyph glyph-name="uni01C4" unicode="&#x1c4;" horiz-adv-x="1716" 
d="M452 0h-417v40q67 2 86 22.5t19 91.5v462q0 70 -16 90.5t-73 23.5v40h380q192 0 317 -112.5t125 -285.5q0 -164 -117.5 -268t-303.5 -104zM429 709h-125q-17 0 -17 -17v-517q0 -114 147 -114q131 0 201.5 79.5t70.5 229.5q0 159 -74 249t-203 90zM1679 255l-13 -255h-732
v23l503 695h-253q-73 0 -110.5 -36.5t-52.5 -115.5h-39l16 204h648v-23l-498 -691h286q105 0 142.5 39.5t56.5 159.5h46zM1373 830h-116l-124 130h67l115 -49l115 49h67z" />
    <glyph glyph-name="uni01C5" unicode="&#x1c5;" horiz-adv-x="1487" 
d="M452 0h-417v40q67 2 86 22.5t19 91.5v462q0 70 -16 90.5t-73 23.5v40h380q192 0 317 -112.5t125 -285.5q0 -164 -117.5 -268t-303.5 -104zM429 709h-125q-17 0 -17 -17v-517q0 -114 147 -114q131 0 201.5 79.5t70.5 229.5q0 159 -74 249t-203 90zM1451 170l-12 -170h-494
v23l313 454h-92q-86 0 -113.5 -18.5t-39.5 -84.5h-39l12 156h451v-23l-308 -453h88q105 0 140.5 21t54.5 95h39zM1287 651h-104l-120 149h52l120 -68l120 68h52z" />
    <glyph glyph-name="uni01C6" unicode="&#x1c6;" horiz-adv-x="1262" 
d="M481 -10v74h-4q-69 -74 -179 -74q-114 0 -186.5 76t-72.5 195t72.5 199t180.5 80q104 0 156 -66h4v85q0 132 -6 157q-9 40 -109 40v34l253 40v-572q0 -138 7 -177q4 -26 17.5 -33.5t56.5 -7.5v-39zM450 248v39q0 78 -32 128q-37 59 -106 59q-58 0 -89.5 -54.5
t-31.5 -156.5q0 -104 31 -160t89 -56q33 0 63 17t49 46q27 41 27 138zM1226 170l-12 -170h-494v23l313 454h-92q-86 0 -113.5 -18.5t-39.5 -84.5h-39l12 156h451v-23l-308 -453h88q105 0 140.5 21t54.5 95h39zM1062 651h-104l-120 149h52l120 -68l120 68h52z" />
    <glyph glyph-name="uni01C7" unicode="&#x1c7;" horiz-adv-x="1155" 
d="M740 227l-16 -227h-689v40q67 2 86 23t19 91v462q0 70 -17 90.5t-77 23.5v40h345v-40q-67 -2 -85.5 -23.5t-18.5 -97.5v-419q0 -82 37 -108.5t144 -26.5q117 0 163.5 34t68.5 138h40zM878 -23v639q0 70 -17 90.5t-78 23.5v40h337v-40q-62 -2 -78.5 -23.5t-16.5 -97.5
v-611q0 -126 -65 -192t-190 -66q-88 0 -139 30.5t-51 79.5q0 28 18 44t46 16q22 0 36 -11.5t34 -45.5q19 -32 35 -43.5t40 -11.5q43 0 66 47t23 132z" />
    <glyph glyph-name="uni01C8" unicode="&#x1c8;" horiz-adv-x="1080" 
d="M740 227l-16 -227h-689v40q67 2 86 23t19 91v462q0 70 -17 90.5t-77 23.5v40h345v-40q-67 -2 -85.5 -23.5t-18.5 -97.5v-419q0 -82 37 -108.5t144 -26.5q117 0 163.5 34t68.5 138h40zM995 540v-542q0 -124 -61 -191t-174 -67q-75 0 -119.5 28t-44.5 71q0 24 16 38t38 14
q25 0 42 -15.5t25 -33.5t24.5 -33.5t40.5 -15.5q38 0 56 30t18 99v368q0 104 -8 138q-5 24 -22 32t-63 8v34zM848 752q0 33 22.5 55.5t54.5 22.5q33 0 55.5 -22.5t22.5 -55.5q0 -32 -22.5 -54.5t-55.5 -22.5q-32 0 -54.5 22.5t-22.5 54.5z" />
    <glyph glyph-name="uni01C9" unicode="&#x1c9;" horiz-adv-x="686" 
d="M247 830v-666q0 -80 14.5 -101t72.5 -23v-40h-315v40q56 3 72.5 24.5t16.5 92.5v413q0 116 -7 147q-5 25 -22.5 33t-63.5 8v34zM601 540v-542q0 -124 -61 -191t-174 -67q-75 0 -119.5 28t-44.5 71q0 24 16 38t38 14q25 0 42 -15.5t25 -33.5t24.5 -33.5t40.5 -15.5
q38 0 56 30t18 99v368q0 104 -8 138q-5 24 -22 32t-63 8v34zM454 752q0 33 22.5 55.5t54.5 22.5q33 0 55.5 -22.5t22.5 -55.5q0 -32 -22.5 -54.5t-55.5 -22.5q-32 0 -54.5 22.5t-22.5 54.5z" />
    <glyph glyph-name="uni01CA" unicode="&#x1ca;" horiz-adv-x="1347" 
d="M804 -10h-134l-443 631h-4v-430q0 -98 18 -123.5t86 -27.5v-40h-297v40q74 2 94.5 27t20.5 117v402q0 86 -19.5 113.5t-85.5 30.5v40h279l403 -578h4v387q0 98 -18 123.5t-86 27.5v40h297v-40q-74 -2 -94.5 -27t-20.5 -117v-596zM1070 -23v639q0 70 -17 90.5t-78 23.5v40
h337v-40q-62 -2 -78.5 -23.5t-16.5 -97.5v-611q0 -126 -65 -192t-190 -66q-88 0 -139 30.5t-51 79.5q0 28 18 44t46 16q22 0 36 -11.5t34 -45.5q19 -32 35 -43.5t40 -11.5q43 0 66 47t23 132z" />
    <glyph glyph-name="uni01CB" unicode="&#x1cb;" horiz-adv-x="1256" 
d="M804 -10h-134l-443 631h-4v-430q0 -98 18 -123.5t86 -27.5v-40h-297v40q74 2 94.5 27t20.5 117v402q0 86 -19.5 113.5t-85.5 30.5v40h279l403 -578h4v387q0 98 -18 123.5t-86 27.5v40h297v-40q-74 -2 -94.5 -27t-20.5 -117v-596zM1171 540v-542q0 -124 -61 -191t-174 -67
q-75 0 -119.5 28t-44.5 71q0 24 16 38t38 14q25 0 42 -15.5t25 -33.5t24.5 -33.5t40.5 -15.5q38 0 56 30t18 99v368q0 104 -8 138q-5 24 -22 32t-63 8v34zM1024 752q0 33 22.5 55.5t54.5 22.5q33 0 55.5 -22.5t22.5 -55.5q0 -32 -22.5 -54.5t-55.5 -22.5q-32 0 -54.5 22.5
t-22.5 54.5z" />
    <glyph glyph-name="uni01CC" unicode="&#x1cc;" horiz-adv-x="1058" 
d="M257 301v-138q0 -81 13.5 -100t73.5 -23v-40h-315v40q59 4 74 23t15 93v125q0 115 -7 145q-6 26 -23 34t-63 8v34l193 38l13 -88h4q70 88 177 88q63 0 103 -17.5t71 -58.5q43 -58 43 -160v-141q0 -81 13.5 -100t71.5 -23v-40h-313v40q59 3 74 22.5t15 93.5v136
q0 102 -25.5 142.5t-90.5 40.5q-60 0 -95 -68q-22 -44 -22 -106zM973 540v-542q0 -124 -61 -191t-174 -67q-75 0 -119.5 28t-44.5 71q0 24 16 38t38 14q25 0 42 -15.5t25 -33.5t24.5 -33.5t40.5 -15.5q38 0 56 30t18 99v368q0 104 -8 138q-5 24 -22 32t-63 8v34zM826 752
q0 33 22.5 55.5t54.5 22.5q33 0 55.5 -22.5t22.5 -55.5q0 -32 -22.5 -54.5t-55.5 -22.5q-32 0 -54.5 22.5t-22.5 54.5z" />
    <glyph glyph-name="Oogonek" unicode="&#x1ea;" horiz-adv-x="943" 
d="M555 -116l35 -36q-67 -87 -166 -87q-110 0 -110 88q0 84 130 142q-169 9 -284 120.5t-115 267.5q0 169 123.5 285t303.5 116t303.5 -116t123.5 -285q0 -149 -106.5 -258.5t-266.5 -127.5q-49 -24 -79 -56.5t-30 -60.5q0 -20 13.5 -32.5t35.5 -12.5q47 0 89 53zM472 55
q116 0 184.5 86.5t68.5 234.5q0 156 -68 247.5t-185 91.5t-185 -91.5t-68 -247.5q0 -148 68 -234.5t185 -86.5z" />
    <glyph glyph-name="oogonek" unicode="&#x1eb;" horiz-adv-x="660" 
d="M395 -116l35 -36q-67 -87 -166 -87q-110 0 -110 88q0 85 134 144q-107 13 -179 89.5t-72 186.5q0 117 85 194t206 77t208 -77.5t87 -193.5q0 -110 -74.5 -187.5t-184.5 -89.5q-48 -24 -77.5 -56t-29.5 -60q0 -20 13.5 -32.5t35.5 -12.5q47 0 89 53zM328 482
q-61 0 -97.5 -59t-36.5 -155q0 -99 36.5 -158t97.5 -59q63 0 100.5 59.5t37.5 157.5q0 96 -38 155t-100 59z" />
    <glyph glyph-name="uni01F1" unicode="&#x1f1;" horiz-adv-x="1706" 
d="M452 0h-417v40q67 2 86 22.5t19 91.5v462q0 70 -16 90.5t-73 23.5v40h380q192 0 317 -112.5t125 -285.5q0 -164 -117.5 -268t-303.5 -104zM429 709h-125q-17 0 -17 -17v-517q0 -114 147 -114q131 0 201.5 79.5t70.5 229.5q0 159 -74 249t-203 90zM1669 255l-13 -255h-732
v23l503 695h-253q-73 0 -110.5 -36.5t-52.5 -115.5h-39l16 204h648v-23l-498 -691h286q105 0 142.5 39.5t56.5 159.5h46z" />
    <glyph glyph-name="uni01F2" unicode="&#x1f2;" horiz-adv-x="1482" 
d="M452 0h-417v40q67 2 86 22.5t19 91.5v462q0 70 -16 90.5t-73 23.5v40h380q192 0 317 -112.5t125 -285.5q0 -164 -117.5 -268t-303.5 -104zM429 709h-125q-17 0 -17 -17v-517q0 -114 147 -114q131 0 201.5 79.5t70.5 229.5q0 159 -74 249t-203 90zM1446 170l-12 -170h-494
v23l313 454h-92q-86 0 -113.5 -18.5t-39.5 -84.5h-39l12 156h451v-23l-308 -453h88q105 0 140.5 21t54.5 95h39z" />
    <glyph glyph-name="uni01F3" unicode="&#x1f3;" horiz-adv-x="1262" 
d="M481 -10v74h-4q-69 -74 -179 -74q-114 0 -186.5 76t-72.5 195t72.5 199t180.5 80q104 0 156 -66h4v85q0 132 -6 157q-9 40 -109 40v34l253 40v-572q0 -138 7 -177q4 -26 17.5 -33.5t56.5 -7.5v-39zM450 248v39q0 78 -32 128q-37 59 -106 59q-58 0 -89.5 -54.5
t-31.5 -156.5q0 -104 31 -160t89 -56q33 0 63 17t49 46q27 41 27 138zM1226 170l-12 -170h-494v23l313 454h-92q-86 0 -113.5 -18.5t-39.5 -84.5h-39l12 156h451v-23l-308 -453h88q105 0 140.5 21t54.5 95h39z" />
    <glyph glyph-name="Aringacute" unicode="&#x1fa;" horiz-adv-x="789" 
d="M548 171l-48 108h-274q-67 -143 -67 -192q0 -27 19.5 -38t62.5 -11v-38h-255v38q48 5 71.5 22t43.5 59l273 601h45l268 -580q26 -56 56 -78.5t74 -22.5v-39h-343v39q54 0 77 10.5t23 36.5q0 27 -26 85zM368 574l-118 -245h227zM326 878q0 36 23.5 59t59.5 23q25 0 48 -13
q23 23 49 23q30 0 30 -26t-45 -50q2 -10 2 -16q0 -33 -24 -56t-60 -23q-31 0 -53 17l-34 -15h-56l62 56q-2 6 -2 21zM365 878q0 -18 12.5 -29.5t31.5 -11.5q20 0 32.5 11.5t12.5 29.5q0 19 -12.5 30.5t-32.5 11.5t-32 -11.5t-12 -30.5z" />
    <glyph glyph-name="aringacute" unicode="&#x1fb;" horiz-adv-x="574" 
d="M155 738q0 36 23.5 59t59.5 23q26 0 45 -12q25 32 52 32q18 0 29 -10t11 -26q0 -26 -54 -51q1 -5 1 -15q0 -33 -24 -56t-60 -23q-30 0 -52 17l-30 -15h-66l67 56q-2 7 -2 21zM202 738q0 -14 10 -23.5t26 -9.5t26 9.5t10 23.5q0 15 -10 24.5t-26 9.5t-26 -9.5t-10 -24.5z
M344 190v95q-87 -40 -128 -72t-41 -66q0 -29 16 -46t40 -17q48 0 80.5 30.5t32.5 75.5zM203 277l141 61v42q0 111 -84 111q-28 0 -43.5 -15t-28.5 -52q-19 -53 -71 -53q-28 0 -43 17t-15 48q0 48 54 76t157 28q113 0 160.5 -40.5t47.5 -135.5v-219q0 -85 34 -85q19 0 35 13
l15 -29q-13 -25 -43 -39.5t-67 -14.5q-46 0 -70 28t-24 79h-5q-58 -106 -180 -106q-62 0 -100.5 35.5t-38.5 92.5q0 90 169 158z" />
    <glyph glyph-name="AEacute" unicode="&#x1fc;" horiz-adv-x="1136" 
d="M406 41q67 2 86 23t19 91v119h-248q-64 -114 -77 -143t-13 -48q0 -9 2 -15.5t7.5 -10.5l9.5 -7t13 -4.5t13.5 -2t16 -1.5t15.5 -1v-41h-272v41q48 5 74 22t51 59q3 5 303 552q8 16 8 25q0 13 -19 18t-64 5v48h723v-196h-42q-12 85 -54 114t-148 29h-134q-18 0 -18 -17
v-274q90 0 129.5 9t56 33t22.5 80h37v-293h-37q-9 54 -24 77t-55 33t-129 11v-209q0 -65 37.5 -89.5t137.5 -24.5q109 0 156 36.5t67 137.5h44l-15 -227h-679v41zM297 334h214v387zM612 830h-73l126 97q43 33 94 33q57 0 57 -37q0 -23 -19 -38t-69 -27z" />
    <glyph glyph-name="aeacute" unicode="&#x1fd;" horiz-adv-x="889" 
d="M817 128l28 -35q-97 -103 -231 -103q-170 0 -243 127q-28 -60 -79.5 -93t-116.5 -33q-66 0 -103.5 32.5t-37.5 89.5q0 51 37 88t127 75l146 62v42q0 111 -82 111q-28 0 -42 -12.5t-31 -51.5q-22 -56 -69 -56q-29 0 -45 16.5t-16 45.5q0 107 203 107q138 0 186 -58
q67 58 182 58q106 0 164.5 -58t58.5 -165q0 -12 -4.5 -14.5t-27.5 -2.5h-329q-4 -9 -4 -40q0 -100 41.5 -152.5t120.5 -52.5t167 73zM344 197v89q-94 -45 -131.5 -77t-37.5 -66q0 -27 18 -43t48 -16q44 0 73.5 32.5t29.5 80.5zM499 356h153q41 0 51.5 5t10.5 24q0 43 -25 70
t-66 27q-43 0 -76.5 -33.5t-47.5 -92.5zM394 651h-59l127 119q46 43 85 43q25 0 40 -12t15 -33q0 -16 -17 -29t-52 -28z" />
    <glyph glyph-name="Oslashacute" unicode="&#x1fe;" horiz-adv-x="943" 
d="M472 780q128 0 235 -64l95 114h89l-128 -154q64 -56 100 -132.5t36 -164.5q0 -163 -124 -276t-303 -113q-124 0 -229 59l-108 -130h-88l140 169q-67 54 -104.5 129.5t-37.5 161.5q0 169 123.5 285t303.5 116zM219 376q0 -117 43 -197l382 460q-67 76 -172 76
q-117 0 -185 -91.5t-68 -247.5zM472 55q116 0 184.5 86.5t68.5 234.5q0 118 -42 204l-379 -458q65 -67 168 -67zM456 830h-73l126 97q43 33 94 33q57 0 57 -37q0 -23 -19 -38t-69 -27z" />
    <glyph glyph-name="oslashacute" unicode="&#x1ff;" horiz-adv-x="658" 
d="M327 540q86 0 159 -42l78 94h82l-109 -131q85 -78 85 -192q0 -120 -87 -199.5t-208 -79.5q-80 0 -150 38l-74 -89h-81l104 126q-90 80 -90 204q0 117 85 194t206 77zM327 482q-61 0 -97.5 -59t-36.5 -155q0 -59 14 -106l218 263q-38 57 -98 57zM465 268q0 52 -12 92
l-217 -261q36 -48 91 -48q63 0 100.5 59.5t37.5 157.5zM325 651h-59l127 119q46 43 85 43q25 0 40 -12t15 -33q0 -16 -17 -29t-52 -28z" />
    <glyph glyph-name="uni0218" unicode="&#x218;" horiz-adv-x="663" 
d="M69 0l-15 255h39q13 -94 75.5 -149t153.5 -55q75 0 121 34t46 90q0 47 -36 76t-152 72q-229 87 -229 245q0 94 69 153t178 59q99 0 185 -64l18 50h24l11 -216h-39q-24 81 -75 125t-118 44q-61 0 -100 -30.5t-39 -78.5q0 -43 33 -69t137 -65q139 -53 200.5 -113.5
t61.5 -143.5q0 -101 -83.5 -165t-214.5 -64q-111 0 -207 70l-20 -60h-24zM290 -250l-28 31q58 32 58 72q-10 -8 -27 -8q-19 0 -32.5 14t-13.5 36q0 24 20.5 42t51.5 18t48.5 -20.5t17.5 -58.5q0 -72 -95 -126z" />
    <glyph glyph-name="uni0219" unicode="&#x219;" horiz-adv-x="466" 
d="M107 35l-22 -35h-31v182h42q17 -71 49 -104.5t83 -33.5q37 0 57.5 15.5t20.5 42.5q0 54 -106 111q-76 41 -109 81.5t-33 91.5q0 67 46.5 111t116.5 44q66 0 115 -34l18 24h26v-151h-39q-23 57 -48 82t-59 25q-28 0 -44.5 -15t-16.5 -40q0 -28 25 -53t81 -55
q81 -44 116 -85.5t35 -95.5q0 -69 -50 -111t-132 -42q-91 0 -141 45zM209 -249l-28 31q58 32 58 72q-10 -8 -27 -8q-19 0 -32.5 14t-13.5 36q0 24 20.5 42t51.5 18t48.5 -20.5t17.5 -58.5q0 -72 -95 -126z" />
    <glyph glyph-name="uni021A" unicode="&#x21a;" horiz-adv-x="827" 
d="M805 770l10 -220h-43q-6 96 -45 132t-123 36q-76 0 -97.5 -6t-21.5 -25v-524q0 -68 25 -94t110 -29v-40h-419v40q85 3 111 29t26 94v524q0 19 -19 25t-84 6q-36 0 -57 -2t-48 -11t-41.5 -26t-25.5 -49.5t-12 -79.5h-39l10 220h783zM381 -250l-28 31q58 32 58 72
q-10 -8 -27 -8q-19 0 -32.5 14t-13.5 36q0 24 20.5 42t51.5 18t48.5 -20.5t17.5 -58.5q0 -72 -95 -126z" />
    <glyph glyph-name="uni021B" unicode="&#x21b;" horiz-adv-x="382" 
d="M98 475h-73v45q117 34 161 131h51v-121h115v-55h-115v-307q0 -61 13.5 -87.5t45.5 -26.5q39 0 59 36l21 -29q-28 -71 -132 -71q-69 0 -107.5 32t-38.5 90v363zM170 -250l-28 31q58 32 58 72q-10 -8 -27 -8q-19 0 -32.5 14t-13.5 36q0 24 20.5 42t51.5 18t48.5 -20.5
t17.5 -58.5q0 -72 -95 -126z" />
    <glyph glyph-name="dotlessj" unicode="&#x237;" horiz-adv-x="331" 
d="M246 540v-542q0 -124 -61 -191t-174 -67q-75 0 -119.5 28t-44.5 71q0 24 16 38t38 14q25 0 42 -15.5t25 -33.5t24.5 -33.5t40.5 -15.5q38 0 56 30t18 99v368q0 104 -8 138q-5 24 -22 32t-63 8v34z" />
    <glyph glyph-name="schwa" unicode="&#x259;" horiz-adv-x="586" 
d="M74 402l-28 35q91 103 227 103q123 0 199 -74.5t76 -193.5q0 -124 -80.5 -203t-206.5 -79q-106 0 -165 63t-59 174q0 16 5 19.5t28 3.5h322q4 9 4 33q0 88 -42.5 140t-115.5 52q-83 0 -164 -73zM385 194h-145q-41 0 -52 -4.5t-11 -21.5q0 -54 23.5 -87t64.5 -33
q50 0 84 41t36 105z" />
    <glyph glyph-name="apostrophe" unicode="&#x2bc;" horiz-adv-x="204" 
d="M123 596h-41q-3 16 -19 87q-17 68 -17 88q0 25 16 42t40 17t40 -17t16 -43q0 -19 -17 -87q-13 -53 -18 -87z" />
    <glyph glyph-name="circumflex" unicode="&#x2c6;" horiz-adv-x="386" 
d="M141 800h104l120 -149h-52l-120 68l-120 -68h-52z" />
    <glyph glyph-name="caron" unicode="&#x2c7;" horiz-adv-x="386" 
d="M245 651h-104l-120 149h52l120 -68l120 68h52z" />
    <glyph glyph-name="breve" unicode="&#x2d8;" horiz-adv-x="332" 
d="M272 786h44q-4 -61 -46 -100.5t-104 -39.5q-63 0 -105.5 39.5t-44.5 100.5h43q9 -23 38 -37t68 -14t68.5 14t38.5 37z" />
    <glyph glyph-name="dotaccent" unicode="&#x2d9;" horiz-adv-x="195" 
d="M20 752q0 33 22.5 55.5t54.5 22.5q33 0 55.5 -22.5t22.5 -55.5q0 -32 -22.5 -54.5t-55.5 -22.5q-32 0 -54.5 22.5t-22.5 54.5z" />
    <glyph glyph-name="ring" unicode="&#x2da;" horiz-adv-x="224" 
d="M21 742q0 38 25.5 63t64.5 25q40 0 66 -25t26 -63q0 -37 -26 -61.5t-66 -24.5q-39 0 -64.5 24.5t-25.5 61.5zM70 742q0 -16 12 -27.5t29 -11.5t28 11.5t11 27.5t-11 26.5t-28 10.5t-29 -10.5t-12 -26.5z" />
    <glyph glyph-name="ogonek" unicode="&#x2db;" horiz-adv-x="278" 
d="M231 -116l35 -36q-67 -87 -166 -87q-110 0 -110 88q0 46 43 86.5t122 69.5h62v-5q-55 -24 -89.5 -58.5t-34.5 -65.5q0 -20 13.5 -32.5t35.5 -12.5q47 0 89 53z" />
    <glyph glyph-name="tilde" unicode="&#x2dc;" horiz-adv-x="401" 
d="M57 660h-46q10 59 43 96.5t76 37.5q24 0 87 -24q56 -22 79 -22q19 0 30.5 9.5t18.5 32.5h45q-8 -58 -44 -102q-30 -36 -73 -36q-32 0 -85 25q-49 23 -87 23q-17 0 -27 -9t-17 -31z" />
    <glyph glyph-name="hungarumlaut" unicode="&#x2dd;" horiz-adv-x="536" 
d="M75 651h-59l127 119q46 43 85 43q25 0 40 -12t15 -33q0 -16 -17 -29t-52 -28zM312 651h-59l127 119q46 43 85 43q25 0 40 -12t15 -33q0 -16 -17 -29t-52 -28z" />
    <glyph glyph-name="uni03BC" unicode="&#x3bc;" horiz-adv-x="720" 
d="M192 92l-4 -1q21 -69 42 -158t21 -122t-18.5 -52t-50.5 -19q-33 0 -55 23.5t-22 58.5v543q0 82 -12.5 101t-72.5 24v40h224v-273q0 -106 24.5 -154t78.5 -48q37 0 61 16.5t42 56.5q23 58 23 144v93q0 81 -13 100t-74 25v40h225v-307q0 -109 7 -143q5 -25 20.5 -32.5
t64.5 -7.5v-39l-199 -12l-11 89h-4q-21 -47 -56.5 -67.5t-89.5 -20.5q-100 0 -151 102z" />
    <glyph glyph-name="Ddotbelow" unicode="&#x1e0c;" horiz-adv-x="919" 
d="M452 0h-417v40q67 2 86 22.5t19 91.5v462q0 70 -16 90.5t-73 23.5v40h380q192 0 317 -112.5t125 -285.5q0 -164 -117.5 -268t-303.5 -104zM429 709h-125q-17 0 -17 -17v-517q0 -114 147 -114q131 0 201.5 79.5t70.5 229.5q0 159 -74 249t-203 90zM371 -165
q0 33 22.5 55.5t54.5 22.5q33 0 55.5 -22.5t22.5 -55.5q0 -32 -22.5 -54.5t-55.5 -22.5q-32 0 -54.5 22.5t-22.5 54.5z" />
    <glyph glyph-name="ddotbelow" unicode="&#x1e0d;" horiz-adv-x="694" 
d="M481 -10v74h-4q-69 -74 -179 -74q-114 0 -186.5 76t-72.5 195t72.5 199t180.5 80q104 0 156 -66h4v85q0 132 -6 157q-9 40 -109 40v34l253 40v-572q0 -138 7 -177q4 -26 17.5 -33.5t56.5 -7.5v-39zM450 248v39q0 78 -32 128q-37 59 -106 59q-58 0 -89.5 -54.5
t-31.5 -156.5q0 -104 31 -160t89 -56q33 0 63 17t49 46q27 41 27 138zM272 -165q0 33 22.5 55.5t54.5 22.5q33 0 55.5 -22.5t22.5 -55.5q0 -32 -22.5 -54.5t-55.5 -22.5q-32 0 -54.5 22.5t-22.5 54.5z" />
    <glyph glyph-name="Hdotbelow" unicode="&#x1e24;" horiz-adv-x="945" 
d="M805 609v-448q0 -76 18.5 -97.5t86.5 -23.5v-40h-367v40q73 2 94 22.5t21 91.5v209h-371v-202q0 -76 20 -97.5t94 -23.5v-40h-366v40q67 2 86 22.5t19 91.5v462q0 70 -16.5 90.5t-77.5 23.5v40h345v-40q-67 -2 -85.5 -23.5t-18.5 -97.5v-184h371v191q0 70 -19 90.5
t-86 23.5v40h346v-40q-61 -2 -77.5 -23.5t-16.5 -97.5zM420 -165q0 33 22.5 55.5t54.5 22.5q33 0 55.5 -22.5t22.5 -55.5q0 -32 -22.5 -54.5t-55.5 -22.5q-32 0 -54.5 22.5t-22.5 54.5z" />
    <glyph glyph-name="hdotbelow" unicode="&#x1e25;" horiz-adv-x="714" 
d="M244 297v-133q0 -82 13.5 -101t73.5 -23v-40h-315v40q61 4 75 22.5t14 94.5v411q0 113 -7 147q-5 25 -19.5 32.5t-59.5 7.5v37l223 38v-369h4q60 79 162 79q98 0 152 -60q56 -64 56 -161v-155q0 -46 1.5 -66.5t11.5 -35t24.5 -17.5t47.5 -5v-40h-313v40q60 3 74.5 22
t14.5 95v123q0 107 -23 150.5t-79 43.5q-60 0 -95 -44q-36 -49 -36 -133zM281 -165q0 33 22.5 55.5t54.5 22.5q33 0 55.5 -22.5t22.5 -55.5q0 -32 -22.5 -54.5t-55.5 -22.5q-32 0 -54.5 22.5t-22.5 54.5z" />
    <glyph glyph-name="Ndotaccent" unicode="&#x1e44;" horiz-adv-x="940" 
d="M804 -10h-134l-443 631h-4v-430q0 -98 18 -123.5t86 -27.5v-40h-297v40q74 2 94.5 27t20.5 117v402q0 86 -19.5 113.5t-85.5 30.5v40h279l403 -578h4v387q0 98 -18 123.5t-86 27.5v40h297v-40q-74 -2 -94.5 -27t-20.5 -117v-596zM422 893q0 27 19.5 46.5t46.5 19.5
q29 0 49.5 -19t20.5 -47q0 -26 -20.5 -44.5t-49.5 -18.5q-26 0 -46 19t-20 44z" />
    <glyph glyph-name="ndotaccent" unicode="&#x1e45;" horiz-adv-x="727" 
d="M257 301v-138q0 -81 13.5 -100t73.5 -23v-40h-315v40q59 4 74 23t15 93v125q0 115 -7 145q-6 26 -23 34t-63 8v34l193 38l13 -88h4q70 88 177 88q63 0 103 -17.5t71 -58.5q43 -58 43 -160v-141q0 -81 13.5 -100t71.5 -23v-40h-313v40q59 3 74 22.5t15 93.5v136
q0 102 -25.5 142.5t-90.5 40.5q-60 0 -95 -68q-22 -44 -22 -106zM305 752q0 33 22.5 55.5t54.5 22.5q33 0 55.5 -22.5t22.5 -55.5q0 -32 -22.5 -54.5t-55.5 -22.5q-32 0 -54.5 22.5t-22.5 54.5z" />
    <glyph glyph-name="Rdotbelow" unicode="&#x1e5a;" horiz-adv-x="815" 
d="M695 577q0 -178 -201 -214l232 -266q49 -57 124 -57v-40h-237l-248 304q-42 51 -78 51v-196q0 -75 25.5 -97t119.5 -22v-40h-397v40q66 0 85.5 21.5t19.5 92.5v462q0 70 -16.5 90.5t-77.5 23.5v40h346q144 0 223.5 -51t79.5 -142zM287 697v-282h65q95 0 141 37.5
t46 119.5q0 64 -39.5 103t-107.5 39h-87q-18 0 -18 -17zM360 -165q0 33 22.5 55.5t54.5 22.5q33 0 55.5 -22.5t22.5 -55.5q0 -32 -22.5 -54.5t-55.5 -22.5q-32 0 -54.5 22.5t-22.5 54.5z" />
    <glyph glyph-name="rdotbelow" unicode="&#x1e5b;" horiz-adv-x="498" 
d="M258 203v-48q0 -77 18 -95.5t88 -19.5v-40h-334v40q61 4 75 22.5t14 94.5v122q0 124 -16 156.5t-77 32.5v35l200 37l16 -115h4q27 53 71 84t93 31q38 0 62 -19t24 -48q0 -33 -19 -54.5t-50 -21.5q-22 0 -48.5 20t-38.5 20q-19 0 -36 -25t-28 -67q-18 -65 -18 -142z
M112 -165q0 33 22.5 55.5t54.5 22.5q33 0 55.5 -22.5t22.5 -55.5q0 -32 -22.5 -54.5t-55.5 -22.5q-32 0 -54.5 22.5t-22.5 54.5z" />
    <glyph glyph-name="Sdotbelow" unicode="&#x1e62;" horiz-adv-x="663" 
d="M69 0l-15 255h39q13 -94 75.5 -149t153.5 -55q75 0 121 34t46 90q0 47 -36 76t-152 72q-229 87 -229 245q0 94 69 153t178 59q99 0 185 -64l18 50h24l11 -216h-39q-24 81 -75 125t-118 44q-61 0 -100 -30.5t-39 -78.5q0 -43 33 -69t137 -65q139 -53 200.5 -113.5
t61.5 -143.5q0 -101 -83.5 -165t-214.5 -64q-111 0 -207 70l-20 -60h-24zM244 -165q0 33 22.5 55.5t54.5 22.5q33 0 55.5 -22.5t22.5 -55.5q0 -32 -22.5 -54.5t-55.5 -22.5q-32 0 -54.5 22.5t-22.5 54.5z" />
    <glyph glyph-name="sdotbelow" unicode="&#x1e63;" horiz-adv-x="466" 
d="M107 35l-22 -35h-31v182h42q17 -71 49 -104.5t83 -33.5q37 0 57.5 15.5t20.5 42.5q0 54 -106 111q-76 41 -109 81.5t-33 91.5q0 67 46.5 111t116.5 44q66 0 115 -34l18 24h26v-151h-39q-23 57 -48 82t-59 25q-28 0 -44.5 -15t-16.5 -40q0 -28 25 -53t81 -55
q81 -44 116 -85.5t35 -95.5q0 -69 -50 -111t-132 -42q-91 0 -141 45zM162 -164q0 33 22.5 55.5t54.5 22.5q33 0 55.5 -22.5t22.5 -55.5q0 -32 -22.5 -54.5t-55.5 -22.5q-32 0 -54.5 22.5t-22.5 54.5z" />
    <glyph glyph-name="Tdotbelow" unicode="&#x1e6c;" horiz-adv-x="827" 
d="M805 770l10 -220h-43q-6 96 -45 132t-123 36q-76 0 -97.5 -6t-21.5 -25v-524q0 -68 25 -94t110 -29v-40h-419v40q85 3 111 29t26 94v524q0 19 -19 25t-84 6q-36 0 -57 -2t-48 -11t-41.5 -26t-25.5 -49.5t-12 -79.5h-39l10 220h783zM335 -165q0 33 22.5 55.5t54.5 22.5
q33 0 55.5 -22.5t22.5 -55.5q0 -32 -22.5 -54.5t-55.5 -22.5q-32 0 -54.5 22.5t-22.5 54.5z" />
    <glyph glyph-name="tdotbelow" unicode="&#x1e6d;" horiz-adv-x="382" 
d="M98 475h-73v45q117 34 161 131h51v-121h115v-55h-115v-307q0 -61 13.5 -87.5t45.5 -26.5q39 0 59 36l21 -29q-28 -71 -132 -71q-69 0 -107.5 32t-38.5 90v363zM133 -165q0 33 22.5 55.5t54.5 22.5q33 0 55.5 -22.5t22.5 -55.5q0 -32 -22.5 -54.5t-55.5 -22.5
q-32 0 -54.5 22.5t-22.5 54.5z" />
    <glyph glyph-name="Wgrave" unicode="&#x1e80;" horiz-adv-x="1227" 
d="M761 597l126 -403l135 386q24 68 24 100q0 29 -20 39.5t-68 10.5v40h284v-40q-86 0 -115 -81l-241 -659h-89l-174 528l-198 -528h-83l-212 584q-36 99 -66.5 127t-91.5 28v41h378v-41q-49 0 -69 -9.5t-20 -31.5q0 -21 25 -91l140 -403l162 442q-19 53 -42 70t-73 23v41
h353v-41q-43 0 -62.5 -11t-19.5 -40q0 -27 17 -81zM746 830h-73l-116 28q-50 12 -69 27t-19 38q0 37 57 37q51 0 94 -33z" />
    <glyph glyph-name="wgrave" unicode="&#x1e81;" horiz-adv-x="891" 
d="M448 345l-135 -355h-75l-137 411q-15 47 -36.5 67t-56.5 22v40h286v-40q-36 -1 -50 -10.5t-14 -32.5q0 -14 11 -54l63 -234h4l140 371h82l105 -371h5l80 207q18 46 18 76q0 48 -63 48v40h215v-40q-36 0 -54.5 -24t-60.5 -130l-138 -346h-79l-106 355h-4zM588 651h-64
l-134 60q-36 16 -52.5 28.5t-16.5 28.5q0 21 15 33t40 12q39 0 85 -43z" />
    <glyph glyph-name="Wacute" unicode="&#x1e82;" horiz-adv-x="1227" 
d="M761 597l126 -403l135 386q24 68 24 100q0 29 -20 39.5t-68 10.5v40h284v-40q-86 0 -115 -81l-241 -659h-89l-174 528l-198 -528h-83l-212 584q-36 99 -66.5 127t-91.5 28v41h378v-41q-49 0 -69 -9.5t-20 -31.5q0 -21 25 -91l140 -403l162 442q-19 53 -42 70t-73 23v41
h353v-41q-43 0 -62.5 -11t-19.5 -40q0 -27 17 -81zM587 830h-73l126 97q43 33 94 33q57 0 57 -37q0 -23 -19 -38t-69 -27z" />
    <glyph glyph-name="wacute" unicode="&#x1e83;" horiz-adv-x="891" 
d="M448 345l-135 -355h-75l-137 411q-15 47 -36.5 67t-56.5 22v40h286v-40q-36 -1 -50 -10.5t-14 -32.5q0 -14 11 -54l63 -234h4l140 371h82l105 -371h5l80 207q18 46 18 76q0 48 -63 48v40h215v-40q-36 0 -54.5 -24t-60.5 -130l-138 -346h-79l-106 355h-4zM428 651h-59
l127 119q46 43 85 43q25 0 40 -12t15 -33q0 -16 -17 -29t-52 -28z" />
    <glyph glyph-name="Wdieresis" unicode="&#x1e84;" horiz-adv-x="1227" 
d="M761 597l126 -403l135 386q24 68 24 100q0 29 -20 39.5t-68 10.5v40h284v-40q-86 0 -115 -81l-241 -659h-89l-174 528l-198 -528h-83l-212 584q-36 99 -66.5 127t-91.5 28v41h378v-41q-49 0 -69 -9.5t-20 -31.5q0 -21 25 -91l140 -403l162 442q-19 53 -42 70t-73 23v41
h353v-41q-43 0 -62.5 -11t-19.5 -40q0 -27 17 -81zM480 903q0 25 17 41t43 16q27 0 44.5 -16t17.5 -41q0 -26 -17.5 -42.5t-44.5 -16.5q-26 0 -43 16.5t-17 42.5zM697 903q0 25 17.5 41t44.5 16q25 0 42.5 -16.5t17.5 -40.5q0 -26 -17.5 -42.5t-42.5 -16.5q-27 0 -44.5 16.5
t-17.5 42.5z" />
    <glyph glyph-name="wdieresis" unicode="&#x1e85;" horiz-adv-x="891" 
d="M448 345l-135 -355h-75l-137 411q-15 47 -36.5 67t-56.5 22v40h286v-40q-36 -1 -50 -10.5t-14 -32.5q0 -14 11 -54l63 -234h4l140 371h82l105 -371h5l80 207q18 46 18 76q0 48 -63 48v40h215v-40q-36 0 -54.5 -24t-60.5 -130l-138 -346h-79l-106 355h-4zM319 740
q0 28 18.5 46.5t45.5 18.5q28 0 46.5 -18.5t18.5 -46.5q0 -27 -18.5 -45.5t-46.5 -18.5q-27 0 -45.5 18.5t-18.5 45.5zM515 740q0 28 18.5 46.5t45.5 18.5q28 0 46.5 -18.5t18.5 -46.5q0 -27 -18.5 -45.5t-46.5 -18.5q-27 0 -45.5 18.5t-18.5 45.5z" />
    <glyph glyph-name="Zdotbelow" unicode="&#x1e92;" horiz-adv-x="797" 
d="M760 255l-13 -255h-732v23l503 695h-253q-73 0 -110.5 -36.5t-52.5 -115.5h-39l16 204h648v-23l-498 -691h286q105 0 142.5 39.5t56.5 159.5h46zM318 -165q0 33 22.5 55.5t54.5 22.5q33 0 55.5 -22.5t22.5 -55.5q0 -32 -22.5 -54.5t-55.5 -22.5q-32 0 -54.5 22.5
t-22.5 54.5z" />
    <glyph glyph-name="zdotbelow" unicode="&#x1e93;" horiz-adv-x="568" 
d="M532 170l-12 -170h-494v23l313 454h-92q-86 0 -113.5 -18.5t-39.5 -84.5h-39l12 156h451v-23l-308 -453h88q105 0 140.5 21t54.5 95h39zM226 -165q0 33 22.5 55.5t54.5 22.5q33 0 55.5 -22.5t22.5 -55.5q0 -32 -22.5 -54.5t-55.5 -22.5q-32 0 -54.5 22.5t-22.5 54.5z" />
    <glyph glyph-name="Edotbelow" unicode="&#x1eb8;" horiz-adv-x="764" 
d="M287 680v-254q129 0 164 20.5t44 101.5h37v-293h-37q-5 35 -12.5 54.5t-19.5 34t-36.5 20.5t-55 8.5t-84.5 2.5v-206q0 -65 37 -89.5t134 -24.5q114 0 162 36t69 138h40l-16 -229h-678v40q67 2 86 23t19 91v462q0 70 -17 90.5t-77 23.5v40h632l7 -196h-43
q-13 84 -55 113.5t-149 29.5h-113q-25 0 -31.5 -6.5t-6.5 -30.5zM325 -165q0 33 22.5 55.5t54.5 22.5q33 0 55.5 -22.5t22.5 -55.5q0 -32 -22.5 -54.5t-55.5 -22.5q-32 0 -54.5 22.5t-22.5 54.5z" />
    <glyph glyph-name="edotbelow" unicode="&#x1eb9;" 
d="M512 128l28 -35q-91 -103 -227 -103q-123 0 -199 74.5t-76 193.5q0 124 80.5 203t206.5 79q106 0 165 -57.5t59 -159.5q0 -16 -5 -19.5t-28 -3.5h-322q-4 -9 -4 -33q0 -98 42.5 -155t115.5 -57q83 0 164 73zM201 356h145q41 0 52 4.5t11 21.5q0 43 -25 71.5t-63 28.5
q-43 0 -76.5 -35.5t-43.5 -90.5zM235 -165q0 33 22.5 55.5t54.5 22.5q33 0 55.5 -22.5t22.5 -55.5q0 -32 -22.5 -54.5t-55.5 -22.5q-32 0 -54.5 22.5t-22.5 54.5z" />
    <glyph glyph-name="Etilde" unicode="&#x1ebc;" horiz-adv-x="764" 
d="M287 680v-254q129 0 164 20.5t44 101.5h37v-293h-37q-5 35 -12.5 54.5t-19.5 34t-36.5 20.5t-55 8.5t-84.5 2.5v-206q0 -65 37 -89.5t134 -24.5q114 0 162 36t69 138h40l-16 -229h-678v40q67 2 86 23t19 91v462q0 70 -17 90.5t-77 23.5v40h632l7 -196h-43
q-13 84 -55 113.5t-149 29.5h-113q-25 0 -31.5 -6.5t-6.5 -30.5zM259 828h-46q10 59 43 96.5t76 37.5q24 0 87 -24q56 -22 79 -22q19 0 30.5 9.5t18.5 32.5h45q-8 -58 -44 -102q-30 -36 -73 -36q-32 0 -85 25q-49 23 -87 23q-17 0 -26.5 -8.5t-17.5 -31.5z" />
    <glyph glyph-name="etilde" unicode="&#x1ebd;" 
d="M512 128l28 -35q-91 -103 -227 -103q-123 0 -199 74.5t-76 193.5q0 124 80.5 203t206.5 79q106 0 165 -57.5t59 -159.5q0 -16 -5 -19.5t-28 -3.5h-322q-4 -9 -4 -33q0 -98 42.5 -155t115.5 -57q83 0 164 73zM201 356h145q41 0 52 4.5t11 21.5q0 43 -25 71.5t-63 28.5
q-43 0 -76.5 -35.5t-43.5 -90.5zM173 660h-46q10 59 43 96.5t76 37.5q24 0 87 -24q56 -22 79 -22q19 0 30.5 9.5t18.5 32.5h45q-8 -58 -44 -102q-30 -36 -73 -36q-32 0 -85 25q-49 23 -87 23q-17 0 -27 -9t-17 -31z" />
    <glyph glyph-name="Idotbelow" unicode="&#x1eca;" horiz-adv-x="429" 
d="M393 40v-40h-357v40q68 2 86.5 27t18.5 117v402q0 86 -17.5 113.5t-77.5 30.5v40h337v-40q-60 -3 -77.5 -30.5t-17.5 -113.5v-402q0 -92 18.5 -117t86.5 -27zM136 -165q0 33 22.5 55.5t54.5 22.5q33 0 55.5 -22.5t22.5 -55.5q0 -32 -22.5 -54.5t-55.5 -22.5
q-32 0 -54.5 22.5t-22.5 54.5z" />
    <glyph glyph-name="idotbelow" unicode="&#x1ecb;" horiz-adv-x="361" 
d="M257 540v-376q0 -80 14.5 -101t72.5 -23v-40h-315v40q56 3 72.5 24.5t16.5 92.5v123q0 116 -7 147q-5 25 -22.5 33t-63.5 8v34zM110 752q0 33 22.5 55.5t54.5 22.5q33 0 55.5 -22.5t22.5 -55.5q0 -32 -22.5 -54.5t-55.5 -22.5q-32 0 -54.5 22.5t-22.5 54.5zM110 -165
q0 33 22.5 55.5t54.5 22.5q33 0 55.5 -22.5t22.5 -55.5q0 -32 -22.5 -54.5t-55.5 -22.5q-32 0 -54.5 22.5t-22.5 54.5z" />
    <glyph glyph-name="Odotbelow" unicode="&#x1ecc;" horiz-adv-x="944" 
d="M472 780q180 0 303.5 -116t123.5 -285q0 -163 -124 -276t-303 -113t-303 113t-124 276q0 169 123.5 285t303.5 116zM472 55q116 0 184.5 86.5t68.5 234.5q0 156 -68 247.5t-185 91.5t-185 -91.5t-68 -247.5q0 -148 68 -234.5t185 -86.5zM405 -165q0 33 22.5 55.5
t54.5 22.5q33 0 55.5 -22.5t22.5 -55.5q0 -32 -22.5 -54.5t-55.5 -22.5q-32 0 -54.5 22.5t-22.5 54.5z" />
    <glyph glyph-name="odotbelow" unicode="&#x1ecd;" horiz-adv-x="660" 
d="M328 540q121 0 208 -77.5t87 -193.5q0 -120 -87 -199.5t-208 -79.5t-206 79.5t-85 199.5q0 117 85 194t206 77zM328 482q-61 0 -97.5 -59t-36.5 -155q0 -99 36.5 -158t97.5 -59q63 0 100.5 59.5t37.5 157.5q0 96 -38 155t-100 59zM251 -165q0 33 22.5 55.5t54.5 22.5
q33 0 55.5 -22.5t22.5 -55.5q0 -32 -22.5 -54.5t-55.5 -22.5q-32 0 -54.5 22.5t-22.5 54.5z" />
    <glyph glyph-name="Udotbelow" unicode="&#x1ee4;" horiz-adv-x="880" 
d="M757 522v-212q0 -170 -76 -245t-248 -75q-161 0 -235.5 67.5t-74.5 215.5v274q0 132 -18 159q-16 24 -78 24v40h359v-40q-75 0 -93 -22q-13 -16 -18 -49.5t-5 -111.5v-262q0 -113 48.5 -168t149.5 -55q206 0 206 229v231q0 84 -6.5 123t-22.5 58q-26 27 -97 27v40h324
v-40q-67 0 -88 -25q-27 -34 -27 -183zM395 -165q0 33 22.5 55.5t54.5 22.5q33 0 55.5 -22.5t22.5 -55.5q0 -32 -22.5 -54.5t-55.5 -22.5q-32 0 -54.5 22.5t-22.5 54.5z" />
    <glyph glyph-name="udotbelow" unicode="&#x1ee5;" horiz-adv-x="709" 
d="M465 262v104q0 81 -13 99.5t-74 24.5v40h226v-303q0 -116 7 -147q5 -26 20.5 -33t64.5 -7v-39l-199 -12l-11 89h-4q-25 -41 -72.5 -64.5t-105.5 -23.5q-107 0 -163 76q-43 58 -43 165v135q0 46 -1.5 65.5t-11.5 34t-24 17.5t-48 7v40h224v-283q0 -100 25 -146t80 -46
q60 0 91 54q32 52 32 153zM249 -165q0 33 22.5 55.5t54.5 22.5q33 0 55.5 -22.5t22.5 -55.5q0 -32 -22.5 -54.5t-55.5 -22.5q-32 0 -54.5 22.5t-22.5 54.5z" />
    <glyph glyph-name="Ygrave" unicode="&#x1ef2;" horiz-adv-x="760" 
d="M308 276l-207 368q-30 52 -53 69t-62 17v40h336v-40q-76 0 -76 -32q0 -15 25 -62l143 -273h4l126 210q59 99 59 127q0 17 -15.5 23.5t-57.5 6.5v40h251v-40q-44 0 -77.5 -35t-102.5 -152l-146 -250v-102q0 -98 19.5 -124.5t84.5 -26.5v-40h-356v40q64 0 84.5 26t20.5 118
v92zM509 830h-73l-116 28q-50 12 -69 27t-19 38q0 37 57 37q51 0 94 -33z" />
    <glyph glyph-name="ygrave" unicode="&#x1ef3;" horiz-adv-x="646" 
d="M516 323l-229 -480q-21 -44 -64 -73.5t-87 -29.5q-33 0 -53 16t-20 43q0 50 74 56q89 7 115 56l27 52l-177 438q-23 58 -39 72.5t-55 16.5v40h303v-40q-39 0 -54.5 -8t-15.5 -27q0 -13 9 -40l102 -292h4l86 195q44 101 44 128q0 26 -14.5 35t-58.5 9v40h241v-40
q-39 0 -62.5 -28t-75.5 -139zM490 651h-64l-134 60q-36 16 -52.5 28.5t-16.5 28.5q0 21 15 33t40 12q39 0 85 -43z" />
    <glyph glyph-name="Ytilde" unicode="&#x1ef8;" horiz-adv-x="760" 
d="M308 276l-207 368q-30 52 -53 69t-62 17v40h336v-40q-76 0 -76 -32q0 -15 25 -62l143 -273h4l126 210q59 99 59 127q0 17 -15.5 23.5t-57.5 6.5v40h251v-40q-44 0 -77.5 -35t-102.5 -152l-146 -250v-102q0 -98 19.5 -124.5t84.5 -26.5v-40h-356v40q64 0 84.5 26t20.5 118
v92zM283 828h-46q10 59 43 96.5t76 37.5q24 0 87 -24q56 -22 79 -22q19 0 30.5 9.5t18.5 32.5h45q-8 -58 -44 -102q-30 -36 -73 -36q-32 0 -85 25q-49 23 -87 23q-17 0 -27 -8.5t-17 -31.5z" />
    <glyph glyph-name="ytilde" unicode="&#x1ef9;" horiz-adv-x="646" 
d="M516 323l-229 -480q-21 -44 -64 -73.5t-87 -29.5q-33 0 -53 16t-20 43q0 50 74 56q89 7 115 56l27 52l-177 438q-23 58 -39 72.5t-55 16.5v40h303v-40q-39 0 -54.5 -8t-15.5 -27q0 -13 9 -40l102 -292h4l86 195q44 101 44 128q0 26 -14.5 35t-58.5 9v40h241v-40
q-39 0 -62.5 -28t-75.5 -139zM219 660h-46q10 59 43 96.5t76 37.5q24 0 87 -24q56 -22 79 -22q19 0 30.5 9.5t18.5 32.5h45q-8 -58 -44 -102q-30 -36 -73 -36q-32 0 -85 25q-49 23 -87 23q-17 0 -27 -9t-17 -31z" />
    <glyph glyph-name="endash" unicode="&#x2013;" horiz-adv-x="730" 
d="M664 243h-598v93h598v-93z" />
    <glyph glyph-name="emdash" unicode="&#x2014;" horiz-adv-x="1138" 
d="M1072 243h-1006v93h1006v-93z" />
    <glyph glyph-name="quoteleft" unicode="&#x2018;" horiz-adv-x="247" 
d="M166 830l29 -42q-75 -58 -75 -110q8 3 22 3q23 0 38.5 -18.5t15.5 -45.5q0 -33 -22 -55t-55 -22q-34 0 -54.5 25.5t-20.5 68.5q0 105 122 196z" />
    <glyph glyph-name="quoteright" unicode="&#x2019;" horiz-adv-x="242" 
d="M84 540l-29 42q75 58 75 110q-8 -3 -22 -3q-23 0 -38.5 18.5t-15.5 45.5q0 33 22 55t55 22q34 0 54.5 -25.5t20.5 -68.5q0 -104 -122 -196z" />
    <glyph glyph-name="quotesinglbase" unicode="&#x201a;" horiz-adv-x="261" 
d="M85 -184l-29 42q75 58 75 110q-7 -3 -22 -3q-23 0 -38.5 18.5t-15.5 45.5q0 33 22 55t55 22q34 0 54.5 -25.5t20.5 -68.5q0 -105 -122 -196z" />
    <glyph glyph-name="quotedblleft" unicode="&#x201c;" horiz-adv-x="453" 
d="M372 830l29 -42q-75 -58 -75 -110q8 3 22 3q23 0 38.5 -18.5t15.5 -45.5q0 -33 -22 -55t-55 -22q-34 0 -54.5 25.5t-20.5 68.5q0 105 122 196zM166 830l29 -42q-75 -58 -75 -110q8 3 22 3q23 0 38.5 -18.5t15.5 -45.5q0 -33 -22 -55t-55 -22q-34 0 -54.5 25.5t-20.5 68.5
q0 105 122 196z" />
    <glyph glyph-name="quotedblright" unicode="&#x201d;" horiz-adv-x="448" 
d="M84 540l-29 42q75 58 75 110q-8 -3 -22 -3q-23 0 -38.5 18.5t-15.5 45.5q0 33 22 55t55 22q34 0 54.5 -25.5t20.5 -68.5q0 -104 -122 -196zM290 540l-29 42q75 58 75 110q-7 -3 -22 -3q-23 0 -38.5 18.5t-15.5 45.5q0 33 22 55t55 22q34 0 54.5 -25.5t20.5 -68.5
q0 -104 -122 -196z" />
    <glyph glyph-name="quotedblbase" unicode="&#x201e;" horiz-adv-x="467" 
d="M85 -184l-29 42q75 58 75 110q-7 -3 -22 -3q-23 0 -38.5 18.5t-15.5 45.5q0 33 22 55t55 22q34 0 54.5 -25.5t20.5 -68.5q0 -105 -122 -196zM291 -184l-29 42q75 58 75 110q-7 -3 -22 -3q-23 0 -38.5 18.5t-15.5 45.5q0 33 22 55t55 22q34 0 54.5 -25.5t20.5 -68.5
q0 -105 -122 -196z" />
    <glyph glyph-name="dagger" unicode="&#x2020;" horiz-adv-x="580" 
d="M92 424q-28 0 -46.5 19t-18.5 48t18.5 48t46.5 19q20 0 69.5 -19.5t102.5 -23.5q-2 64 -22.5 120.5t-20.5 77.5q0 29 20 48t50 19t50 -19t20 -48q0 -21 -20.5 -77t-23.5 -121q51 5 100.5 24t70.5 19q28 0 46.5 -19t18.5 -48t-18.5 -48t-46.5 -19q-21 0 -71 19t-100 23
q0 -71 16 -116t52 -89q-27 -81 -47.5 -238.5t-20.5 -282.5h-52q0 125 -20.5 282.5t-47.5 238.5q36 44 51.5 89t16.5 116q-52 -4 -102 -23t-71 -19z" />
    <glyph glyph-name="daggerdbl" unicode="&#x2021;" horiz-adv-x="596" 
d="M393 261q-36 -43 -52 -89t-16 -116q46 5 91.5 25t64.5 20q32 0 53.5 -20.5t21.5 -51.5t-21.5 -51.5t-53.5 -20.5q-20 0 -65 20.5t-91 25.5q3 -63 26 -117.5t23 -73.5q0 -31 -21.5 -51.5t-53.5 -20.5t-53.5 20.5t-21.5 51.5q0 20 23 74.5t25 116.5q-47 -5 -93 -25.5
t-64 -20.5q-32 0 -53.5 20.5t-21.5 51.5t21.5 51.5t53.5 20.5q19 0 65 -20t93 -25q-1 70 -16.5 115t-51.5 90q37 43 53 88t17 115q-48 -5 -94.5 -25t-65.5 -20q-32 0 -53.5 20.5t-21.5 51.5t21.5 51.5t53.5 20.5q18 0 64.5 -20.5t94.5 -25.5q-2 62 -26 116.5t-24 74.5
q0 31 21.5 51.5t53.5 20.5t53.5 -20.5t21.5 -51.5q0 -20 -24 -74t-27 -117q47 5 93 25.5t65 20.5q32 0 53.5 -20.5t21.5 -51.5t-21.5 -51.5t-53.5 -20.5q-19 0 -65 20t-93 25q0 -70 16.5 -115t53.5 -88z" />
    <glyph glyph-name="bullet" unicode="&#x2022;" horiz-adv-x="466" 
d="M230 211q-63 0 -111 47.5t-48 110.5q0 64 48.5 110.5t115.5 46.5q65 0 112.5 -46.5t47.5 -110.5t-48.5 -111t-116.5 -47z" />
    <glyph glyph-name="ellipsis" unicode="&#x2026;" horiz-adv-x="754" 
d="M54 64q0 32 22 54.5t53 22.5q33 0 55 -22.5t22 -54.5q0 -31 -22 -52.5t-55 -21.5q-31 0 -53 21.5t-22 52.5zM301 64q0 32 22 54.5t53 22.5q33 0 55 -22.5t22 -54.5q0 -31 -22 -52.5t-55 -21.5q-31 0 -53 21.5t-22 52.5zM548 64q0 32 22 54.5t53 22.5q33 0 55 -22.5
t22 -54.5q0 -31 -22 -52.5t-55 -21.5q-31 0 -53 21.5t-22 52.5z" />
    <glyph glyph-name="perthousand" unicode="&#x2030;" horiz-adv-x="968" 
d="M682 770l-571 -770h-80l580 770h71zM215 780q54 0 91.5 -46.5t37.5 -113.5q0 -65 -38 -110.5t-91 -45.5t-91 45.5t-38 110.5q0 67 38 113.5t91 46.5zM215 499q27 0 40.5 26.5t13.5 92.5q0 70 -13 98.5t-41 28.5t-41 -28.5t-13 -98.5q0 -66 13 -92.5t41 -26.5zM805 306
q53 0 91 -46.5t38 -113.5q0 -65 -38 -110.5t-91 -45.5t-91 45.5t-38 110.5q0 67 38 113.5t91 46.5zM805 25q27 0 40.5 26.5t13.5 92.5q0 70 -13 98.5t-41 28.5t-41 -28.5t-13 -98.5q0 -66 13 -92.5t41 -26.5zM499 306q53 0 91 -46.5t38 -113.5q0 -65 -38 -110.5t-91 -45.5
t-91 45.5t-38 110.5q0 67 38 113.5t91 46.5zM499 25q27 0 40.5 26.5t13.5 92.5q0 70 -13 98.5t-41 28.5t-41 -28.5t-13 -98.5q0 -66 13 -92.5t41 -26.5z" />
    <glyph glyph-name="guilsinglleft" unicode="&#x2039;" horiz-adv-x="333" 
d="M238 77l-192 185l196 185l32 -23l-92 -162l90 -161z" />
    <glyph glyph-name="guilsinglright" unicode="&#x203a;" horiz-adv-x="333" 
d="M287 262l-192 -185l-34 24l90 161l-92 162l32 23z" />
    <glyph glyph-name="fraction" unicode="&#x2044;" horiz-adv-x="40" 
d="M346 770l-571 -770h-80l580 770h71z" />
    <glyph glyph-name="zerosuperior" unicode="&#x2070;" horiz-adv-x="314" 
d="M157 780q54 0 91.5 -46.5t37.5 -113.5q0 -65 -38 -110.5t-91 -45.5t-91 45.5t-38 110.5q0 67 38 113.5t91 46.5zM157 499q27 0 40.5 26.5t13.5 92.5q0 70 -13 98.5t-41 28.5t-41 -28.5t-13 -98.5q0 -66 13 -92.5t41 -26.5z" />
    <glyph glyph-name="foursuperior" unicode="&#x2074;" horiz-adv-x="283" 
d="M12 540v30l155 210h31v-211q26 1 32.5 7t6.5 29h19v-94h-19q0 19 -7 24t-32 6v-8q0 -28 6 -36t27 -9v-20h-144v20q28 1 36 8.5t8 33.5v10h-119zM131 570v111h-4l-80 -111h84z" />
    <glyph glyph-name="fivesuperior" unicode="&#x2075;" horiz-adv-x="265" 
d="M113 727l-16 -63l1 -4q14 17 44 17q39 0 67 -29t28 -69q0 -48 -39.5 -81.5t-95.5 -33.5q-39 0 -64.5 18t-25.5 46q0 24 23 24q13 0 19.5 -8.5t8 -19t10.5 -19t27 -8.5q64 0 64 96q0 52 -32 52q-33 0 -47 -30q-7 -16 -17 -16q-13 0 -13 10q0 4 1 6l45 165q18 -7 53 -7
q45 0 70 7h4q-5 -25 -26.5 -39t-53.5 -14h-35z" />
    <glyph glyph-name="sixsuperior" unicode="&#x2076;" horiz-adv-x="296" 
d="M270 574q0 -46 -35 -78t-85 -32q-54 0 -87.5 39t-33.5 102q0 73 41 124t100 51q32 0 54 -14t22 -33q0 -25 -25 -25q-14 0 -28.5 19.5t-32.5 19.5q-26 0 -45.5 -30t-19.5 -76l4 -1q24 36 71 36q42 0 71 -29.5t29 -72.5zM102 596v-20q0 -89 49 -89q47 0 47 80q0 75 -42 75
q-30 0 -54 -46z" />
    <glyph glyph-name="sevensuperior" unicode="&#x2077;" horiz-adv-x="231" 
d="M122 626l52 99h-68q-33 0 -43 -4.5t-19 -22.5l-6 -16h-21l29 112h22q-2 -4 -2 -12q0 -7 6.5 -9.5t26.5 -2.5h128v-8q-45 -97 -107 -260q-17 -44 -47 -44q-24 0 -24 23q0 16 73 145z" />
    <glyph glyph-name="eightsuperior" unicode="&#x2078;" horiz-adv-x="282" 
d="M153 595l-26 14q-43 -20 -43 -57q0 -26 16 -40.5t44 -14.5q21 0 36 14t15 35t-42 49zM186 641q67 -33 67 -88q0 -40 -33 -64.5t-80 -24.5q-42 0 -76.5 20t-34.5 55q0 53 70 83q-60 32 -60 79q0 32 28 57q26 22 73 22q42 0 69 -17q31 -20 31 -53q0 -23 -14 -38.5
t-40 -30.5zM138 665l20 -10q33 21 33 49q0 43 -45 43q-21 0 -33 -11t-12 -28q0 -24 37 -43z" />
    <glyph glyph-name="ninesuperior" unicode="&#x2079;" horiz-adv-x="298" 
d="M28 670q0 46 35 78t85 32q54 0 87.5 -39t33.5 -103q0 -72 -41.5 -123t-100.5 -51q-35 0 -60 14t-25 33q0 25 25 25q16 0 33 -19.5t37 -19.5q27 0 46 32t19 82l-4 3q-24 -36 -70 -36q-42 0 -71 27t-29 65zM196 658v20q0 79 -48 79t-48 -78q0 -67 41 -67q30 0 55 46z" />
    <glyph glyph-name="zeroinferior" unicode="&#x2080;" horiz-adv-x="316" 
d="M158 306q53 0 91 -46.5t38 -113.5q0 -65 -38 -110.5t-91 -45.5t-91 45.5t-38 110.5q0 67 38 113.5t91 46.5zM158 25q27 0 40.5 26.5t13.5 92.5q0 70 -13 98.5t-41 28.5t-41 -28.5t-13 -98.5q0 -66 13 -92.5t41 -26.5z" />
    <glyph glyph-name="oneinferior" unicode="&#x2081;" horiz-adv-x="249" 
d="M157 312v-237q0 -31 8 -40t36 -10v-25h-148v25q28 1 36 9.5t8 37.5v127q0 53 -2 58q-2 13 -44 13v25q49 1 106 17z" />
    <glyph glyph-name="twoinferior" unicode="&#x2082;" horiz-adv-x="284" 
d="M105 48v-4h79q18 0 28 8.5t17 32.5h26l-15 -85h-211v18q87 77 117.5 121t30.5 87q0 25 -13 39t-35 14q-17 0 -29 -12t-12 -29q0 -19 10 -31t26 -12q-2 -11 -12 -18.5t-26 -7.5q-25 0 -41.5 17t-16.5 43q0 36 31 59.5t78 23.5q49 0 80 -24t31 -62q0 -77 -143 -178z" />
    <glyph glyph-name="threeinferior" unicode="&#x2083;" horiz-adv-x="284" 
d="M180 82q0 28 -11.5 44t-31.5 16q-17 -7 -29 -7q-23 0 -23 21q0 19 22 19q10 0 27 -5q17 0 28 17.5t11 43.5q0 43 -38 43t-38 -29q0 -23 24 -23q-1 -8 -11.5 -14t-23.5 -6q-20 0 -33.5 14t-13.5 33q0 26 26 41.5t70 15.5q50 0 79.5 -19.5t29.5 -52.5q0 -25 -18 -45.5
t-46 -26.5v-4q34 -8 54 -30t20 -51q0 -38 -34 -62.5t-86 -24.5q-46 0 -76.5 20t-30.5 51q0 22 15 36.5t37 14.5q32 0 39 -23q-11 0 -19 -9.5t-8 -22.5q0 -15 11 -24t30 -9q48 0 48 58z" />
    <glyph glyph-name="fourinferior" unicode="&#x2084;" horiz-adv-x="283" 
d="M12 72v30l155 210h31v-211q26 1 32.5 7t6.5 29h19v-94h-19q0 19 -7 24t-32 6v-8q0 -28 6 -36t27 -9v-20h-144v20q28 1 36 8.5t8 33.5v10h-119zM131 102v111h-4l-80 -111h84z" />
    <glyph glyph-name="fiveinferior" unicode="&#x2085;" horiz-adv-x="265" 
d="M113 253l-16 -63l1 -4q14 17 44 17q39 0 67 -29t28 -69q0 -48 -39.5 -81.5t-95.5 -33.5q-39 0 -64.5 18t-25.5 46q0 24 23 24q13 0 19.5 -8.5t8 -19t10.5 -19t27 -8.5q64 0 64 96q0 52 -32 52q-33 0 -47 -30q-7 -16 -17 -16q-13 0 -13 10q0 4 1 6l45 165q17 -7 53 -7
q45 0 70 7h4q-5 -25 -26.5 -39t-53.5 -14h-35z" />
    <glyph glyph-name="sixinferior" unicode="&#x2086;" horiz-adv-x="297" 
d="M270 100q0 -46 -35 -78t-85 -32q-54 0 -87.5 39t-33.5 102q0 73 41 124t100 51q32 0 54 -14t22 -33q0 -25 -25 -25q-14 0 -28.5 19.5t-32.5 19.5q-26 0 -45.5 -30t-19.5 -76l4 -1q24 36 71 36q42 0 71 -29.5t29 -72.5zM102 122v-20q0 -89 49 -89q47 0 47 80q0 75 -42 75
q-30 0 -54 -46z" />
    <glyph glyph-name="seveninferior" unicode="&#x2087;" horiz-adv-x="231" 
d="M122 158l52 99h-68q-33 0 -43 -4.5t-19 -22.5l-6 -16h-21l29 112h22q-2 -4 -2 -12q0 -7 6.5 -9.5t26.5 -2.5h128v-8q-45 -97 -107 -260q-17 -44 -47 -44q-24 0 -24 23q0 16 73 145z" />
    <glyph glyph-name="eightinferior" unicode="&#x2088;" horiz-adv-x="282" 
d="M153 121l-26 14q-43 -20 -43 -57q0 -26 16 -40.5t44 -14.5q21 0 36 14t15 35t-42 49zM186 167q67 -33 67 -88q0 -40 -33 -64.5t-80 -24.5q-42 0 -76.5 20t-34.5 55q0 53 70 83q-60 32 -60 79q0 32 28 57q26 22 73 22q42 0 69 -17q31 -20 31 -53q0 -23 -14 -38.5
t-40 -30.5zM138 191l20 -10q33 21 33 49q0 43 -45 43q-21 0 -33 -11t-12 -28q0 -24 37 -43z" />
    <glyph glyph-name="nineinferior" unicode="&#x2089;" horiz-adv-x="298" 
d="M28 196q0 46 35 78t85 32q54 0 87.5 -39t33.5 -103q0 -72 -41.5 -123t-100.5 -51q-35 0 -60 14t-25 33q0 25 25 25q16 0 33 -19.5t37 -19.5q27 0 46 32t19 82l-4 3q-24 -36 -70 -36q-42 0 -71 27t-29 65zM196 184v20q0 79 -48 79t-48 -78q0 -67 41 -67q30 0 55 46z" />
    <glyph glyph-name="Euro" unicode="&#x20ac;" horiz-adv-x="762" 
d="M520 358v-60h-222q0 -111 45 -180.5t117 -69.5t121 61.5t58 160.5h55v-270h-46l-12 69q-72 -79 -184 -79q-125 0 -212 82.5t-112 225.5h-90v60h85q-1 10 -1 30q0 21 3 42h-88v60h94q28 139 116.5 214.5t216.5 75.5q49 0 81.5 -12t75.5 -49l18 51h39v-236h-55
q-17 91 -57 139.5t-98 48.5q-141 0 -168 -232h220v-60h-223q-3 -21 -3 -43q1 -10 1 -29h225z" />
    <glyph glyph-name="servicemark" unicode="&#x2120;" horiz-adv-x="806" 
d="M68 472v90h24q13 -68 79 -68q25 0 41.5 11t16.5 31q0 18 -13 30.5t-50 27.5q-52 21 -72 44t-20 58q0 39 28 61.5t67 22.5q35 0 66 -24l12 18h11v-79h-23q-19 55 -65 55q-19 0 -32 -8.5t-13 -25.5t11.5 -28t41.5 -24q64 -27 86 -50t22 -60q0 -43 -35 -66.5t-81 -23.5
q-42 0 -76 28l-11 -20h-15zM524 559l91 211h121v-25q-27 0 -34.5 -12t-7.5 -49v-136q0 -40 8 -50t38 -11v-25h-155v25q31 1 38.5 10.5t7.5 47.5v175h-4l-116 -262h-13l-109 262h-4v-172q0 -40 8 -50t38 -11v-25h-128v25q30 1 38 11t8 47v142q0 35 -8 46.5t-34 11.5v25h132z
" />
    <glyph glyph-name="trademark" unicode="&#x2122;" horiz-adv-x="906" 
d="M378 770v-81h-22q-3 32 -13.5 43t-42.5 11q-30 0 -38.5 -2.5t-8.5 -10.5v-194q0 -28 9 -38t40 -11v-25h-163v25q31 1 40.5 11.5t9.5 37.5v194q0 8 -8 10.5t-34 2.5q-33 0 -48.5 -9.5t-16.5 -44.5h-21v81h317zM624 559l91 211h121v-25q-27 0 -34.5 -12t-7.5 -49v-136
q0 -40 8 -50t38 -11v-25h-155v25q30 1 38 11t8 47v175h-4l-116 -262h-13l-109 262h-4v-172q0 -40 8 -50t38 -11v-25h-128v25q30 1 38 11t8 47v142q0 34 -8.5 46t-33.5 12v25h132z" />
    <glyph glyph-name="onethird" unicode="&#x2153;" horiz-adv-x="715" 
d="M679 770l-571 -770h-80l580 770h71zM242 780v-237q0 -31 8 -40t36 -10v-25h-148v25q28 1 36 9.5t8 37.5v127q0 53 -2 58q-2 13 -44 13v25q49 1 106 17zM544 82q0 28 -11.5 44t-31.5 16q-17 -7 -29 -7q-23 0 -23 21q0 19 22 19q10 0 27 -5q17 0 28 17.5t11 43.5
q0 43 -38 43t-38 -29q0 -23 24 -23q-1 -8 -11.5 -14t-23.5 -6q-20 0 -33.5 14t-13.5 33q0 26 26 41.5t70 15.5q50 0 79.5 -19.5t29.5 -52.5q0 -25 -18 -45.5t-46 -26.5v-4q34 -8 54 -30t20 -51q0 -38 -34 -62.5t-86 -24.5q-46 0 -76.5 20t-30.5 51q0 22 15 36.5t37 14.5
q32 0 39 -23q-11 0 -19 -9.5t-8 -22.5q0 -15 11 -24t30 -9q48 0 48 58z" />
    <glyph glyph-name="twothirds" unicode="&#x2154;" horiz-adv-x="717" 
d="M687 770l-571 -770h-80l580 770h71zM552 82q0 28 -11.5 44t-31.5 16q-17 -7 -29 -7q-23 0 -23 21q0 19 22 19q10 0 27 -5q17 0 28 17.5t11 43.5q0 43 -38 43t-38 -29q0 -23 24 -23q-1 -8 -11.5 -14t-23.5 -6q-20 0 -33.5 14t-13.5 33q0 26 26 41.5t70 15.5
q50 0 79.5 -19.5t29.5 -52.5q0 -25 -18 -45.5t-46 -26.5v-4q34 -8 54 -30t20 -51q0 -38 -34 -62.5t-86 -24.5q-46 0 -76.5 20t-30.5 51q0 22 15 36.5t37 14.5q32 0 39 -23q-11 0 -19 -9.5t-8 -22.5q0 -15 11 -24t30 -9q48 0 48 58zM166 516v-4h79q18 0 28 8.5t17 32.5h26
l-15 -85h-211v18q87 77 117.5 121t30.5 87q0 25 -13 39t-35 14q-17 0 -29 -12t-12 -29q0 -19 10 -31t26 -12q-2 -11 -12 -18.5t-26 -7.5q-25 0 -41.5 17t-16.5 43q0 36 31 59.5t78 23.5q49 0 80 -24t31 -62q0 -77 -143 -178z" />
    <glyph glyph-name="oneeighth" unicode="&#x215b;" horiz-adv-x="715" 
d="M679 770l-571 -770h-80l580 770h71zM242 780v-237q0 -31 8 -40t36 -10v-25h-148v25q28 1 36 9.5t8 37.5v127q0 53 -2 58q-2 13 -44 13v25q49 1 106 17zM517 121l-26 14q-43 -20 -43 -57q0 -26 16 -40.5t44 -14.5q21 0 36 14t15 35t-42 49zM550 167q67 -33 67 -88
q0 -40 -33 -64.5t-80 -24.5q-42 0 -76.5 20t-34.5 55q0 53 70 83q-60 32 -60 79q0 32 28 57q26 22 73 22q42 0 69 -17q31 -20 31 -53q0 -23 -14 -38.5t-40 -30.5zM502 191l20 -10q33 21 33 49q0 43 -45 43q-21 0 -33 -11t-12 -28q0 -24 37 -43z" />
    <glyph glyph-name="threeeighths" unicode="&#x215c;" horiz-adv-x="716" 
d="M686 770l-571 -770h-80l580 770h71zM524 121l-26 14q-43 -20 -43 -57q0 -26 16 -40.5t44 -14.5q21 0 36 14t15 35t-42 49zM557 167q67 -33 67 -88q0 -40 -33 -64.5t-80 -24.5q-42 0 -76.5 20t-34.5 55q0 53 70 83q-60 32 -60 79q0 32 28 57q26 22 73 22q42 0 69 -17
q31 -20 31 -53q0 -23 -14 -38.5t-40 -30.5zM509 191l20 -10q33 21 33 49q0 43 -45 43q-21 0 -33 -11t-12 -28q0 -24 37 -43zM237 556q0 28 -11.5 44t-31.5 16q-18 -7 -29 -7q-23 0 -23 21q0 19 22 19q10 0 27 -5q17 0 28 17.5t11 43.5q0 43 -38 43t-38 -29q0 -23 24 -23
q-1 -8 -11.5 -14t-23.5 -6q-19 0 -33 14t-14 33q0 26 26 41.5t70 15.5q50 0 79.5 -19.5t29.5 -52.5q0 -25 -18 -45.5t-46 -26.5v-4q34 -8 54 -30t20 -51q0 -38 -34 -62.5t-86 -24.5q-46 0 -76.5 20t-30.5 51q0 22 15 36.5t37 14.5q32 0 39 -23q-11 0 -19 -9.5t-8 -22.5
q0 -15 11 -24t30 -9q48 0 48 58z" />
    <glyph glyph-name="fiveeighths" unicode="&#x215d;" horiz-adv-x="713" 
d="M683 770l-571 -770h-80l580 770h71zM521 121l-26 14q-43 -20 -43 -57q0 -26 16 -40.5t44 -14.5q21 0 36 14t15 35t-42 49zM554 167q67 -33 67 -88q0 -40 -33 -64.5t-80 -24.5q-42 0 -76.5 20t-34.5 55q0 53 70 83q-60 32 -60 79q0 32 28 57q26 22 73 22q42 0 69 -17
q31 -20 31 -53q0 -23 -14 -38.5t-40 -30.5zM506 191l20 -10q33 21 33 49q0 43 -45 43q-21 0 -33 -11t-12 -28q0 -24 37 -43zM180 727l-16 -63l1 -4q14 17 44 17q39 0 67 -29t28 -69q0 -48 -39.5 -81.5t-95.5 -33.5q-39 0 -64.5 18t-25.5 46q0 24 23 24q13 0 19.5 -8.5t8 -19
t10.5 -19t27 -8.5q64 0 64 96q0 52 -32 52q-33 0 -47 -30q-7 -16 -17 -16q-13 0 -13 10q0 4 1 6l45 165q18 -7 53 -7q45 0 70 7h4q-5 -25 -26.5 -39t-53.5 -14h-35z" />
    <glyph glyph-name="seveneighths" unicode="&#x215e;" horiz-adv-x="715" 
d="M679 770l-571 -770h-80l580 770h71zM517 121l-26 14q-43 -20 -43 -57q0 -26 16 -40.5t44 -14.5q21 0 36 14t15 35t-42 49zM550 167q67 -33 67 -88q0 -40 -33 -64.5t-80 -24.5q-42 0 -76.5 20t-34.5 55q0 53 70 83q-60 32 -60 79q0 32 28 57q26 22 73 22q42 0 69 -17
q31 -20 31 -53q0 -23 -14 -38.5t-40 -30.5zM502 191l20 -10q33 21 33 49q0 43 -45 43q-21 0 -33 -11t-12 -28q0 -24 37 -43zM229 626l52 99h-68q-33 0 -43 -4.5t-19 -22.5l-6 -16h-21l29 112h22q-2 -4 -2 -12q0 -7 6.5 -9.5t26.5 -2.5h128v-8q-45 -97 -107 -260
q-17 -44 -47 -44q-24 0 -24 23q0 16 73 145z" />
    <glyph glyph-name="minus" unicode="&#x2212;" horiz-adv-x="634" 
d="M563 370v-64h-492v64h492z" />
    <glyph glyph-name="uni2215" unicode="&#x2215;" horiz-adv-x="582" 
d="M617 770l-571 -770h-80l580 770h71z" />
    <glyph glyph-name="uni2219" unicode="&#x2219;" horiz-adv-x="281" 
d="M65 274q0 32 22 54.5t53 22.5q33 0 55 -22.5t22 -54.5q0 -31 -22 -52.5t-55 -21.5q-31 0 -53 21.5t-22 52.5z" />
    <glyph glyph-name="commaaccent" unicode="&#xf6c3;" horiz-adv-x="170" 
d="M54 -260l-28 31q58 32 58 72q-10 -8 -27 -8q-19 0 -32.5 14t-13.5 36q0 24 20.5 42t51.5 18t48.5 -20.5t17.5 -58.5q0 -72 -95 -126z" />
    <glyph glyph-name="s_t" unicode="&#xfb06;" horiz-adv-x="867" 
d="M107 35l-22 -35h-31v182h42q17 -71 49 -104.5t83 -33.5q37 0 57.5 15.5t20.5 42.5t-24 52t-82 59q-79 46 -110.5 84t-31.5 89q0 73 53.5 116t142.5 43q40 0 69 -7q-8 37 -8 71q0 94 54 144.5t154 50.5q98 0 148.5 -49.5t50.5 -145.5v-79h115v-55h-115v-307
q0 -61 14 -87.5t46 -26.5q35 0 58 36l21 -29q-28 -71 -132 -71q-69 0 -107.5 32t-38.5 90v363h-73v45q67 0 105 32.5t38 83.5q0 50 -37 81.5t-98 31.5q-67 0 -105 -39t-38 -108q0 -61 40 -107q19 -21 19 -43q0 -25 -17.5 -41.5t-43.5 -16.5q-23 0 -41 14.5t-28.5 32
t-29.5 32t-42 14.5q-26 0 -42.5 -15.5t-16.5 -39.5q0 -28 22.5 -50.5t83.5 -57.5q86 -50 118.5 -89t32.5 -92q0 -69 -50 -111t-132 -42q-93 0 -141 45z" />
    <glyph glyph-name="dotaccent.cap" horiz-adv-x="173" 
d="M20 893q0 27 19.5 46.5t46.5 19.5q29 0 49.5 -19t20.5 -47q0 -26 -20.5 -44.5t-49.5 -18.5q-26 0 -46 19t-20 44z" />
    <glyph glyph-name="dieresis.cap" horiz-adv-x="339" 
d="M0 903q0 25 17 41t43 16q27 0 44.5 -16t17.5 -41q0 -26 -17.5 -42.5t-44.5 -16.5q-26 0 -43 16.5t-17 42.5zM217 903q0 25 17.5 41t44.5 16q25 0 42.5 -16.5t17.5 -40.5q0 -26 -17.5 -42.5t-42.5 -16.5q-27 0 -44.5 16.5t-17.5 42.5z" />
    <glyph glyph-name="dotbelow" horiz-adv-x="172" 
d="M9 -165q0 33 22.5 55.5t54.5 22.5q33 0 55.5 -22.5t22.5 -55.5q0 -32 -22.5 -54.5t-55.5 -22.5q-32 0 -54.5 22.5t-22.5 54.5z" />
    <glyph glyph-name="acute.cap" horiz-adv-x="317" 
d="M93 830h-73l126 97q43 33 94 33q57 0 57 -37q0 -23 -19 -38t-69 -27z" />
    <glyph glyph-name="hungarumlaut.cap" horiz-adv-x="521" 
d="M93 830h-73l106 97q36 33 94 33q57 0 57 -37q0 -23 -18.5 -36.5t-69.5 -28.5zM317 830h-73l106 97q36 33 94 33q57 0 57 -37q0 -23 -18.5 -36.5t-69.5 -28.5z" />
    <glyph glyph-name="tilde.cap" horiz-adv-x="401" 
d="M57 828h-46q10 59 43 96.5t76 37.5q24 0 87 -24q56 -22 79 -22q19 0 30.5 9.5t18.5 32.5h45q-8 -58 -44 -102q-30 -36 -73 -36q-32 0 -85 25q-49 23 -87 23q-17 0 -27 -8.5t-17 -31.5z" />
    <glyph glyph-name="grave.cap" horiz-adv-x="317" 
d="M297 830h-73l-116 28q-50 12 -69 27t-19 38q0 37 57 37q51 0 94 -33z" />
    <glyph glyph-name="breve.cap" horiz-adv-x="332" 
d="M272 960h44q-4 -57 -46 -93.5t-104 -36.5q-63 0 -105.5 37t-44.5 93h43q9 -19 38 -30t68 -11t68.5 11t38.5 30z" />
    <glyph glyph-name="circumflex.cap" horiz-adv-x="386" 
d="M135 960h116l124 -130h-67l-115 49l-115 -49h-67z" />
    <glyph glyph-name="caron.cap" horiz-adv-x="386" 
d="M251 830h-116l-124 130h67l115 -49l115 49h67z" />
    <glyph glyph-name="ring.cap" horiz-adv-x="178" 
d="M21 895q0 28 19.5 46.5t48.5 18.5t48.5 -18.5t19.5 -46.5t-19.5 -46.5t-48.5 -18.5t-48.5 18.5t-19.5 46.5zM63 895q0 -10 7.5 -17t18.5 -7t18 7t7 17t-7 16.5t-18 6.5t-18.5 -6.5t-7.5 -16.5z" />
    <glyph glyph-name="macron.cap" horiz-adv-x="326" 
d="M305 865h-284v65h284v-65z" />
    <glyph glyph-name="caron.alt" horiz-adv-x="170" 
d="M54 559l-28 31q58 41 58 88q-10 -8 -27 -8q-19 0 -32.5 14t-13.5 36q0 24 20.5 42t51.5 18t48.5 -20.5t17.5 -58.5q0 -80 -95 -142z" />
    <glyph glyph-name="c_t" horiz-adv-x="947" 
d="M502 121l26 -38q-79 -88 -217 -88q-122 0 -197 74t-75 194q0 124 80 200.5t211 76.5q43 0 79 -9q-14 34 -14 80q0 93 54 143t155 50q97 0 147.5 -49.5t50.5 -145.5v-79h115v-55h-115v-307q0 -61 14 -87.5t46 -26.5q36 0 58 36l21 -29q-28 -71 -132 -71q-69 0 -107.5 32
t-38.5 90v363h-73v45q66 5 104.5 35.5t38.5 79.5q0 51 -37 82.5t-97 31.5q-67 0 -105.5 -38.5t-38.5 -104.5q0 -68 45 -117q36 -30 36 -69q0 -28 -17 -44.5t-45 -16.5q-40 0 -74 51t-46.5 61.5t-37.5 10.5q-58 0 -90.5 -53.5t-32.5 -150.5q0 -105 38.5 -161t111.5 -56
q80 0 159 60z" />
    <glyph glyph-name="s_p" horiz-adv-x="1132" 
d="M107 35l-22 -35h-31v182h42q17 -71 49 -104.5t83 -33.5q37 0 57.5 15.5t20.5 42.5q0 25 -21.5 49.5t-84.5 61.5q-80 46 -111 83.5t-31 89.5q0 73 53.5 116t142.5 43h12q-29 32 -29 79q0 69 51 117.5t123 48.5q39 0 75 -18t63.5 -35.5t44.5 -17.5q12 63 63 63q57 0 57 -51
q0 -26 -20 -49.5t-42 -23.5v-193h4q66 75 172 75q116 0 190.5 -77.5t74.5 -197.5q0 -119 -74 -197t-189 -78q-97 0 -148 66h-4v-139q0 -79 21 -101t99 -24v-42h-345v42q54 2 70.5 24t16.5 94v540q0 112 40 218q-25 0 -79.5 32t-90.5 32q-50 0 -83 -30t-33 -76q0 -68 76 -102
q64 -30 64 -72q0 -25 -17.5 -41.5t-43.5 -16.5q-23 0 -41 14.5t-28.5 32t-29.5 32t-42 14.5q-26 0 -42.5 -15.5t-16.5 -39.5q0 -29 22 -51t84 -57q86 -50 118.5 -89.5t32.5 -91.5q0 -69 -50 -111t-132 -42q-94 0 -141 45zM822 483q-68 0 -105 -48.5t-37 -134.5v-68
q0 -75 39 -125.5t103 -50.5q120 0 120 207q0 220 -120 220z" />
    </font>
</defs>
</svg>
